<?xml version="1.0" encoding="utf-8" standalone="no"?>
<!DOCTYPE svg PUBLIC "-//W3C//DTD SVG 1.1//EN"
  "http://www.w3.org/Graphics/SVG/1.1/DTD/svg11.dtd">
<svg xmlns:xlink="http://www.w3.org/1999/xlink" width="460.8pt" height="345.6pt" viewBox="0 0 460.8 345.6" xmlns="http://www.w3.org/2000/svg" version="1.1">
 <metadata>
  <rdf:RDF xmlns:dc="http://purl.org/dc/elements/1.1/" xmlns:cc="http://creativecommons.org/ns#" xmlns:rdf="http://www.w3.org/1999/02/22-rdf-syntax-ns#">
   <cc:Work>
    <dc:type rdf:resource="http://purl.org/dc/dcmitype/StillImage"/>
    <dc:date>2024-03-22T16:43:00.998174</dc:date>
    <dc:format>image/svg+xml</dc:format>
    <dc:creator>
     <cc:Agent>
      <dc:title>Matplotlib v3.8.0, https://matplotlib.org/</dc:title>
     </cc:Agent>
    </dc:creator>
   </cc:Work>
  </rdf:RDF>
 </metadata>
 <defs>
  <style type="text/css">*{stroke-linejoin: round; stroke-linecap: butt}</style>
 </defs>
 <g id="figure_1">
  <g id="patch_1">
   <path d="M 0 345.6 
L 460.8 345.6 
L 460.8 0 
L 0 0 
z
" style="fill: #ffffff"/>
  </g>
  <g id="axes_1">
   <g id="patch_2">
    <path d="M 57.6 307.584 
L 414.72 307.584 
L 414.72 41.472 
L 57.6 41.472 
z
" style="fill: #ffffff"/>
   </g>
   <g id="matplotlib.axis_1">
    <g id="xtick_1">
     <g id="line2d_1">
      <defs>
       <path id="m237619feec" d="M 0 0 
L 0 3.5 
" style="stroke: #000000; stroke-width: 0.8"/>
      </defs>
      <g>
       <use xlink:href="#m237619feec" x="73.832727" y="307.584" style="stroke: #000000; stroke-width: 0.8"/>
      </g>
     </g>
     <g id="text_1">
      <!-- 0 -->
      <g transform="translate(70.651477 322.182437) scale(0.1 -0.1)">
       <defs>
        <path id="DejaVuSans-30" d="M 2034 4250 
Q 1547 4250 1301 3770 
Q 1056 3291 1056 2328 
Q 1056 1369 1301 889 
Q 1547 409 2034 409 
Q 2525 409 2770 889 
Q 3016 1369 3016 2328 
Q 3016 3291 2770 3770 
Q 2525 4250 2034 4250 
z
M 2034 4750 
Q 2819 4750 3233 4129 
Q 3647 3509 3647 2328 
Q 3647 1150 3233 529 
Q 2819 -91 2034 -91 
Q 1250 -91 836 529 
Q 422 1150 422 2328 
Q 422 3509 836 4129 
Q 1250 4750 2034 4750 
z
" transform="scale(0.015625)"/>
       </defs>
       <use xlink:href="#DejaVuSans-30"/>
      </g>
     </g>
    </g>
    <g id="xtick_2">
     <g id="line2d_2">
      <g>
       <use xlink:href="#m237619feec" x="114.516254" y="307.584" style="stroke: #000000; stroke-width: 0.8"/>
      </g>
     </g>
     <g id="text_2">
      <!-- 50 -->
      <g transform="translate(108.153754 322.182437) scale(0.1 -0.1)">
       <defs>
        <path id="DejaVuSans-35" d="M 691 4666 
L 3169 4666 
L 3169 4134 
L 1269 4134 
L 1269 2991 
Q 1406 3038 1543 3061 
Q 1681 3084 1819 3084 
Q 2600 3084 3056 2656 
Q 3513 2228 3513 1497 
Q 3513 744 3044 326 
Q 2575 -91 1722 -91 
Q 1428 -91 1123 -41 
Q 819 9 494 109 
L 494 744 
Q 775 591 1075 516 
Q 1375 441 1709 441 
Q 2250 441 2565 725 
Q 2881 1009 2881 1497 
Q 2881 1984 2565 2268 
Q 2250 2553 1709 2553 
Q 1456 2553 1204 2497 
Q 953 2441 691 2322 
L 691 4666 
z
" transform="scale(0.015625)"/>
       </defs>
       <use xlink:href="#DejaVuSans-35"/>
       <use xlink:href="#DejaVuSans-30" x="63.623047"/>
      </g>
     </g>
    </g>
    <g id="xtick_3">
     <g id="line2d_3">
      <g>
       <use xlink:href="#m237619feec" x="155.199781" y="307.584" style="stroke: #000000; stroke-width: 0.8"/>
      </g>
     </g>
     <g id="text_3">
      <!-- 100 -->
      <g transform="translate(145.656031 322.182437) scale(0.1 -0.1)">
       <defs>
        <path id="DejaVuSans-31" d="M 794 531 
L 1825 531 
L 1825 4091 
L 703 3866 
L 703 4441 
L 1819 4666 
L 2450 4666 
L 2450 531 
L 3481 531 
L 3481 0 
L 794 0 
L 794 531 
z
" transform="scale(0.015625)"/>
       </defs>
       <use xlink:href="#DejaVuSans-31"/>
       <use xlink:href="#DejaVuSans-30" x="63.623047"/>
       <use xlink:href="#DejaVuSans-30" x="127.246094"/>
      </g>
     </g>
    </g>
    <g id="xtick_4">
     <g id="line2d_4">
      <g>
       <use xlink:href="#m237619feec" x="195.883308" y="307.584" style="stroke: #000000; stroke-width: 0.8"/>
      </g>
     </g>
     <g id="text_4">
      <!-- 150 -->
      <g transform="translate(186.339558 322.182437) scale(0.1 -0.1)">
       <use xlink:href="#DejaVuSans-31"/>
       <use xlink:href="#DejaVuSans-35" x="63.623047"/>
       <use xlink:href="#DejaVuSans-30" x="127.246094"/>
      </g>
     </g>
    </g>
    <g id="xtick_5">
     <g id="line2d_5">
      <g>
       <use xlink:href="#m237619feec" x="236.566835" y="307.584" style="stroke: #000000; stroke-width: 0.8"/>
      </g>
     </g>
     <g id="text_5">
      <!-- 200 -->
      <g transform="translate(227.023085 322.182437) scale(0.1 -0.1)">
       <defs>
        <path id="DejaVuSans-32" d="M 1228 531 
L 3431 531 
L 3431 0 
L 469 0 
L 469 531 
Q 828 903 1448 1529 
Q 2069 2156 2228 2338 
Q 2531 2678 2651 2914 
Q 2772 3150 2772 3378 
Q 2772 3750 2511 3984 
Q 2250 4219 1831 4219 
Q 1534 4219 1204 4116 
Q 875 4013 500 3803 
L 500 4441 
Q 881 4594 1212 4672 
Q 1544 4750 1819 4750 
Q 2544 4750 2975 4387 
Q 3406 4025 3406 3419 
Q 3406 3131 3298 2873 
Q 3191 2616 2906 2266 
Q 2828 2175 2409 1742 
Q 1991 1309 1228 531 
z
" transform="scale(0.015625)"/>
       </defs>
       <use xlink:href="#DejaVuSans-32"/>
       <use xlink:href="#DejaVuSans-30" x="63.623047"/>
       <use xlink:href="#DejaVuSans-30" x="127.246094"/>
      </g>
     </g>
    </g>
    <g id="xtick_6">
     <g id="line2d_6">
      <g>
       <use xlink:href="#m237619feec" x="277.250362" y="307.584" style="stroke: #000000; stroke-width: 0.8"/>
      </g>
     </g>
     <g id="text_6">
      <!-- 250 -->
      <g transform="translate(267.706612 322.182437) scale(0.1 -0.1)">
       <use xlink:href="#DejaVuSans-32"/>
       <use xlink:href="#DejaVuSans-35" x="63.623047"/>
       <use xlink:href="#DejaVuSans-30" x="127.246094"/>
      </g>
     </g>
    </g>
    <g id="xtick_7">
     <g id="line2d_7">
      <g>
       <use xlink:href="#m237619feec" x="317.933889" y="307.584" style="stroke: #000000; stroke-width: 0.8"/>
      </g>
     </g>
     <g id="text_7">
      <!-- 300 -->
      <g transform="translate(308.390139 322.182437) scale(0.1 -0.1)">
       <defs>
        <path id="DejaVuSans-33" d="M 2597 2516 
Q 3050 2419 3304 2112 
Q 3559 1806 3559 1356 
Q 3559 666 3084 287 
Q 2609 -91 1734 -91 
Q 1441 -91 1130 -33 
Q 819 25 488 141 
L 488 750 
Q 750 597 1062 519 
Q 1375 441 1716 441 
Q 2309 441 2620 675 
Q 2931 909 2931 1356 
Q 2931 1769 2642 2001 
Q 2353 2234 1838 2234 
L 1294 2234 
L 1294 2753 
L 1863 2753 
Q 2328 2753 2575 2939 
Q 2822 3125 2822 3475 
Q 2822 3834 2567 4026 
Q 2313 4219 1838 4219 
Q 1578 4219 1281 4162 
Q 984 4106 628 3988 
L 628 4550 
Q 988 4650 1302 4700 
Q 1616 4750 1894 4750 
Q 2613 4750 3031 4423 
Q 3450 4097 3450 3541 
Q 3450 3153 3228 2886 
Q 3006 2619 2597 2516 
z
" transform="scale(0.015625)"/>
       </defs>
       <use xlink:href="#DejaVuSans-33"/>
       <use xlink:href="#DejaVuSans-30" x="63.623047"/>
       <use xlink:href="#DejaVuSans-30" x="127.246094"/>
      </g>
     </g>
    </g>
    <g id="xtick_8">
     <g id="line2d_8">
      <g>
       <use xlink:href="#m237619feec" x="358.617416" y="307.584" style="stroke: #000000; stroke-width: 0.8"/>
      </g>
     </g>
     <g id="text_8">
      <!-- 350 -->
      <g transform="translate(349.073666 322.182437) scale(0.1 -0.1)">
       <use xlink:href="#DejaVuSans-33"/>
       <use xlink:href="#DejaVuSans-35" x="63.623047"/>
       <use xlink:href="#DejaVuSans-30" x="127.246094"/>
      </g>
     </g>
    </g>
    <g id="xtick_9">
     <g id="line2d_9">
      <g>
       <use xlink:href="#m237619feec" x="399.300943" y="307.584" style="stroke: #000000; stroke-width: 0.8"/>
      </g>
     </g>
     <g id="text_9">
      <!-- 400 -->
      <g transform="translate(389.757193 322.182437) scale(0.1 -0.1)">
       <defs>
        <path id="DejaVuSans-34" d="M 2419 4116 
L 825 1625 
L 2419 1625 
L 2419 4116 
z
M 2253 4666 
L 3047 4666 
L 3047 1625 
L 3713 1625 
L 3713 1100 
L 3047 1100 
L 3047 0 
L 2419 0 
L 2419 1100 
L 313 1100 
L 313 1709 
L 2253 4666 
z
" transform="scale(0.015625)"/>
       </defs>
       <use xlink:href="#DejaVuSans-34"/>
       <use xlink:href="#DejaVuSans-30" x="63.623047"/>
       <use xlink:href="#DejaVuSans-30" x="127.246094"/>
      </g>
     </g>
    </g>
   </g>
   <g id="matplotlib.axis_2">
    <g id="ytick_1">
     <g id="line2d_10">
      <defs>
       <path id="m5462aade13" d="M 0 0 
L -3.5 0 
" style="stroke: #000000; stroke-width: 0.8"/>
      </defs>
      <g>
       <use xlink:href="#m5462aade13" x="57.6" y="295.488" style="stroke: #000000; stroke-width: 0.8"/>
      </g>
     </g>
     <g id="text_10">
      <!-- 0 -->
      <g transform="translate(44.2375 299.287219) scale(0.1 -0.1)">
       <use xlink:href="#DejaVuSans-30"/>
      </g>
     </g>
    </g>
    <g id="ytick_2">
     <g id="line2d_11">
      <g>
       <use xlink:href="#m5462aade13" x="57.6" y="251.470533" style="stroke: #000000; stroke-width: 0.8"/>
      </g>
     </g>
     <g id="text_11">
      <!-- 500 -->
      <g transform="translate(31.5125 255.269752) scale(0.1 -0.1)">
       <use xlink:href="#DejaVuSans-35"/>
       <use xlink:href="#DejaVuSans-30" x="63.623047"/>
       <use xlink:href="#DejaVuSans-30" x="127.246094"/>
      </g>
     </g>
    </g>
    <g id="ytick_3">
     <g id="line2d_12">
      <g>
       <use xlink:href="#m5462aade13" x="57.6" y="207.453066" style="stroke: #000000; stroke-width: 0.8"/>
      </g>
     </g>
     <g id="text_12">
      <!-- 1000 -->
      <g transform="translate(25.15 211.252284) scale(0.1 -0.1)">
       <use xlink:href="#DejaVuSans-31"/>
       <use xlink:href="#DejaVuSans-30" x="63.623047"/>
       <use xlink:href="#DejaVuSans-30" x="127.246094"/>
       <use xlink:href="#DejaVuSans-30" x="190.869141"/>
      </g>
     </g>
    </g>
    <g id="ytick_4">
     <g id="line2d_13">
      <g>
       <use xlink:href="#m5462aade13" x="57.6" y="163.435598" style="stroke: #000000; stroke-width: 0.8"/>
      </g>
     </g>
     <g id="text_13">
      <!-- 1500 -->
      <g transform="translate(25.15 167.234817) scale(0.1 -0.1)">
       <use xlink:href="#DejaVuSans-31"/>
       <use xlink:href="#DejaVuSans-35" x="63.623047"/>
       <use xlink:href="#DejaVuSans-30" x="127.246094"/>
       <use xlink:href="#DejaVuSans-30" x="190.869141"/>
      </g>
     </g>
    </g>
    <g id="ytick_5">
     <g id="line2d_14">
      <g>
       <use xlink:href="#m5462aade13" x="57.6" y="119.418131" style="stroke: #000000; stroke-width: 0.8"/>
      </g>
     </g>
     <g id="text_14">
      <!-- 2000 -->
      <g transform="translate(25.15 123.21735) scale(0.1 -0.1)">
       <use xlink:href="#DejaVuSans-32"/>
       <use xlink:href="#DejaVuSans-30" x="63.623047"/>
       <use xlink:href="#DejaVuSans-30" x="127.246094"/>
       <use xlink:href="#DejaVuSans-30" x="190.869141"/>
      </g>
     </g>
    </g>
    <g id="ytick_6">
     <g id="line2d_15">
      <g>
       <use xlink:href="#m5462aade13" x="57.6" y="75.400664" style="stroke: #000000; stroke-width: 0.8"/>
      </g>
     </g>
     <g id="text_15">
      <!-- 2500 -->
      <g transform="translate(25.15 79.199883) scale(0.1 -0.1)">
       <use xlink:href="#DejaVuSans-32"/>
       <use xlink:href="#DejaVuSans-35" x="63.623047"/>
       <use xlink:href="#DejaVuSans-30" x="127.246094"/>
       <use xlink:href="#DejaVuSans-30" x="190.869141"/>
      </g>
     </g>
    </g>
    <g id="text_16">
     <!-- Merge Score -->
     <g transform="translate(19.070312 205.728781) rotate(-90) scale(0.1 -0.1)">
      <defs>
       <path id="DejaVuSans-4d" d="M 628 4666 
L 1569 4666 
L 2759 1491 
L 3956 4666 
L 4897 4666 
L 4897 0 
L 4281 0 
L 4281 4097 
L 3078 897 
L 2444 897 
L 1241 4097 
L 1241 0 
L 628 0 
L 628 4666 
z
" transform="scale(0.015625)"/>
       <path id="DejaVuSans-65" d="M 3597 1894 
L 3597 1613 
L 953 1613 
Q 991 1019 1311 708 
Q 1631 397 2203 397 
Q 2534 397 2845 478 
Q 3156 559 3463 722 
L 3463 178 
Q 3153 47 2828 -22 
Q 2503 -91 2169 -91 
Q 1331 -91 842 396 
Q 353 884 353 1716 
Q 353 2575 817 3079 
Q 1281 3584 2069 3584 
Q 2775 3584 3186 3129 
Q 3597 2675 3597 1894 
z
M 3022 2063 
Q 3016 2534 2758 2815 
Q 2500 3097 2075 3097 
Q 1594 3097 1305 2825 
Q 1016 2553 972 2059 
L 3022 2063 
z
" transform="scale(0.015625)"/>
       <path id="DejaVuSans-72" d="M 2631 2963 
Q 2534 3019 2420 3045 
Q 2306 3072 2169 3072 
Q 1681 3072 1420 2755 
Q 1159 2438 1159 1844 
L 1159 0 
L 581 0 
L 581 3500 
L 1159 3500 
L 1159 2956 
Q 1341 3275 1631 3429 
Q 1922 3584 2338 3584 
Q 2397 3584 2469 3576 
Q 2541 3569 2628 3553 
L 2631 2963 
z
" transform="scale(0.015625)"/>
       <path id="DejaVuSans-67" d="M 2906 1791 
Q 2906 2416 2648 2759 
Q 2391 3103 1925 3103 
Q 1463 3103 1205 2759 
Q 947 2416 947 1791 
Q 947 1169 1205 825 
Q 1463 481 1925 481 
Q 2391 481 2648 825 
Q 2906 1169 2906 1791 
z
M 3481 434 
Q 3481 -459 3084 -895 
Q 2688 -1331 1869 -1331 
Q 1566 -1331 1297 -1286 
Q 1028 -1241 775 -1147 
L 775 -588 
Q 1028 -725 1275 -790 
Q 1522 -856 1778 -856 
Q 2344 -856 2625 -561 
Q 2906 -266 2906 331 
L 2906 616 
Q 2728 306 2450 153 
Q 2172 0 1784 0 
Q 1141 0 747 490 
Q 353 981 353 1791 
Q 353 2603 747 3093 
Q 1141 3584 1784 3584 
Q 2172 3584 2450 3431 
Q 2728 3278 2906 2969 
L 2906 3500 
L 3481 3500 
L 3481 434 
z
" transform="scale(0.015625)"/>
       <path id="DejaVuSans-20" transform="scale(0.015625)"/>
       <path id="DejaVuSans-53" d="M 3425 4513 
L 3425 3897 
Q 3066 4069 2747 4153 
Q 2428 4238 2131 4238 
Q 1616 4238 1336 4038 
Q 1056 3838 1056 3469 
Q 1056 3159 1242 3001 
Q 1428 2844 1947 2747 
L 2328 2669 
Q 3034 2534 3370 2195 
Q 3706 1856 3706 1288 
Q 3706 609 3251 259 
Q 2797 -91 1919 -91 
Q 1588 -91 1214 -16 
Q 841 59 441 206 
L 441 856 
Q 825 641 1194 531 
Q 1563 422 1919 422 
Q 2459 422 2753 634 
Q 3047 847 3047 1241 
Q 3047 1584 2836 1778 
Q 2625 1972 2144 2069 
L 1759 2144 
Q 1053 2284 737 2584 
Q 422 2884 422 3419 
Q 422 4038 858 4394 
Q 1294 4750 2059 4750 
Q 2388 4750 2728 4690 
Q 3069 4631 3425 4513 
z
" transform="scale(0.015625)"/>
       <path id="DejaVuSans-63" d="M 3122 3366 
L 3122 2828 
Q 2878 2963 2633 3030 
Q 2388 3097 2138 3097 
Q 1578 3097 1268 2742 
Q 959 2388 959 1747 
Q 959 1106 1268 751 
Q 1578 397 2138 397 
Q 2388 397 2633 464 
Q 2878 531 3122 666 
L 3122 134 
Q 2881 22 2623 -34 
Q 2366 -91 2075 -91 
Q 1284 -91 818 406 
Q 353 903 353 1747 
Q 353 2603 823 3093 
Q 1294 3584 2113 3584 
Q 2378 3584 2631 3529 
Q 2884 3475 3122 3366 
z
" transform="scale(0.015625)"/>
       <path id="DejaVuSans-6f" d="M 1959 3097 
Q 1497 3097 1228 2736 
Q 959 2375 959 1747 
Q 959 1119 1226 758 
Q 1494 397 1959 397 
Q 2419 397 2687 759 
Q 2956 1122 2956 1747 
Q 2956 2369 2687 2733 
Q 2419 3097 1959 3097 
z
M 1959 3584 
Q 2709 3584 3137 3096 
Q 3566 2609 3566 1747 
Q 3566 888 3137 398 
Q 2709 -91 1959 -91 
Q 1206 -91 779 398 
Q 353 888 353 1747 
Q 353 2609 779 3096 
Q 1206 3584 1959 3584 
z
" transform="scale(0.015625)"/>
      </defs>
      <use xlink:href="#DejaVuSans-4d"/>
      <use xlink:href="#DejaVuSans-65" x="86.279297"/>
      <use xlink:href="#DejaVuSans-72" x="147.802734"/>
      <use xlink:href="#DejaVuSans-67" x="187.166016"/>
      <use xlink:href="#DejaVuSans-65" x="250.642578"/>
      <use xlink:href="#DejaVuSans-20" x="312.166016"/>
      <use xlink:href="#DejaVuSans-53" x="343.953125"/>
      <use xlink:href="#DejaVuSans-63" x="407.429688"/>
      <use xlink:href="#DejaVuSans-6f" x="462.410156"/>
      <use xlink:href="#DejaVuSans-72" x="523.591797"/>
      <use xlink:href="#DejaVuSans-65" x="562.455078"/>
     </g>
    </g>
   </g>
   <g id="line2d_16">
    <path d="M 73.832727 273.303197 
L 74.646398 250.414114 
L 75.460068 267.316821 
L 76.273739 294.783721 
L 77.087409 283.515249 
L 77.90108 279.993852 
L 78.714751 257.104769 
L 79.528421 272.246777 
L 80.342092 250.414114 
L 81.155762 283.867389 
L 81.969433 290.205904 
L 82.783103 264.147563 
L 83.596774 295.488 
L 84.410444 204.283808 
L 85.224115 289.853764 
L 86.037785 276.472454 
L 86.851456 193.015336 
L 87.665126 289.501624 
L 88.478797 282.10669 
L 89.292468 257.809048 
L 90.106138 289.149485 
L 90.919809 270.486079 
L 91.733479 257.104769 
L 92.54715 292.318742 
L 93.36082 293.375162 
L 94.174491 250.414114 
L 94.988161 291.966603 
L 95.801832 274.007476 
L 96.615502 271.542498 
L 97.429173 293.727301 
L 98.242843 235.272105 
L 99.056514 282.45883 
L 99.870185 292.318742 
L 100.683855 245.836297 
L 101.497526 271.190358 
L 102.311196 275.063895 
L 103.124867 266.260402 
L 103.938537 276.472454 
L 104.752208 217.665118 
L 105.565878 279.641712 
L 106.379549 287.740926 
L 107.193219 255.69621 
L 108.00689 283.163109 
L 108.82056 253.583371 
L 109.634231 241.96276 
L 110.447902 269.429659 
L 111.261572 264.147563 
L 112.075243 212.383022 
L 112.888913 279.993852 
L 113.702584 248.301275 
L 114.516254 270.486079 
L 115.329925 253.231231 
L 116.143595 293.727301 
L 116.957266 121.530969 
L 117.770936 252.174812 
L 118.584607 238.089223 
L 119.398278 266.260402 
L 120.211948 218.369397 
L 121.025619 227.172891 
L 121.839289 244.779878 
L 122.65296 204.635948 
L 123.46663 250.061974 
L 124.280301 175.408349 
L 125.093971 248.301275 
L 125.907642 282.45883 
L 126.721312 249.709834 
L 127.534983 250.414114 
L 128.348653 245.836297 
L 129.162324 251.118393 
L 129.975995 244.779878 
L 130.789665 267.316821 
L 131.603336 251.470533 
L 132.417006 295.488 
L 133.230677 252.174812 
L 134.044347 195.128175 
L 134.858018 255.34407 
L 135.671688 261.330445 
L 136.485359 256.400489 
L 137.299029 247.596996 
L 138.1127 203.227389 
L 138.92637 279.289572 
L 139.740041 281.75455 
L 140.553712 259.217607 
L 141.367382 169.421974 
L 142.181053 208.509485 
L 142.994723 237.032803 
L 143.808394 237.032803 
L 144.622064 249.005555 
L 145.435735 185.268262 
L 146.249405 251.470533 
L 147.063076 238.441362 
L 147.876746 108.501799 
L 148.690417 188.43752 
L 149.504087 212.383022 
L 150.317758 191.958917 
L 151.131429 249.357694 
L 151.945099 123.291668 
L 152.75877 243.723459 
L 153.57244 279.993852 
L 154.386111 257.104769 
L 155.199781 210.270183 
L 156.013452 245.836297 
L 156.827122 103.219703 
L 157.640793 133.85586 
L 158.454463 173.295511 
L 159.268134 218.721537 
L 160.081805 216.960838 
L 160.895475 250.414114 
L 161.709146 63.780052 
L 162.522816 244.075598 
L 163.336487 175.760489 
L 164.150157 193.367476 
L 164.963828 191.254638 
L 165.777498 199.353852 
L 166.591169 250.766253 
L 167.404839 194.071755 
L 168.21851 290.558044 
L 169.03218 199.353852 
L 170.659522 245.836297 
L 171.473192 192.663197 
L 172.286863 156.744943 
L 173.100533 281.050271 
L 173.914204 73.639965 
L 174.727874 209.213764 
L 175.541545 233.863546 
L 176.355215 207.100926 
L 177.168886 245.484157 
L 177.982556 196.536734 
L 178.796227 254.287651 
L 179.609897 195.832454 
L 180.423568 203.579528 
L 181.237239 236.680664 
L 182.050909 124.348087 
L 182.86458 152.871406 
L 183.67825 194.776035 
L 184.491921 258.161188 
L 185.305591 190.902498 
L 186.119262 189.141799 
L 186.932932 217.665118 
L 187.746603 99.698306 
L 189.373944 270.486079 
L 190.187614 187.028961 
L 191.001285 243.723459 
L 191.814956 143.363633 
L 192.628626 200.76241 
L 193.442297 181.042585 
L 194.255967 237.737083 
L 195.069638 201.11455 
L 195.883308 180.690445 
L 196.696979 200.058131 
L 197.510649 245.836297 
L 198.32432 247.596996 
L 199.13799 197.593153 
L 199.951661 174.35193 
L 200.765332 274.711755 
L 201.579002 237.384943 
L 202.392673 240.906341 
L 203.206343 195.832454 
L 204.020014 246.188437 
L 204.833684 264.499703 
L 205.647355 192.311057 
L 206.461025 191.958917 
L 207.274696 195.128175 
L 208.088366 256.752629 
L 208.902037 215.20014 
L 209.715707 207.100926 
L 210.529378 252.879092 
L 211.343049 224.003633 
L 212.156719 229.990009 
L 212.97039 195.480314 
L 213.78406 238.441362 
L 214.597731 242.667039 
L 215.411401 179.986166 
L 216.225072 228.22931 
L 217.038742 184.211843 
L 217.852413 187.3811 
L 218.666083 158.857782 
L 219.479754 251.470533 
L 220.293424 180.338306 
L 221.107095 227.87717 
L 221.920766 64.836472 
L 222.734436 189.493939 
L 223.548107 196.888873 
L 224.361777 104.628262 
L 225.175448 190.550358 
L 225.989118 98.289747 
L 226.802789 238.793502 
L 227.616459 251.470533 
L 228.43013 243.019179 
L 229.2438 214.848 
L 230.057471 205.340227 
L 230.871141 264.499703 
L 231.684812 215.552279 
L 232.498483 59.554376 
L 233.312153 182.099004 
L 234.125824 186.676821 
L 234.939494 243.723459 
L 235.753165 215.20014 
L 236.566835 180.690445 
L 237.380506 247.596996 
L 238.194176 220.482236 
L 239.007847 253.231231 
L 239.821517 226.820751 
L 240.635188 117.305293 
L 241.448859 71.174987 
L 242.262529 135.616559 
L 243.0762 63.075773 
L 243.88987 62.371493 
L 244.703541 102.163284 
L 245.517211 212.735162 
L 246.330882 190.902498 
L 247.144552 222.242934 
L 247.958223 115.896734 
L 248.771893 204.988087 
L 249.585564 53.568 
L 250.399234 229.285729 
L 251.212905 253.583371 
L 252.026576 188.08538 
L 252.840246 215.20014 
L 253.653917 104.980402 
L 254.467587 259.569747 
L 255.281258 255.34407 
L 256.094928 78.922061 
L 256.908599 75.048524 
L 257.722269 164.844157 
L 258.53594 206.396646 
L 259.34961 104.980402 
L 260.163281 189.493939 
L 260.976951 200.410271 
L 261.790622 191.958917 
L 262.604293 187.3811 
L 263.417963 181.042585 
L 264.231634 126.460926 
L 265.045304 98.641886 
L 265.858975 213.087301 
L 266.672645 195.480314 
L 267.486316 182.451144 
L 268.299986 197.593153 
L 269.113657 190.198218 
L 269.927327 265.556122 
L 270.740998 267.668961 
L 271.554668 183.155424 
L 272.368339 208.509485 
L 273.18201 192.663197 
L 273.99568 214.49586 
L 274.809351 193.015336 
L 275.623021 287.036646 
L 276.436692 244.427738 
L 277.250362 110.262498 
L 278.064033 101.106865 
L 278.877703 187.028961 
L 279.691374 77.161362 
L 280.505044 258.161188 
L 281.318715 252.174812 
L 282.132386 206.044507 
L 282.946056 249.709834 
L 283.759727 244.427738 
L 284.573397 246.540576 
L 285.387068 231.398568 
L 286.200738 109.910358 
L 287.014409 151.462847 
L 287.828079 181.746865 
L 288.64175 247.244856 
L 289.45542 207.453066 
L 290.269091 238.793502 
L 291.082761 97.585467 
L 291.896432 199.353852 
L 292.710103 87.021275 
L 293.523773 108.853939 
L 294.337444 104.628262 
L 295.151114 253.583371 
L 295.964785 252.879092 
L 296.778455 182.803284 
L 297.592126 171.182672 
L 298.405796 182.451144 
L 299.219467 178.929747 
L 300.033137 189.846079 
L 300.846808 196.888873 
L 301.660478 199.001712 
L 302.474149 242.3149 
L 303.28782 119.418131 
L 304.10149 178.929747 
L 304.915161 260.978306 
L 305.728831 191.958917 
L 306.542502 207.805205 
L 307.356172 187.3811 
L 308.169843 235.624245 
L 308.983513 172.591231 
L 309.797184 99.346166 
L 310.610854 60.610795 
L 311.424525 113.783895 
L 312.238195 220.130096 
L 313.051866 182.099004 
L 313.865537 175.05621 
L 314.679207 115.544594 
L 315.492878 141.602934 
L 316.306548 56.737258 
L 317.120219 181.746865 
L 317.933889 191.606777 
L 318.74756 182.803284 
L 319.56123 242.3149 
L 320.374901 262.386865 
L 321.188571 112.375336 
L 322.002242 179.634026 
L 322.815913 134.56014 
L 324.443254 243.019179 
L 325.256924 187.028961 
L 326.070595 141.250795 
L 326.884265 216.608699 
L 328.511606 154.632105 
L 329.325277 218.369397 
L 330.138947 190.550358 
L 330.952618 81.387039 
L 331.766288 211.678742 
L 332.579959 242.3149 
L 333.39363 193.367476 
L 334.2073 163.787738 
L 335.020971 171.886952 
L 335.834641 277.528873 
L 336.648312 224.355773 
L 337.461982 184.563983 
L 338.275653 190.902498 
L 339.089323 245.132017 
L 340.716664 120.82669 
L 341.530335 125.756646 
L 342.344005 110.262498 
L 343.157676 106.7411 
L 343.971347 247.596996 
L 344.785017 178.577607 
L 345.598688 248.653415 
L 346.412358 98.994026 
L 347.226029 258.513328 
L 348.039699 106.7411 
L 348.85337 164.844157 
L 349.66704 195.128175 
L 350.480711 241.96276 
L 351.294381 169.421974 
L 352.108052 175.05621 
L 352.921722 85.612716 
L 353.735393 233.159266 
L 354.549064 175.05621 
L 355.362734 254.287651 
L 356.176405 230.342148 
L 356.990075 191.958917 
L 357.803746 182.451144 
L 358.617416 187.73324 
L 359.431087 175.408349 
L 360.244757 177.521188 
L 361.058428 241.61062 
L 361.872098 205.340227 
L 362.685769 231.750707 
L 363.49944 198.297432 
L 364.31311 106.7411 
L 365.126781 158.153502 
L 365.940451 166.252716 
L 366.754122 151.110707 
L 367.567792 111.671057 
L 368.381463 193.015336 
L 369.195133 148.29359 
L 370.008804 191.958917 
L 370.822474 251.822672 
L 371.636145 123.995948 
L 372.449815 202.523109 
L 373.263486 243.723459 
L 374.077157 200.410271 
L 374.890827 207.805205 
L 375.704498 177.873328 
L 376.518168 165.196297 
L 377.331839 72.231406 
L 378.145509 225.412192 
L 378.95918 259.217607 
L 379.77285 159.209921 
L 380.586521 185.620402 
L 381.400191 251.470533 
L 382.213862 203.931668 
L 383.027532 250.414114 
L 383.841203 101.811144 
L 384.654874 170.478393 
L 385.468544 207.100926 
L 386.282215 140.194376 
L 387.095885 134.912279 
L 387.909556 216.256559 
L 388.723226 241.96276 
L 389.536897 193.015336 
L 390.350567 193.719616 
L 391.164238 272.598917 
L 391.977908 202.170969 
L 392.791579 240.554201 
L 393.605249 246.188437 
L 394.41892 229.637869 
L 395.232591 121.530969 
L 396.046261 248.653415 
L 396.859932 251.822672 
L 397.673602 238.793502 
L 398.487273 148.997869 
L 398.487273 148.997869 
" clip-path="url(#p40879e00fc)" style="fill: none; stroke: #1f77b4; stroke-width: 1.5; stroke-linecap: square"/>
   </g>
   <g id="patch_3">
    <path d="M 57.6 307.584 
L 57.6 41.472 
" style="fill: none; stroke: #000000; stroke-width: 0.8; stroke-linejoin: miter; stroke-linecap: square"/>
   </g>
   <g id="patch_4">
    <path d="M 414.72 307.584 
L 414.72 41.472 
" style="fill: none; stroke: #000000; stroke-width: 0.8; stroke-linejoin: miter; stroke-linecap: square"/>
   </g>
   <g id="patch_5">
    <path d="M 57.6 307.584 
L 414.72 307.584 
" style="fill: none; stroke: #000000; stroke-width: 0.8; stroke-linejoin: miter; stroke-linecap: square"/>
   </g>
   <g id="patch_6">
    <path d="M 57.6 41.472 
L 414.72 41.472 
" style="fill: none; stroke: #000000; stroke-width: 0.8; stroke-linejoin: miter; stroke-linecap: square"/>
   </g>
   <g id="text_17">
    <!-- Merge Score -->
    <g transform="translate(198.719063 35.472) scale(0.12 -0.12)">
     <use xlink:href="#DejaVuSans-4d"/>
     <use xlink:href="#DejaVuSans-65" x="86.279297"/>
     <use xlink:href="#DejaVuSans-72" x="147.802734"/>
     <use xlink:href="#DejaVuSans-67" x="187.166016"/>
     <use xlink:href="#DejaVuSans-65" x="250.642578"/>
     <use xlink:href="#DejaVuSans-20" x="312.166016"/>
     <use xlink:href="#DejaVuSans-53" x="343.953125"/>
     <use xlink:href="#DejaVuSans-63" x="407.429688"/>
     <use xlink:href="#DejaVuSans-6f" x="462.410156"/>
     <use xlink:href="#DejaVuSans-72" x="523.591797"/>
     <use xlink:href="#DejaVuSans-65" x="562.455078"/>
    </g>
   </g>
   <g id="legend_1">
    <g id="patch_7">
     <path d="M 64.6 64.150125 
L 159.001563 64.150125 
Q 161.001563 64.150125 161.001563 62.150125 
L 161.001563 48.472 
Q 161.001563 46.472 159.001563 46.472 
L 64.6 46.472 
Q 62.6 46.472 62.6 48.472 
L 62.6 62.150125 
Q 62.6 64.150125 64.6 64.150125 
z
" style="fill: #ffffff; opacity: 0.8; stroke: #cccccc; stroke-linejoin: miter"/>
    </g>
    <g id="line2d_17">
     <path d="M 66.6 54.570438 
L 76.6 54.570438 
L 86.6 54.570438 
" style="fill: none; stroke: #1f77b4; stroke-width: 1.5; stroke-linecap: square"/>
    </g>
    <g id="text_18">
     <!-- Merge Score -->
     <g transform="translate(94.6 58.070438) scale(0.1 -0.1)">
      <use xlink:href="#DejaVuSans-4d"/>
      <use xlink:href="#DejaVuSans-65" x="86.279297"/>
      <use xlink:href="#DejaVuSans-72" x="147.802734"/>
      <use xlink:href="#DejaVuSans-67" x="187.166016"/>
      <use xlink:href="#DejaVuSans-65" x="250.642578"/>
      <use xlink:href="#DejaVuSans-20" x="312.166016"/>
      <use xlink:href="#DejaVuSans-53" x="343.953125"/>
      <use xlink:href="#DejaVuSans-63" x="407.429688"/>
      <use xlink:href="#DejaVuSans-6f" x="462.410156"/>
      <use xlink:href="#DejaVuSans-72" x="523.591797"/>
      <use xlink:href="#DejaVuSans-65" x="562.455078"/>
     </g>
    </g>
   </g>
  </g>
 </g>
 <defs>
  <clipPath id="p40879e00fc">
   <rect x="57.6" y="41.472" width="357.12" height="266.112"/>
  </clipPath>
 </defs>
</svg>
