<?xml version="1.0" encoding="utf-8" standalone="no"?>
<!DOCTYPE svg PUBLIC "-//W3C//DTD SVG 1.1//EN"
  "http://www.w3.org/Graphics/SVG/1.1/DTD/svg11.dtd">
<svg xmlns:xlink="http://www.w3.org/1999/xlink" width="460.8pt" height="345.6pt" viewBox="0 0 460.8 345.6" xmlns="http://www.w3.org/2000/svg" version="1.1">
 <metadata>
  <rdf:RDF xmlns:dc="http://purl.org/dc/elements/1.1/" xmlns:cc="http://creativecommons.org/ns#" xmlns:rdf="http://www.w3.org/1999/02/22-rdf-syntax-ns#">
   <cc:Work>
    <dc:type rdf:resource="http://purl.org/dc/dcmitype/StillImage"/>
    <dc:date>2024-03-22T18:12:44.385385</dc:date>
    <dc:format>image/svg+xml</dc:format>
    <dc:creator>
     <cc:Agent>
      <dc:title>Matplotlib v3.8.0, https://matplotlib.org/</dc:title>
     </cc:Agent>
    </dc:creator>
   </cc:Work>
  </rdf:RDF>
 </metadata>
 <defs>
  <style type="text/css">*{stroke-linejoin: round; stroke-linecap: butt}</style>
 </defs>
 <g id="figure_1">
  <g id="patch_1">
   <path d="M 0 345.6 
L 460.8 345.6 
L 460.8 0 
L 0 0 
z
" style="fill: #ffffff"/>
  </g>
  <g id="axes_1">
   <g id="patch_2">
    <path d="M 57.6 307.584 
L 414.72 307.584 
L 414.72 41.472 
L 57.6 41.472 
z
" style="fill: #ffffff"/>
   </g>
   <g id="matplotlib.axis_1">
    <g id="xtick_1">
     <g id="line2d_1">
      <defs>
       <path id="m74b6d50476" d="M 0 0 
L 0 3.5 
" style="stroke: #000000; stroke-width: 0.8"/>
      </defs>
      <g>
       <use xlink:href="#m74b6d50476" x="73.832727" y="307.584" style="stroke: #000000; stroke-width: 0.8"/>
      </g>
     </g>
     <g id="text_1">
      <!-- 0 -->
      <g transform="translate(70.651477 322.182437) scale(0.1 -0.1)">
       <defs>
        <path id="DejaVuSans-30" d="M 2034 4250 
Q 1547 4250 1301 3770 
Q 1056 3291 1056 2328 
Q 1056 1369 1301 889 
Q 1547 409 2034 409 
Q 2525 409 2770 889 
Q 3016 1369 3016 2328 
Q 3016 3291 2770 3770 
Q 2525 4250 2034 4250 
z
M 2034 4750 
Q 2819 4750 3233 4129 
Q 3647 3509 3647 2328 
Q 3647 1150 3233 529 
Q 2819 -91 2034 -91 
Q 1250 -91 836 529 
Q 422 1150 422 2328 
Q 422 3509 836 4129 
Q 1250 4750 2034 4750 
z
" transform="scale(0.015625)"/>
       </defs>
       <use xlink:href="#DejaVuSans-30"/>
      </g>
     </g>
    </g>
    <g id="xtick_2">
     <g id="line2d_2">
      <g>
       <use xlink:href="#m74b6d50476" x="128.032151" y="307.584" style="stroke: #000000; stroke-width: 0.8"/>
      </g>
     </g>
     <g id="text_2">
      <!-- 100 -->
      <g transform="translate(118.488401 322.182437) scale(0.1 -0.1)">
       <defs>
        <path id="DejaVuSans-31" d="M 794 531 
L 1825 531 
L 1825 4091 
L 703 3866 
L 703 4441 
L 1819 4666 
L 2450 4666 
L 2450 531 
L 3481 531 
L 3481 0 
L 794 0 
L 794 531 
z
" transform="scale(0.015625)"/>
       </defs>
       <use xlink:href="#DejaVuSans-31"/>
       <use xlink:href="#DejaVuSans-30" x="63.623047"/>
       <use xlink:href="#DejaVuSans-30" x="127.246094"/>
      </g>
     </g>
    </g>
    <g id="xtick_3">
     <g id="line2d_3">
      <g>
       <use xlink:href="#m74b6d50476" x="182.231574" y="307.584" style="stroke: #000000; stroke-width: 0.8"/>
      </g>
     </g>
     <g id="text_3">
      <!-- 200 -->
      <g transform="translate(172.687824 322.182437) scale(0.1 -0.1)">
       <defs>
        <path id="DejaVuSans-32" d="M 1228 531 
L 3431 531 
L 3431 0 
L 469 0 
L 469 531 
Q 828 903 1448 1529 
Q 2069 2156 2228 2338 
Q 2531 2678 2651 2914 
Q 2772 3150 2772 3378 
Q 2772 3750 2511 3984 
Q 2250 4219 1831 4219 
Q 1534 4219 1204 4116 
Q 875 4013 500 3803 
L 500 4441 
Q 881 4594 1212 4672 
Q 1544 4750 1819 4750 
Q 2544 4750 2975 4387 
Q 3406 4025 3406 3419 
Q 3406 3131 3298 2873 
Q 3191 2616 2906 2266 
Q 2828 2175 2409 1742 
Q 1991 1309 1228 531 
z
" transform="scale(0.015625)"/>
       </defs>
       <use xlink:href="#DejaVuSans-32"/>
       <use xlink:href="#DejaVuSans-30" x="63.623047"/>
       <use xlink:href="#DejaVuSans-30" x="127.246094"/>
      </g>
     </g>
    </g>
    <g id="xtick_4">
     <g id="line2d_4">
      <g>
       <use xlink:href="#m74b6d50476" x="236.430997" y="307.584" style="stroke: #000000; stroke-width: 0.8"/>
      </g>
     </g>
     <g id="text_4">
      <!-- 300 -->
      <g transform="translate(226.887247 322.182437) scale(0.1 -0.1)">
       <defs>
        <path id="DejaVuSans-33" d="M 2597 2516 
Q 3050 2419 3304 2112 
Q 3559 1806 3559 1356 
Q 3559 666 3084 287 
Q 2609 -91 1734 -91 
Q 1441 -91 1130 -33 
Q 819 25 488 141 
L 488 750 
Q 750 597 1062 519 
Q 1375 441 1716 441 
Q 2309 441 2620 675 
Q 2931 909 2931 1356 
Q 2931 1769 2642 2001 
Q 2353 2234 1838 2234 
L 1294 2234 
L 1294 2753 
L 1863 2753 
Q 2328 2753 2575 2939 
Q 2822 3125 2822 3475 
Q 2822 3834 2567 4026 
Q 2313 4219 1838 4219 
Q 1578 4219 1281 4162 
Q 984 4106 628 3988 
L 628 4550 
Q 988 4650 1302 4700 
Q 1616 4750 1894 4750 
Q 2613 4750 3031 4423 
Q 3450 4097 3450 3541 
Q 3450 3153 3228 2886 
Q 3006 2619 2597 2516 
z
" transform="scale(0.015625)"/>
       </defs>
       <use xlink:href="#DejaVuSans-33"/>
       <use xlink:href="#DejaVuSans-30" x="63.623047"/>
       <use xlink:href="#DejaVuSans-30" x="127.246094"/>
      </g>
     </g>
    </g>
    <g id="xtick_5">
     <g id="line2d_5">
      <g>
       <use xlink:href="#m74b6d50476" x="290.63042" y="307.584" style="stroke: #000000; stroke-width: 0.8"/>
      </g>
     </g>
     <g id="text_5">
      <!-- 400 -->
      <g transform="translate(281.08667 322.182437) scale(0.1 -0.1)">
       <defs>
        <path id="DejaVuSans-34" d="M 2419 4116 
L 825 1625 
L 2419 1625 
L 2419 4116 
z
M 2253 4666 
L 3047 4666 
L 3047 1625 
L 3713 1625 
L 3713 1100 
L 3047 1100 
L 3047 0 
L 2419 0 
L 2419 1100 
L 313 1100 
L 313 1709 
L 2253 4666 
z
" transform="scale(0.015625)"/>
       </defs>
       <use xlink:href="#DejaVuSans-34"/>
       <use xlink:href="#DejaVuSans-30" x="63.623047"/>
       <use xlink:href="#DejaVuSans-30" x="127.246094"/>
      </g>
     </g>
    </g>
    <g id="xtick_6">
     <g id="line2d_6">
      <g>
       <use xlink:href="#m74b6d50476" x="344.829844" y="307.584" style="stroke: #000000; stroke-width: 0.8"/>
      </g>
     </g>
     <g id="text_6">
      <!-- 500 -->
      <g transform="translate(335.286094 322.182437) scale(0.1 -0.1)">
       <defs>
        <path id="DejaVuSans-35" d="M 691 4666 
L 3169 4666 
L 3169 4134 
L 1269 4134 
L 1269 2991 
Q 1406 3038 1543 3061 
Q 1681 3084 1819 3084 
Q 2600 3084 3056 2656 
Q 3513 2228 3513 1497 
Q 3513 744 3044 326 
Q 2575 -91 1722 -91 
Q 1428 -91 1123 -41 
Q 819 9 494 109 
L 494 744 
Q 775 591 1075 516 
Q 1375 441 1709 441 
Q 2250 441 2565 725 
Q 2881 1009 2881 1497 
Q 2881 1984 2565 2268 
Q 2250 2553 1709 2553 
Q 1456 2553 1204 2497 
Q 953 2441 691 2322 
L 691 4666 
z
" transform="scale(0.015625)"/>
       </defs>
       <use xlink:href="#DejaVuSans-35"/>
       <use xlink:href="#DejaVuSans-30" x="63.623047"/>
       <use xlink:href="#DejaVuSans-30" x="127.246094"/>
      </g>
     </g>
    </g>
    <g id="xtick_7">
     <g id="line2d_7">
      <g>
       <use xlink:href="#m74b6d50476" x="399.029267" y="307.584" style="stroke: #000000; stroke-width: 0.8"/>
      </g>
     </g>
     <g id="text_7">
      <!-- 600 -->
      <g transform="translate(389.485517 322.182437) scale(0.1 -0.1)">
       <defs>
        <path id="DejaVuSans-36" d="M 2113 2584 
Q 1688 2584 1439 2293 
Q 1191 2003 1191 1497 
Q 1191 994 1439 701 
Q 1688 409 2113 409 
Q 2538 409 2786 701 
Q 3034 994 3034 1497 
Q 3034 2003 2786 2293 
Q 2538 2584 2113 2584 
z
M 3366 4563 
L 3366 3988 
Q 3128 4100 2886 4159 
Q 2644 4219 2406 4219 
Q 1781 4219 1451 3797 
Q 1122 3375 1075 2522 
Q 1259 2794 1537 2939 
Q 1816 3084 2150 3084 
Q 2853 3084 3261 2657 
Q 3669 2231 3669 1497 
Q 3669 778 3244 343 
Q 2819 -91 2113 -91 
Q 1303 -91 875 529 
Q 447 1150 447 2328 
Q 447 3434 972 4092 
Q 1497 4750 2381 4750 
Q 2619 4750 2861 4703 
Q 3103 4656 3366 4563 
z
" transform="scale(0.015625)"/>
       </defs>
       <use xlink:href="#DejaVuSans-36"/>
       <use xlink:href="#DejaVuSans-30" x="63.623047"/>
       <use xlink:href="#DejaVuSans-30" x="127.246094"/>
      </g>
     </g>
    </g>
   </g>
   <g id="matplotlib.axis_2">
    <g id="ytick_1">
     <g id="line2d_8">
      <defs>
       <path id="m237e938ddf" d="M 0 0 
L -3.5 0 
" style="stroke: #000000; stroke-width: 0.8"/>
      </defs>
      <g>
       <use xlink:href="#m237e938ddf" x="57.6" y="305.623779" style="stroke: #000000; stroke-width: 0.8"/>
      </g>
     </g>
     <g id="text_8">
      <!-- 0 -->
      <g transform="translate(44.2375 309.422997) scale(0.1 -0.1)">
       <use xlink:href="#DejaVuSans-30"/>
      </g>
     </g>
    </g>
    <g id="ytick_2">
     <g id="line2d_9">
      <g>
       <use xlink:href="#m237e938ddf" x="57.6" y="257.813502" style="stroke: #000000; stroke-width: 0.8"/>
      </g>
     </g>
     <g id="text_9">
      <!-- 1000 -->
      <g transform="translate(25.15 261.612721) scale(0.1 -0.1)">
       <use xlink:href="#DejaVuSans-31"/>
       <use xlink:href="#DejaVuSans-30" x="63.623047"/>
       <use xlink:href="#DejaVuSans-30" x="127.246094"/>
       <use xlink:href="#DejaVuSans-30" x="190.869141"/>
      </g>
     </g>
    </g>
    <g id="ytick_3">
     <g id="line2d_10">
      <g>
       <use xlink:href="#m237e938ddf" x="57.6" y="210.003225" style="stroke: #000000; stroke-width: 0.8"/>
      </g>
     </g>
     <g id="text_10">
      <!-- 2000 -->
      <g transform="translate(25.15 213.802444) scale(0.1 -0.1)">
       <use xlink:href="#DejaVuSans-32"/>
       <use xlink:href="#DejaVuSans-30" x="63.623047"/>
       <use xlink:href="#DejaVuSans-30" x="127.246094"/>
       <use xlink:href="#DejaVuSans-30" x="190.869141"/>
      </g>
     </g>
    </g>
    <g id="ytick_4">
     <g id="line2d_11">
      <g>
       <use xlink:href="#m237e938ddf" x="57.6" y="162.192949" style="stroke: #000000; stroke-width: 0.8"/>
      </g>
     </g>
     <g id="text_11">
      <!-- 3000 -->
      <g transform="translate(25.15 165.992167) scale(0.1 -0.1)">
       <use xlink:href="#DejaVuSans-33"/>
       <use xlink:href="#DejaVuSans-30" x="63.623047"/>
       <use xlink:href="#DejaVuSans-30" x="127.246094"/>
       <use xlink:href="#DejaVuSans-30" x="190.869141"/>
      </g>
     </g>
    </g>
    <g id="ytick_5">
     <g id="line2d_12">
      <g>
       <use xlink:href="#m237e938ddf" x="57.6" y="114.382672" style="stroke: #000000; stroke-width: 0.8"/>
      </g>
     </g>
     <g id="text_12">
      <!-- 4000 -->
      <g transform="translate(25.15 118.181891) scale(0.1 -0.1)">
       <use xlink:href="#DejaVuSans-34"/>
       <use xlink:href="#DejaVuSans-30" x="63.623047"/>
       <use xlink:href="#DejaVuSans-30" x="127.246094"/>
       <use xlink:href="#DejaVuSans-30" x="190.869141"/>
      </g>
     </g>
    </g>
    <g id="ytick_6">
     <g id="line2d_13">
      <g>
       <use xlink:href="#m237e938ddf" x="57.6" y="66.572395" style="stroke: #000000; stroke-width: 0.8"/>
      </g>
     </g>
     <g id="text_13">
      <!-- 5000 -->
      <g transform="translate(25.15 70.371614) scale(0.1 -0.1)">
       <use xlink:href="#DejaVuSans-35"/>
       <use xlink:href="#DejaVuSans-30" x="63.623047"/>
       <use xlink:href="#DejaVuSans-30" x="127.246094"/>
       <use xlink:href="#DejaVuSans-30" x="190.869141"/>
      </g>
     </g>
    </g>
    <g id="text_14">
     <!-- Merge Score -->
     <g transform="translate(19.070312 205.728781) rotate(-90) scale(0.1 -0.1)">
      <defs>
       <path id="DejaVuSans-4d" d="M 628 4666 
L 1569 4666 
L 2759 1491 
L 3956 4666 
L 4897 4666 
L 4897 0 
L 4281 0 
L 4281 4097 
L 3078 897 
L 2444 897 
L 1241 4097 
L 1241 0 
L 628 0 
L 628 4666 
z
" transform="scale(0.015625)"/>
       <path id="DejaVuSans-65" d="M 3597 1894 
L 3597 1613 
L 953 1613 
Q 991 1019 1311 708 
Q 1631 397 2203 397 
Q 2534 397 2845 478 
Q 3156 559 3463 722 
L 3463 178 
Q 3153 47 2828 -22 
Q 2503 -91 2169 -91 
Q 1331 -91 842 396 
Q 353 884 353 1716 
Q 353 2575 817 3079 
Q 1281 3584 2069 3584 
Q 2775 3584 3186 3129 
Q 3597 2675 3597 1894 
z
M 3022 2063 
Q 3016 2534 2758 2815 
Q 2500 3097 2075 3097 
Q 1594 3097 1305 2825 
Q 1016 2553 972 2059 
L 3022 2063 
z
" transform="scale(0.015625)"/>
       <path id="DejaVuSans-72" d="M 2631 2963 
Q 2534 3019 2420 3045 
Q 2306 3072 2169 3072 
Q 1681 3072 1420 2755 
Q 1159 2438 1159 1844 
L 1159 0 
L 581 0 
L 581 3500 
L 1159 3500 
L 1159 2956 
Q 1341 3275 1631 3429 
Q 1922 3584 2338 3584 
Q 2397 3584 2469 3576 
Q 2541 3569 2628 3553 
L 2631 2963 
z
" transform="scale(0.015625)"/>
       <path id="DejaVuSans-67" d="M 2906 1791 
Q 2906 2416 2648 2759 
Q 2391 3103 1925 3103 
Q 1463 3103 1205 2759 
Q 947 2416 947 1791 
Q 947 1169 1205 825 
Q 1463 481 1925 481 
Q 2391 481 2648 825 
Q 2906 1169 2906 1791 
z
M 3481 434 
Q 3481 -459 3084 -895 
Q 2688 -1331 1869 -1331 
Q 1566 -1331 1297 -1286 
Q 1028 -1241 775 -1147 
L 775 -588 
Q 1028 -725 1275 -790 
Q 1522 -856 1778 -856 
Q 2344 -856 2625 -561 
Q 2906 -266 2906 331 
L 2906 616 
Q 2728 306 2450 153 
Q 2172 0 1784 0 
Q 1141 0 747 490 
Q 353 981 353 1791 
Q 353 2603 747 3093 
Q 1141 3584 1784 3584 
Q 2172 3584 2450 3431 
Q 2728 3278 2906 2969 
L 2906 3500 
L 3481 3500 
L 3481 434 
z
" transform="scale(0.015625)"/>
       <path id="DejaVuSans-20" transform="scale(0.015625)"/>
       <path id="DejaVuSans-53" d="M 3425 4513 
L 3425 3897 
Q 3066 4069 2747 4153 
Q 2428 4238 2131 4238 
Q 1616 4238 1336 4038 
Q 1056 3838 1056 3469 
Q 1056 3159 1242 3001 
Q 1428 2844 1947 2747 
L 2328 2669 
Q 3034 2534 3370 2195 
Q 3706 1856 3706 1288 
Q 3706 609 3251 259 
Q 2797 -91 1919 -91 
Q 1588 -91 1214 -16 
Q 841 59 441 206 
L 441 856 
Q 825 641 1194 531 
Q 1563 422 1919 422 
Q 2459 422 2753 634 
Q 3047 847 3047 1241 
Q 3047 1584 2836 1778 
Q 2625 1972 2144 2069 
L 1759 2144 
Q 1053 2284 737 2584 
Q 422 2884 422 3419 
Q 422 4038 858 4394 
Q 1294 4750 2059 4750 
Q 2388 4750 2728 4690 
Q 3069 4631 3425 4513 
z
" transform="scale(0.015625)"/>
       <path id="DejaVuSans-63" d="M 3122 3366 
L 3122 2828 
Q 2878 2963 2633 3030 
Q 2388 3097 2138 3097 
Q 1578 3097 1268 2742 
Q 959 2388 959 1747 
Q 959 1106 1268 751 
Q 1578 397 2138 397 
Q 2388 397 2633 464 
Q 2878 531 3122 666 
L 3122 134 
Q 2881 22 2623 -34 
Q 2366 -91 2075 -91 
Q 1284 -91 818 406 
Q 353 903 353 1747 
Q 353 2603 823 3093 
Q 1294 3584 2113 3584 
Q 2378 3584 2631 3529 
Q 2884 3475 3122 3366 
z
" transform="scale(0.015625)"/>
       <path id="DejaVuSans-6f" d="M 1959 3097 
Q 1497 3097 1228 2736 
Q 959 2375 959 1747 
Q 959 1119 1226 758 
Q 1494 397 1959 397 
Q 2419 397 2687 759 
Q 2956 1122 2956 1747 
Q 2956 2369 2687 2733 
Q 2419 3097 1959 3097 
z
M 1959 3584 
Q 2709 3584 3137 3096 
Q 3566 2609 3566 1747 
Q 3566 888 3137 398 
Q 2709 -91 1959 -91 
Q 1206 -91 779 398 
Q 353 888 353 1747 
Q 353 2609 779 3096 
Q 1206 3584 1959 3584 
z
" transform="scale(0.015625)"/>
      </defs>
      <use xlink:href="#DejaVuSans-4d"/>
      <use xlink:href="#DejaVuSans-65" x="86.279297"/>
      <use xlink:href="#DejaVuSans-72" x="147.802734"/>
      <use xlink:href="#DejaVuSans-67" x="187.166016"/>
      <use xlink:href="#DejaVuSans-65" x="250.642578"/>
      <use xlink:href="#DejaVuSans-20" x="312.166016"/>
      <use xlink:href="#DejaVuSans-53" x="343.953125"/>
      <use xlink:href="#DejaVuSans-63" x="407.429688"/>
      <use xlink:href="#DejaVuSans-6f" x="462.410156"/>
      <use xlink:href="#DejaVuSans-72" x="523.591797"/>
      <use xlink:href="#DejaVuSans-65" x="562.455078"/>
     </g>
    </g>
   </g>
   <g id="line2d_14">
    <path d="M 73.832727 260.490877 
L 74.374722 276.172648 
L 74.916716 275.407684 
L 75.45871 247.868964 
L 76.000704 261.064601 
L 76.542698 293.193107 
L 77.084693 271.200379 
L 77.626687 260.108395 
L 78.168681 218.417834 
L 78.710675 243.470419 
L 79.25267 257.048538 
L 79.794664 244.617866 
L 80.336658 290.515731 
L 80.878652 292.810625 
L 81.420647 291.663178 
L 81.962641 291.854419 
L 82.504635 244.235383 
L 83.046629 293.76683 
L 83.588623 271.774103 
L 84.130618 287.264632 
L 84.672612 196.807589 
L 85.214606 292.428142 
L 85.7566 275.025202 
L 86.298595 265.271905 
L 86.840589 282.483605 
L 87.382583 288.985802 
L 87.924577 263.741976 
L 88.466572 281.144917 
L 89.008566 255.136126 
L 89.55056 206.178403 
L 90.092554 251.311304 
L 90.634548 268.523004 
L 91.176543 214.975494 
L 92.260531 280.379953 
L 92.802525 280.953676 
L 93.34452 283.248569 
L 93.886514 277.893818 
L 94.428508 245.38283 
L 94.970502 256.474814 
L 95.512497 257.813502 
L 96.054491 276.363889 
L 96.596485 279.614988 
L 97.138479 265.845628 
L 97.680474 249.016411 
L 98.222468 269.861692 
L 98.764462 250.928822 
L 99.306456 205.030957 
L 99.84845 269.479209 
L 100.390445 234.099605 
L 100.932439 281.336158 
L 101.474433 288.985802 
L 102.016427 281.144917 
L 102.558422 289.942008 
L 103.100416 268.714245 
L 103.64241 267.75804 
L 104.184404 275.216443 
L 104.726399 255.70985 
L 105.268393 287.073391 
L 105.810387 278.658783 
L 106.352381 248.82517 
L 106.894375 273.304032 
L 107.43637 240.028079 
L 107.978364 253.797439 
L 108.520358 242.514213 
L 109.062352 251.502545 
L 109.604347 273.112791 
L 110.146341 265.080664 
L 110.688335 282.101123 
L 111.230329 270.626656 
L 111.772324 268.140522 
L 112.314318 249.016411 
L 112.856312 255.901091 
L 113.398306 253.98868 
L 113.940301 229.8923 
L 114.482295 251.120063 
L 115.024289 254.944885 
L 115.566283 264.124458 
L 116.108277 256.666055 
L 116.650272 210.76819 
L 117.73426 261.638324 
L 118.276254 249.398893 
L 118.818249 278.085059 
L 119.360243 252.841233 
L 119.902237 257.239779 
L 120.444231 252.26751 
L 120.986226 251.502545 
L 121.52822 246.912759 
L 122.070214 231.995953 
L 122.612208 244.426625 
L 123.154202 247.104 
L 123.696197 280.571194 
L 124.238191 247.868964 
L 124.780185 256.857296 
L 125.322179 243.470419 
L 125.864174 262.59453 
L 126.406168 245.191589 
L 126.948162 192.026561 
L 127.490156 189.540427 
L 128.032151 253.032474 
L 128.574145 218.991557 
L 129.116139 259.725913 
L 129.658133 257.813502 
L 130.200127 236.012016 
L 130.742122 261.064601 
L 131.284116 197.190071 
L 131.82611 248.251447 
L 132.368104 247.295241 
L 132.910099 191.261597 
L 133.452093 253.797439 
L 133.994087 257.813502 
L 134.536081 280.571194 
L 135.078076 249.590134 
L 135.62007 274.451478 
L 136.162064 231.039747 
L 136.704058 239.071874 
L 137.246053 215.9317 
L 137.788047 277.893818 
L 138.330041 262.020806 
L 138.872035 230.083542 
L 139.414029 234.482087 
L 139.956024 254.371162 
L 140.498018 205.413439 
L 141.040012 171.755004 
L 141.582006 209.811984 
L 142.124001 271.965344 
L 142.665995 245.38283 
L 143.207989 243.852901 
L 143.749983 267.184316 
L 144.291978 281.909881 
L 144.833972 269.096727 
L 145.375966 218.609075 
L 145.91796 235.247051 
L 146.459954 258.195984 
L 147.001949 196.99883 
L 147.543943 272.921549 
L 148.085937 231.230988 
L 148.627931 288.985802 
L 149.169926 279.614988 
L 149.71192 201.779858 
L 150.253914 243.279178 
L 150.795908 255.518609 
L 151.337903 199.867447 
L 151.879897 246.912759 
L 152.421891 258.578466 
L 152.963885 293.384348 
L 153.505879 242.705455 
L 154.047874 232.569676 
L 154.589868 247.295241 
L 155.131862 286.117186 
L 155.673856 204.839715 
L 156.215851 252.841233 
L 156.757845 282.101123 
L 157.299839 256.666055 
L 157.841833 270.817897 
L 158.383828 241.175526 
L 158.925822 261.638324 
L 159.467816 244.235383 
L 160.00981 148.997312 
L 160.551805 217.65287 
L 161.093799 249.972617 
L 161.635793 243.087937 
L 162.177787 184.568158 
L 162.719781 244.809107 
L 163.261776 282.101123 
L 163.80377 165.635289 
L 165.429753 283.057328 
L 165.971747 271.965344 
L 166.513741 219.37404 
L 167.055735 70.970941 
L 167.59773 177.492237 
L 168.139724 216.505423 
L 169.223712 273.112791 
L 169.765706 275.598925 
L 170.307701 244.809107 
L 170.849695 247.677723 
L 171.391689 236.394498 
L 171.933683 234.482087 
L 172.475678 279.041265 
L 173.017672 199.867447 
L 173.559666 232.760917 
L 174.10166 170.607557 
L 174.643655 243.087937 
L 175.185649 282.866087 
L 175.727643 230.466024 
L 176.269637 200.058688 
L 176.811632 231.61347 
L 177.353626 254.753644 
L 177.89562 258.387225 
L 178.437614 283.631051 
L 178.979608 274.068996 
L 179.521603 280.953676 
L 180.063597 247.295241 
L 180.605591 172.137486 
L 181.147585 244.617866 
L 181.68958 186.67181 
L 182.231574 248.251447 
L 182.773568 183.611953 
L 183.315562 273.686514 
L 183.857557 242.896696 
L 184.399551 182.846988 
L 184.941545 207.134609 
L 185.483539 245.765312 
L 186.025533 183.22947 
L 186.567528 279.614988 
L 187.109522 202.927304 
L 187.651516 201.397375 
L 188.19351 284.587257 
L 188.735505 197.381312 
L 189.277499 261.255842 
L 189.819493 274.260237 
L 190.361487 245.38283 
L 190.903482 294.149312 
L 191.445476 193.174008 
L 191.98747 286.690909 
L 192.529464 201.779858 
L 193.071458 244.235383 
L 193.613453 245.574071 
L 194.697441 203.692269 
L 195.239435 283.057328 
L 195.78143 200.632411 
L 196.323424 247.868964 
L 196.865418 225.876237 
L 197.407412 87.608917 
L 197.949407 265.845628 
L 198.491401 226.44996 
L 199.033395 211.150672 
L 199.575389 276.937613 
L 200.117384 279.99747 
L 200.659378 244.809107 
L 201.201372 277.511336 
L 201.743366 242.896696 
L 202.28536 257.622261 
L 202.827355 230.848506 
L 203.369349 169.651352 
L 203.911343 286.117186 
L 204.453337 251.311304 
L 204.995332 159.706814 
L 205.537326 174.814862 
L 206.07932 200.058688 
L 206.621314 243.087937 
L 207.163309 270.626656 
L 207.705303 250.54634 
L 208.789291 189.349186 
L 209.331285 211.533154 
L 209.87328 213.636806 
L 210.415274 238.689391 
L 210.957268 242.322972 
L 211.499262 230.466024 
L 212.041257 281.527399 
L 212.583251 242.131731 
L 213.125245 169.077628 
L 213.667239 248.442688 
L 214.209234 255.136126 
L 214.751228 278.2763 
L 215.293222 269.287968 
L 215.835216 179.213407 
L 216.377211 244.235383 
L 216.919205 177.492237 
L 217.461199 231.61347 
L 218.003193 205.795921 
L 218.545187 277.128854 
L 219.087182 254.179921 
L 219.629176 188.775462 
L 220.17117 285.543462 
L 220.713164 180.360854 
L 221.255159 285.734704 
L 221.797153 262.785771 
L 222.339147 245.956553 
L 222.881141 170.99004 
L 223.96513 234.864569 
L 224.507124 230.848506 
L 225.049118 211.150672 
L 225.591112 246.339036 
L 226.133107 265.080664 
L 226.675101 190.11415 
L 227.217095 169.26887 
L 227.759089 181.890783 
L 228.301084 247.104 
L 228.843078 273.877755 
L 229.385072 228.553613 
L 229.927066 276.746372 
L 230.469061 208.282055 
L 231.011055 181.317059 
L 231.553049 279.232506 
L 232.095043 246.912759 
L 232.637037 240.601802 
L 233.179032 249.590134 
L 233.721026 248.633929 
L 234.26302 236.394498 
L 234.805014 219.565281 
L 235.347009 198.337518 
L 235.889003 249.781375 
L 236.430997 276.172648 
L 236.972991 191.261597 
L 237.514986 273.877755 
L 238.05698 184.185676 
L 238.598974 190.496632 
L 239.140968 251.885028 
L 239.682963 245.191589 
L 240.224957 246.530277 
L 240.766951 249.207652 
L 241.308945 94.111115 
L 241.850939 202.353581 
L 242.392934 229.509818 
L 242.934928 276.746372 
L 243.476922 266.610593 
L 244.018916 277.511336 
L 244.560911 236.012016 
L 245.102905 250.54634 
L 245.644899 249.398893 
L 246.186893 172.519968 
L 246.728888 243.66166 
L 247.270882 174.814862 
L 247.812876 252.841233 
L 248.35487 236.012016 
L 248.896864 245.765312 
L 249.438859 239.454356 
L 249.980853 278.085059 
L 250.522847 199.676206 
L 251.606836 167.738941 
L 252.14883 204.839715 
L 252.690824 230.848506 
L 253.232818 174.814862 
L 253.774813 292.428142 
L 254.316807 249.972617 
L 254.858801 248.060206 
L 255.400795 269.096727 
L 255.942789 238.880632 
L 256.484784 261.638324 
L 257.026778 238.115668 
L 257.568772 236.394498 
L 258.110766 247.295241 
L 258.652761 205.795921 
L 259.194755 239.071874 
L 259.736749 257.622261 
L 260.278743 254.371162 
L 260.820738 245.38283 
L 261.362732 170.607557 
L 261.904726 240.21932 
L 262.44672 283.631051 
L 262.988715 248.82517 
L 263.530709 183.420711 
L 264.072703 265.080664 
L 264.614697 162.001708 
L 265.156691 278.658783 
L 265.698686 208.090814 
L 266.24068 176.727273 
L 266.782674 254.753644 
L 267.324668 258.387225 
L 267.866663 246.339036 
L 268.408657 176.727273 
L 268.950651 188.39298 
L 269.492645 240.793043 
L 270.03464 240.984285 
L 271.118628 255.518609 
L 271.660622 255.70985 
L 272.202616 243.279178 
L 272.744611 261.829565 
L 273.286605 215.549217 
L 273.828599 240.984285 
L 274.370593 240.410561 
L 274.912588 230.466024 
L 275.454582 248.251447 
L 275.996576 180.934577 
L 276.53857 204.265992 
L 277.080565 53.568 
L 277.622559 214.21053 
L 278.164553 257.622261 
L 278.706547 250.54634 
L 279.248542 237.350704 
L 279.790536 279.232506 
L 280.33253 256.474814 
L 280.874524 246.912759 
L 281.416518 252.649992 
L 281.958513 184.568158 
L 282.500507 247.677723 
L 283.042501 204.648474 
L 283.584495 201.397375 
L 284.12649 263.359494 
L 284.668484 249.016411 
L 285.210478 246.912759 
L 285.752472 163.340395 
L 286.294467 152.248411 
L 286.836461 193.174008 
L 287.378455 272.539067 
L 288.462443 213.445565 
L 289.004438 278.658783 
L 289.546432 245.765312 
L 290.088426 174.814862 
L 290.63042 246.530277 
L 291.172415 236.012016 
L 291.714409 256.857296 
L 292.256403 214.975494 
L 292.798397 289.368285 
L 293.340392 207.134609 
L 293.882386 246.912759 
L 294.42438 233.525881 
L 294.966374 162.575431 
L 295.508368 249.590134 
L 296.050363 239.645597 
L 296.592357 223.963826 
L 297.676345 276.937613 
L 298.21834 243.279178 
L 298.760334 261.447083 
L 299.302328 245.956553 
L 299.844322 203.309787 
L 300.386317 248.82517 
L 300.928311 239.454356 
L 301.470305 242.705455 
L 302.012299 190.11415 
L 302.554294 266.610593 
L 303.096288 244.617866 
L 303.638282 245.765312 
L 304.180276 174.241138 
L 304.72227 265.080664 
L 305.264265 201.206134 
L 305.806259 270.626656 
L 306.348253 159.515573 
L 306.890247 164.10536 
L 307.432242 245.000348 
L 307.974236 232.760917 
L 308.51623 281.144917 
L 309.058224 197.190071 
L 309.600219 243.279178 
L 310.684207 262.403289 
L 311.768195 211.724395 
L 312.852184 251.885028 
L 313.394178 236.203257 
L 313.936172 276.937613 
L 314.478167 204.457233 
L 315.020161 231.995953 
L 315.562155 232.569676 
L 316.104149 232.760917 
L 316.646144 295.488 
L 317.730132 183.038229 
L 318.272126 172.137486 
L 318.814121 197.955036 
L 319.356115 199.293723 
L 319.898109 282.101123 
L 320.440103 230.466024 
L 320.982097 193.174008 
L 321.524092 197.955036 
L 322.066086 179.595889 
L 322.60808 246.721518 
L 323.150074 240.410561 
L 323.692069 99.465866 
L 324.234063 237.350704 
L 324.776057 236.012016 
L 325.318051 209.620743 
L 325.860046 234.864569 
L 326.40204 219.947763 
L 326.944034 245.574071 
L 327.486028 246.147794 
L 328.028022 237.350704 
L 328.570017 251.502545 
L 329.112011 278.467542 
L 329.654005 247.295241 
L 330.195999 150.527241 
L 330.737994 246.147794 
L 331.279988 256.666055 
L 331.821982 245.38283 
L 332.363976 237.924427 
L 332.905971 242.705455 
L 333.447965 180.934577 
L 333.989959 172.902451 
L 334.531953 277.128854 
L 335.073947 249.207652 
L 335.615942 248.82517 
L 336.157936 281.527399 
L 336.69993 232.569676 
L 337.241924 271.200379 
L 337.783919 244.809107 
L 338.325913 276.746372 
L 338.867907 248.82517 
L 339.409901 253.98868 
L 339.951896 293.193107 
L 340.49389 252.26751 
L 341.035884 201.397375 
L 341.577878 285.543462 
L 342.119873 179.978372 
L 342.661867 243.279178 
L 343.203861 282.101123 
L 344.287849 196.042625 
L 344.829844 239.454356 
L 345.371838 250.737581 
L 345.913832 244.426625 
L 346.455826 164.870324 
L 346.997821 189.731668 
L 347.539815 250.928822 
L 348.081809 238.49815 
L 348.623803 67.146119 
L 349.165798 237.924427 
L 349.707792 167.738941 
L 350.249786 264.124458 
L 350.79178 167.356458 
L 351.333774 179.213407 
L 351.875769 164.870324 
L 352.417763 196.616348 
L 352.959757 241.749249 
L 353.501751 200.058688 
L 354.043746 217.270387 
L 354.58574 171.946245 
L 355.669728 237.350704 
L 356.211723 99.083383 
L 356.753717 200.632411 
L 357.295711 169.842593 
L 357.837705 190.687874 
L 358.379699 179.78713 
L 358.921694 210.003225 
L 359.463688 280.379953 
L 360.005682 199.102482 
L 360.547676 281.144917 
L 361.089671 262.020806 
L 361.631665 65.424949 
L 362.173659 206.752126 
L 362.715653 76.516933 
L 363.257648 208.090814 
L 363.799642 197.955036 
L 364.341636 183.038229 
L 364.88363 259.725913 
L 365.425625 250.737581 
L 365.967619 250.737581 
L 367.051607 199.102482 
L 367.593601 242.131731 
L 368.135596 150.336 
L 368.67759 231.422229 
L 369.219584 247.295241 
L 369.761578 174.623621 
L 370.303573 254.371162 
L 370.845567 183.803194 
L 371.387561 237.159462 
L 371.929555 198.337518 
L 372.47155 205.987162 
L 373.013544 173.093692 
L 373.555538 180.934577 
L 374.639526 229.701059 
L 375.181521 259.917154 
L 375.723515 275.598925 
L 376.265509 210.003225 
L 376.807503 211.341913 
L 377.349498 244.617866 
L 377.891492 180.360854 
L 378.433486 282.101123 
L 378.97548 174.049897 
L 379.517475 223.772585 
L 380.059469 254.944885 
L 380.601463 171.372522 
L 381.143457 261.829565 
L 381.685452 162.766672 
L 382.227446 206.178403 
L 382.76944 191.644079 
L 383.311434 203.309787 
L 383.853428 217.844111 
L 384.395423 251.502545 
L 384.937417 249.590134 
L 385.479411 236.012016 
L 386.021405 181.5083 
L 386.5634 243.852901 
L 387.105394 236.203257 
L 387.647388 168.695146 
L 388.189382 244.617866 
L 388.731377 248.251447 
L 389.273371 263.359494 
L 389.815365 213.254324 
L 390.357359 181.5083 
L 390.899353 172.137486 
L 391.983342 256.474814 
L 392.525336 198.911241 
L 393.06733 283.057328 
L 393.609325 206.560885 
L 394.151319 240.21932 
L 394.693313 245.765312 
L 395.235307 172.137486 
L 395.777302 183.803194 
L 396.319296 199.293723 
L 396.86129 256.474814 
L 397.403284 245.956553 
L 397.945278 198.911241 
L 398.487273 245.000348 
L 398.487273 245.000348 
" clip-path="url(#p6844445053)" style="fill: none; stroke: #1f77b4; stroke-width: 1.5; stroke-linecap: square"/>
   </g>
   <g id="patch_3">
    <path d="M 57.6 307.584 
L 57.6 41.472 
" style="fill: none; stroke: #000000; stroke-width: 0.8; stroke-linejoin: miter; stroke-linecap: square"/>
   </g>
   <g id="patch_4">
    <path d="M 414.72 307.584 
L 414.72 41.472 
" style="fill: none; stroke: #000000; stroke-width: 0.8; stroke-linejoin: miter; stroke-linecap: square"/>
   </g>
   <g id="patch_5">
    <path d="M 57.6 307.584 
L 414.72 307.584 
" style="fill: none; stroke: #000000; stroke-width: 0.8; stroke-linejoin: miter; stroke-linecap: square"/>
   </g>
   <g id="patch_6">
    <path d="M 57.6 41.472 
L 414.72 41.472 
" style="fill: none; stroke: #000000; stroke-width: 0.8; stroke-linejoin: miter; stroke-linecap: square"/>
   </g>
   <g id="text_15">
    <!-- Merge Score -->
    <g transform="translate(198.719063 35.472) scale(0.12 -0.12)">
     <use xlink:href="#DejaVuSans-4d"/>
     <use xlink:href="#DejaVuSans-65" x="86.279297"/>
     <use xlink:href="#DejaVuSans-72" x="147.802734"/>
     <use xlink:href="#DejaVuSans-67" x="187.166016"/>
     <use xlink:href="#DejaVuSans-65" x="250.642578"/>
     <use xlink:href="#DejaVuSans-20" x="312.166016"/>
     <use xlink:href="#DejaVuSans-53" x="343.953125"/>
     <use xlink:href="#DejaVuSans-63" x="407.429688"/>
     <use xlink:href="#DejaVuSans-6f" x="462.410156"/>
     <use xlink:href="#DejaVuSans-72" x="523.591797"/>
     <use xlink:href="#DejaVuSans-65" x="562.455078"/>
    </g>
   </g>
   <g id="legend_1">
    <g id="patch_7">
     <path d="M 313.318438 64.150125 
L 407.72 64.150125 
Q 409.72 64.150125 409.72 62.150125 
L 409.72 48.472 
Q 409.72 46.472 407.72 46.472 
L 313.318438 46.472 
Q 311.318438 46.472 311.318438 48.472 
L 311.318438 62.150125 
Q 311.318438 64.150125 313.318438 64.150125 
z
" style="fill: #ffffff; opacity: 0.8; stroke: #cccccc; stroke-linejoin: miter"/>
    </g>
    <g id="line2d_15">
     <path d="M 315.318438 54.570438 
L 325.318438 54.570438 
L 335.318438 54.570438 
" style="fill: none; stroke: #1f77b4; stroke-width: 1.5; stroke-linecap: square"/>
    </g>
    <g id="text_16">
     <!-- Merge Score -->
     <g transform="translate(343.318438 58.070438) scale(0.1 -0.1)">
      <use xlink:href="#DejaVuSans-4d"/>
      <use xlink:href="#DejaVuSans-65" x="86.279297"/>
      <use xlink:href="#DejaVuSans-72" x="147.802734"/>
      <use xlink:href="#DejaVuSans-67" x="187.166016"/>
      <use xlink:href="#DejaVuSans-65" x="250.642578"/>
      <use xlink:href="#DejaVuSans-20" x="312.166016"/>
      <use xlink:href="#DejaVuSans-53" x="343.953125"/>
      <use xlink:href="#DejaVuSans-63" x="407.429688"/>
      <use xlink:href="#DejaVuSans-6f" x="462.410156"/>
      <use xlink:href="#DejaVuSans-72" x="523.591797"/>
      <use xlink:href="#DejaVuSans-65" x="562.455078"/>
     </g>
    </g>
   </g>
  </g>
 </g>
 <defs>
  <clipPath id="p6844445053">
   <rect x="57.6" y="41.472" width="357.12" height="266.112"/>
  </clipPath>
 </defs>
</svg>
