<?xml version="1.0" encoding="utf-8" standalone="no"?>
<!DOCTYPE svg PUBLIC "-//W3C//DTD SVG 1.1//EN"
  "http://www.w3.org/Graphics/SVG/1.1/DTD/svg11.dtd">
<svg xmlns:xlink="http://www.w3.org/1999/xlink" width="460.8pt" height="345.6pt" viewBox="0 0 460.8 345.6" xmlns="http://www.w3.org/2000/svg" version="1.1">
 <metadata>
  <rdf:RDF xmlns:dc="http://purl.org/dc/elements/1.1/" xmlns:cc="http://creativecommons.org/ns#" xmlns:rdf="http://www.w3.org/1999/02/22-rdf-syntax-ns#">
   <cc:Work>
    <dc:type rdf:resource="http://purl.org/dc/dcmitype/StillImage"/>
    <dc:date>2024-03-22T17:17:20.705904</dc:date>
    <dc:format>image/svg+xml</dc:format>
    <dc:creator>
     <cc:Agent>
      <dc:title>Matplotlib v3.8.0, https://matplotlib.org/</dc:title>
     </cc:Agent>
    </dc:creator>
   </cc:Work>
  </rdf:RDF>
 </metadata>
 <defs>
  <style type="text/css">*{stroke-linejoin: round; stroke-linecap: butt}</style>
 </defs>
 <g id="figure_1">
  <g id="patch_1">
   <path d="M 0 345.6 
L 460.8 345.6 
L 460.8 0 
L 0 0 
z
" style="fill: #ffffff"/>
  </g>
  <g id="axes_1">
   <g id="patch_2">
    <path d="M 57.6 307.584 
L 414.72 307.584 
L 414.72 41.472 
L 57.6 41.472 
z
" style="fill: #ffffff"/>
   </g>
   <g id="matplotlib.axis_1">
    <g id="xtick_1">
     <g id="line2d_1">
      <defs>
       <path id="me853629e63" d="M 0 0 
L 0 3.5 
" style="stroke: #000000; stroke-width: 0.8"/>
      </defs>
      <g>
       <use xlink:href="#me853629e63" x="73.832727" y="307.584" style="stroke: #000000; stroke-width: 0.8"/>
      </g>
     </g>
     <g id="text_1">
      <!-- 0 -->
      <g transform="translate(70.651477 322.182437) scale(0.1 -0.1)">
       <defs>
        <path id="DejaVuSans-30" d="M 2034 4250 
Q 1547 4250 1301 3770 
Q 1056 3291 1056 2328 
Q 1056 1369 1301 889 
Q 1547 409 2034 409 
Q 2525 409 2770 889 
Q 3016 1369 3016 2328 
Q 3016 3291 2770 3770 
Q 2525 4250 2034 4250 
z
M 2034 4750 
Q 2819 4750 3233 4129 
Q 3647 3509 3647 2328 
Q 3647 1150 3233 529 
Q 2819 -91 2034 -91 
Q 1250 -91 836 529 
Q 422 1150 422 2328 
Q 422 3509 836 4129 
Q 1250 4750 2034 4750 
z
" transform="scale(0.015625)"/>
       </defs>
       <use xlink:href="#DejaVuSans-30"/>
      </g>
     </g>
    </g>
    <g id="xtick_2">
     <g id="line2d_2">
      <g>
       <use xlink:href="#me853629e63" x="114.516254" y="307.584" style="stroke: #000000; stroke-width: 0.8"/>
      </g>
     </g>
     <g id="text_2">
      <!-- 50 -->
      <g transform="translate(108.153754 322.182437) scale(0.1 -0.1)">
       <defs>
        <path id="DejaVuSans-35" d="M 691 4666 
L 3169 4666 
L 3169 4134 
L 1269 4134 
L 1269 2991 
Q 1406 3038 1543 3061 
Q 1681 3084 1819 3084 
Q 2600 3084 3056 2656 
Q 3513 2228 3513 1497 
Q 3513 744 3044 326 
Q 2575 -91 1722 -91 
Q 1428 -91 1123 -41 
Q 819 9 494 109 
L 494 744 
Q 775 591 1075 516 
Q 1375 441 1709 441 
Q 2250 441 2565 725 
Q 2881 1009 2881 1497 
Q 2881 1984 2565 2268 
Q 2250 2553 1709 2553 
Q 1456 2553 1204 2497 
Q 953 2441 691 2322 
L 691 4666 
z
" transform="scale(0.015625)"/>
       </defs>
       <use xlink:href="#DejaVuSans-35"/>
       <use xlink:href="#DejaVuSans-30" x="63.623047"/>
      </g>
     </g>
    </g>
    <g id="xtick_3">
     <g id="line2d_3">
      <g>
       <use xlink:href="#me853629e63" x="155.199781" y="307.584" style="stroke: #000000; stroke-width: 0.8"/>
      </g>
     </g>
     <g id="text_3">
      <!-- 100 -->
      <g transform="translate(145.656031 322.182437) scale(0.1 -0.1)">
       <defs>
        <path id="DejaVuSans-31" d="M 794 531 
L 1825 531 
L 1825 4091 
L 703 3866 
L 703 4441 
L 1819 4666 
L 2450 4666 
L 2450 531 
L 3481 531 
L 3481 0 
L 794 0 
L 794 531 
z
" transform="scale(0.015625)"/>
       </defs>
       <use xlink:href="#DejaVuSans-31"/>
       <use xlink:href="#DejaVuSans-30" x="63.623047"/>
       <use xlink:href="#DejaVuSans-30" x="127.246094"/>
      </g>
     </g>
    </g>
    <g id="xtick_4">
     <g id="line2d_4">
      <g>
       <use xlink:href="#me853629e63" x="195.883308" y="307.584" style="stroke: #000000; stroke-width: 0.8"/>
      </g>
     </g>
     <g id="text_4">
      <!-- 150 -->
      <g transform="translate(186.339558 322.182437) scale(0.1 -0.1)">
       <use xlink:href="#DejaVuSans-31"/>
       <use xlink:href="#DejaVuSans-35" x="63.623047"/>
       <use xlink:href="#DejaVuSans-30" x="127.246094"/>
      </g>
     </g>
    </g>
    <g id="xtick_5">
     <g id="line2d_5">
      <g>
       <use xlink:href="#me853629e63" x="236.566835" y="307.584" style="stroke: #000000; stroke-width: 0.8"/>
      </g>
     </g>
     <g id="text_5">
      <!-- 200 -->
      <g transform="translate(227.023085 322.182437) scale(0.1 -0.1)">
       <defs>
        <path id="DejaVuSans-32" d="M 1228 531 
L 3431 531 
L 3431 0 
L 469 0 
L 469 531 
Q 828 903 1448 1529 
Q 2069 2156 2228 2338 
Q 2531 2678 2651 2914 
Q 2772 3150 2772 3378 
Q 2772 3750 2511 3984 
Q 2250 4219 1831 4219 
Q 1534 4219 1204 4116 
Q 875 4013 500 3803 
L 500 4441 
Q 881 4594 1212 4672 
Q 1544 4750 1819 4750 
Q 2544 4750 2975 4387 
Q 3406 4025 3406 3419 
Q 3406 3131 3298 2873 
Q 3191 2616 2906 2266 
Q 2828 2175 2409 1742 
Q 1991 1309 1228 531 
z
" transform="scale(0.015625)"/>
       </defs>
       <use xlink:href="#DejaVuSans-32"/>
       <use xlink:href="#DejaVuSans-30" x="63.623047"/>
       <use xlink:href="#DejaVuSans-30" x="127.246094"/>
      </g>
     </g>
    </g>
    <g id="xtick_6">
     <g id="line2d_6">
      <g>
       <use xlink:href="#me853629e63" x="277.250362" y="307.584" style="stroke: #000000; stroke-width: 0.8"/>
      </g>
     </g>
     <g id="text_6">
      <!-- 250 -->
      <g transform="translate(267.706612 322.182437) scale(0.1 -0.1)">
       <use xlink:href="#DejaVuSans-32"/>
       <use xlink:href="#DejaVuSans-35" x="63.623047"/>
       <use xlink:href="#DejaVuSans-30" x="127.246094"/>
      </g>
     </g>
    </g>
    <g id="xtick_7">
     <g id="line2d_7">
      <g>
       <use xlink:href="#me853629e63" x="317.933889" y="307.584" style="stroke: #000000; stroke-width: 0.8"/>
      </g>
     </g>
     <g id="text_7">
      <!-- 300 -->
      <g transform="translate(308.390139 322.182437) scale(0.1 -0.1)">
       <defs>
        <path id="DejaVuSans-33" d="M 2597 2516 
Q 3050 2419 3304 2112 
Q 3559 1806 3559 1356 
Q 3559 666 3084 287 
Q 2609 -91 1734 -91 
Q 1441 -91 1130 -33 
Q 819 25 488 141 
L 488 750 
Q 750 597 1062 519 
Q 1375 441 1716 441 
Q 2309 441 2620 675 
Q 2931 909 2931 1356 
Q 2931 1769 2642 2001 
Q 2353 2234 1838 2234 
L 1294 2234 
L 1294 2753 
L 1863 2753 
Q 2328 2753 2575 2939 
Q 2822 3125 2822 3475 
Q 2822 3834 2567 4026 
Q 2313 4219 1838 4219 
Q 1578 4219 1281 4162 
Q 984 4106 628 3988 
L 628 4550 
Q 988 4650 1302 4700 
Q 1616 4750 1894 4750 
Q 2613 4750 3031 4423 
Q 3450 4097 3450 3541 
Q 3450 3153 3228 2886 
Q 3006 2619 2597 2516 
z
" transform="scale(0.015625)"/>
       </defs>
       <use xlink:href="#DejaVuSans-33"/>
       <use xlink:href="#DejaVuSans-30" x="63.623047"/>
       <use xlink:href="#DejaVuSans-30" x="127.246094"/>
      </g>
     </g>
    </g>
    <g id="xtick_8">
     <g id="line2d_8">
      <g>
       <use xlink:href="#me853629e63" x="358.617416" y="307.584" style="stroke: #000000; stroke-width: 0.8"/>
      </g>
     </g>
     <g id="text_8">
      <!-- 350 -->
      <g transform="translate(349.073666 322.182437) scale(0.1 -0.1)">
       <use xlink:href="#DejaVuSans-33"/>
       <use xlink:href="#DejaVuSans-35" x="63.623047"/>
       <use xlink:href="#DejaVuSans-30" x="127.246094"/>
      </g>
     </g>
    </g>
    <g id="xtick_9">
     <g id="line2d_9">
      <g>
       <use xlink:href="#me853629e63" x="399.300943" y="307.584" style="stroke: #000000; stroke-width: 0.8"/>
      </g>
     </g>
     <g id="text_9">
      <!-- 400 -->
      <g transform="translate(389.757193 322.182437) scale(0.1 -0.1)">
       <defs>
        <path id="DejaVuSans-34" d="M 2419 4116 
L 825 1625 
L 2419 1625 
L 2419 4116 
z
M 2253 4666 
L 3047 4666 
L 3047 1625 
L 3713 1625 
L 3713 1100 
L 3047 1100 
L 3047 0 
L 2419 0 
L 2419 1100 
L 313 1100 
L 313 1709 
L 2253 4666 
z
" transform="scale(0.015625)"/>
       </defs>
       <use xlink:href="#DejaVuSans-34"/>
       <use xlink:href="#DejaVuSans-30" x="63.623047"/>
       <use xlink:href="#DejaVuSans-30" x="127.246094"/>
      </g>
     </g>
    </g>
   </g>
   <g id="matplotlib.axis_2">
    <g id="ytick_1">
     <g id="line2d_10">
      <defs>
       <path id="me1e4d747fb" d="M 0 0 
L -3.5 0 
" style="stroke: #000000; stroke-width: 0.8"/>
      </defs>
      <g>
       <use xlink:href="#me1e4d747fb" x="57.6" y="303.143696" style="stroke: #000000; stroke-width: 0.8"/>
      </g>
     </g>
     <g id="text_10">
      <!-- 0 -->
      <g transform="translate(44.2375 306.942915) scale(0.1 -0.1)">
       <use xlink:href="#DejaVuSans-30"/>
      </g>
     </g>
    </g>
    <g id="ytick_2">
     <g id="line2d_11">
      <g>
       <use xlink:href="#me1e4d747fb" x="57.6" y="264.865215" style="stroke: #000000; stroke-width: 0.8"/>
      </g>
     </g>
     <g id="text_11">
      <!-- 500 -->
      <g transform="translate(31.5125 268.664434) scale(0.1 -0.1)">
       <use xlink:href="#DejaVuSans-35"/>
       <use xlink:href="#DejaVuSans-30" x="63.623047"/>
       <use xlink:href="#DejaVuSans-30" x="127.246094"/>
      </g>
     </g>
    </g>
    <g id="ytick_3">
     <g id="line2d_12">
      <g>
       <use xlink:href="#me1e4d747fb" x="57.6" y="226.586734" style="stroke: #000000; stroke-width: 0.8"/>
      </g>
     </g>
     <g id="text_12">
      <!-- 1000 -->
      <g transform="translate(25.15 230.385953) scale(0.1 -0.1)">
       <use xlink:href="#DejaVuSans-31"/>
       <use xlink:href="#DejaVuSans-30" x="63.623047"/>
       <use xlink:href="#DejaVuSans-30" x="127.246094"/>
       <use xlink:href="#DejaVuSans-30" x="190.869141"/>
      </g>
     </g>
    </g>
    <g id="ytick_4">
     <g id="line2d_13">
      <g>
       <use xlink:href="#me1e4d747fb" x="57.6" y="188.308253" style="stroke: #000000; stroke-width: 0.8"/>
      </g>
     </g>
     <g id="text_13">
      <!-- 1500 -->
      <g transform="translate(25.15 192.107472) scale(0.1 -0.1)">
       <use xlink:href="#DejaVuSans-31"/>
       <use xlink:href="#DejaVuSans-35" x="63.623047"/>
       <use xlink:href="#DejaVuSans-30" x="127.246094"/>
       <use xlink:href="#DejaVuSans-30" x="190.869141"/>
      </g>
     </g>
    </g>
    <g id="ytick_5">
     <g id="line2d_14">
      <g>
       <use xlink:href="#me1e4d747fb" x="57.6" y="150.029772" style="stroke: #000000; stroke-width: 0.8"/>
      </g>
     </g>
     <g id="text_14">
      <!-- 2000 -->
      <g transform="translate(25.15 153.828991) scale(0.1 -0.1)">
       <use xlink:href="#DejaVuSans-32"/>
       <use xlink:href="#DejaVuSans-30" x="63.623047"/>
       <use xlink:href="#DejaVuSans-30" x="127.246094"/>
       <use xlink:href="#DejaVuSans-30" x="190.869141"/>
      </g>
     </g>
    </g>
    <g id="ytick_6">
     <g id="line2d_15">
      <g>
       <use xlink:href="#me1e4d747fb" x="57.6" y="111.751291" style="stroke: #000000; stroke-width: 0.8"/>
      </g>
     </g>
     <g id="text_15">
      <!-- 2500 -->
      <g transform="translate(25.15 115.55051) scale(0.1 -0.1)">
       <use xlink:href="#DejaVuSans-32"/>
       <use xlink:href="#DejaVuSans-35" x="63.623047"/>
       <use xlink:href="#DejaVuSans-30" x="127.246094"/>
       <use xlink:href="#DejaVuSans-30" x="190.869141"/>
      </g>
     </g>
    </g>
    <g id="ytick_7">
     <g id="line2d_16">
      <g>
       <use xlink:href="#me1e4d747fb" x="57.6" y="73.47281" style="stroke: #000000; stroke-width: 0.8"/>
      </g>
     </g>
     <g id="text_16">
      <!-- 3000 -->
      <g transform="translate(25.15 77.272029) scale(0.1 -0.1)">
       <use xlink:href="#DejaVuSans-33"/>
       <use xlink:href="#DejaVuSans-30" x="63.623047"/>
       <use xlink:href="#DejaVuSans-30" x="127.246094"/>
       <use xlink:href="#DejaVuSans-30" x="190.869141"/>
      </g>
     </g>
    </g>
    <g id="text_17">
     <!-- Merge Score -->
     <g transform="translate(19.070312 205.728781) rotate(-90) scale(0.1 -0.1)">
      <defs>
       <path id="DejaVuSans-4d" d="M 628 4666 
L 1569 4666 
L 2759 1491 
L 3956 4666 
L 4897 4666 
L 4897 0 
L 4281 0 
L 4281 4097 
L 3078 897 
L 2444 897 
L 1241 4097 
L 1241 0 
L 628 0 
L 628 4666 
z
" transform="scale(0.015625)"/>
       <path id="DejaVuSans-65" d="M 3597 1894 
L 3597 1613 
L 953 1613 
Q 991 1019 1311 708 
Q 1631 397 2203 397 
Q 2534 397 2845 478 
Q 3156 559 3463 722 
L 3463 178 
Q 3153 47 2828 -22 
Q 2503 -91 2169 -91 
Q 1331 -91 842 396 
Q 353 884 353 1716 
Q 353 2575 817 3079 
Q 1281 3584 2069 3584 
Q 2775 3584 3186 3129 
Q 3597 2675 3597 1894 
z
M 3022 2063 
Q 3016 2534 2758 2815 
Q 2500 3097 2075 3097 
Q 1594 3097 1305 2825 
Q 1016 2553 972 2059 
L 3022 2063 
z
" transform="scale(0.015625)"/>
       <path id="DejaVuSans-72" d="M 2631 2963 
Q 2534 3019 2420 3045 
Q 2306 3072 2169 3072 
Q 1681 3072 1420 2755 
Q 1159 2438 1159 1844 
L 1159 0 
L 581 0 
L 581 3500 
L 1159 3500 
L 1159 2956 
Q 1341 3275 1631 3429 
Q 1922 3584 2338 3584 
Q 2397 3584 2469 3576 
Q 2541 3569 2628 3553 
L 2631 2963 
z
" transform="scale(0.015625)"/>
       <path id="DejaVuSans-67" d="M 2906 1791 
Q 2906 2416 2648 2759 
Q 2391 3103 1925 3103 
Q 1463 3103 1205 2759 
Q 947 2416 947 1791 
Q 947 1169 1205 825 
Q 1463 481 1925 481 
Q 2391 481 2648 825 
Q 2906 1169 2906 1791 
z
M 3481 434 
Q 3481 -459 3084 -895 
Q 2688 -1331 1869 -1331 
Q 1566 -1331 1297 -1286 
Q 1028 -1241 775 -1147 
L 775 -588 
Q 1028 -725 1275 -790 
Q 1522 -856 1778 -856 
Q 2344 -856 2625 -561 
Q 2906 -266 2906 331 
L 2906 616 
Q 2728 306 2450 153 
Q 2172 0 1784 0 
Q 1141 0 747 490 
Q 353 981 353 1791 
Q 353 2603 747 3093 
Q 1141 3584 1784 3584 
Q 2172 3584 2450 3431 
Q 2728 3278 2906 2969 
L 2906 3500 
L 3481 3500 
L 3481 434 
z
" transform="scale(0.015625)"/>
       <path id="DejaVuSans-20" transform="scale(0.015625)"/>
       <path id="DejaVuSans-53" d="M 3425 4513 
L 3425 3897 
Q 3066 4069 2747 4153 
Q 2428 4238 2131 4238 
Q 1616 4238 1336 4038 
Q 1056 3838 1056 3469 
Q 1056 3159 1242 3001 
Q 1428 2844 1947 2747 
L 2328 2669 
Q 3034 2534 3370 2195 
Q 3706 1856 3706 1288 
Q 3706 609 3251 259 
Q 2797 -91 1919 -91 
Q 1588 -91 1214 -16 
Q 841 59 441 206 
L 441 856 
Q 825 641 1194 531 
Q 1563 422 1919 422 
Q 2459 422 2753 634 
Q 3047 847 3047 1241 
Q 3047 1584 2836 1778 
Q 2625 1972 2144 2069 
L 1759 2144 
Q 1053 2284 737 2584 
Q 422 2884 422 3419 
Q 422 4038 858 4394 
Q 1294 4750 2059 4750 
Q 2388 4750 2728 4690 
Q 3069 4631 3425 4513 
z
" transform="scale(0.015625)"/>
       <path id="DejaVuSans-63" d="M 3122 3366 
L 3122 2828 
Q 2878 2963 2633 3030 
Q 2388 3097 2138 3097 
Q 1578 3097 1268 2742 
Q 959 2388 959 1747 
Q 959 1106 1268 751 
Q 1578 397 2138 397 
Q 2388 397 2633 464 
Q 2878 531 3122 666 
L 3122 134 
Q 2881 22 2623 -34 
Q 2366 -91 2075 -91 
Q 1284 -91 818 406 
Q 353 903 353 1747 
Q 353 2603 823 3093 
Q 1294 3584 2113 3584 
Q 2378 3584 2631 3529 
Q 2884 3475 3122 3366 
z
" transform="scale(0.015625)"/>
       <path id="DejaVuSans-6f" d="M 1959 3097 
Q 1497 3097 1228 2736 
Q 959 2375 959 1747 
Q 959 1119 1226 758 
Q 1494 397 1959 397 
Q 2419 397 2687 759 
Q 2956 1122 2956 1747 
Q 2956 2369 2687 2733 
Q 2419 3097 1959 3097 
z
M 1959 3584 
Q 2709 3584 3137 3096 
Q 3566 2609 3566 1747 
Q 3566 888 3137 398 
Q 2709 -91 1959 -91 
Q 1206 -91 779 398 
Q 353 888 353 1747 
Q 353 2609 779 3096 
Q 1206 3584 1959 3584 
z
" transform="scale(0.015625)"/>
      </defs>
      <use xlink:href="#DejaVuSans-4d"/>
      <use xlink:href="#DejaVuSans-65" x="86.279297"/>
      <use xlink:href="#DejaVuSans-72" x="147.802734"/>
      <use xlink:href="#DejaVuSans-67" x="187.166016"/>
      <use xlink:href="#DejaVuSans-65" x="250.642578"/>
      <use xlink:href="#DejaVuSans-20" x="312.166016"/>
      <use xlink:href="#DejaVuSans-53" x="343.953125"/>
      <use xlink:href="#DejaVuSans-63" x="407.429688"/>
      <use xlink:href="#DejaVuSans-6f" x="462.410156"/>
      <use xlink:href="#DejaVuSans-72" x="523.591797"/>
      <use xlink:href="#DejaVuSans-65" x="562.455078"/>
     </g>
    </g>
   </g>
   <g id="line2d_17">
    <path d="M 73.832727 205.150785 
L 74.646398 255.372152 
L 75.460068 195.963949 
L 76.273739 262.72162 
L 77.087409 262.72162 
L 77.90108 141.455392 
L 78.714751 250.778734 
L 79.528421 228.730329 
L 80.342092 173.915544 
L 81.155762 252.309873 
L 81.969433 257.821975 
L 82.783103 273.745823 
L 83.596774 208.825519 
L 84.410444 157.379241 
L 85.224115 261.496709 
L 86.037785 235.161114 
L 86.851456 224.136911 
L 87.665126 266.396354 
L 88.478797 262.415392 
L 89.292468 266.090127 
L 90.106138 205.763241 
L 90.919809 229.955241 
L 91.733479 234.854886 
L 92.54715 259.353114 
L 93.36082 255.984608 
L 94.174491 269.764861 
L 94.988161 271.602228 
L 95.801832 252.309873 
L 96.615502 268.233722 
L 97.429173 260.578025 
L 98.242843 227.19919 
L 99.056514 217.706127 
L 99.870185 273.133367 
L 100.683855 272.827139 
L 101.497526 153.704506 
L 102.311196 216.174987 
L 103.938537 202.700962 
L 104.752208 216.481215 
L 105.565878 278.339241 
L 106.379549 257.515747 
L 107.193219 194.739038 
L 108.00689 254.147241 
L 108.82056 264.865215 
L 109.634231 268.539949 
L 110.447902 210.969114 
L 111.261572 208.519291 
L 112.075243 245.572861 
L 112.888913 263.946532 
L 113.702584 268.233722 
L 114.516254 251.084962 
L 115.329925 262.109165 
L 116.143595 241.285671 
L 116.957266 271.602228 
L 117.770936 239.142076 
L 118.584607 200.251139 
L 119.398278 236.079797 
L 120.211948 256.903291 
L 121.025619 256.290835 
L 121.839289 267.00881 
L 122.65296 273.439595 
L 123.46663 285.994937 
L 124.280301 233.323747 
L 125.093971 281.707747 
L 125.907642 221.380861 
L 126.721312 205.150785 
L 127.534983 139.00557 
L 128.348653 173.609316 
L 129.162324 218.62481 
L 129.975995 225.055595 
L 130.789665 212.500253 
L 131.603336 213.112709 
L 132.417006 212.806481 
L 133.230677 265.477671 
L 134.044347 226.892962 
L 134.858018 245.879089 
L 135.671688 225.668051 
L 136.485359 265.783899 
L 137.299029 208.519291 
L 138.1127 233.936203 
L 138.92637 248.328911 
L 139.740041 159.829063 
L 140.553712 252.309873 
L 141.367382 234.854886 
L 142.181053 248.941367 
L 142.994723 207.29438 
L 143.808394 285.994937 
L 144.622064 251.39119 
L 145.435735 175.140456 
L 146.249405 251.39119 
L 147.063076 256.903291 
L 147.876746 222.912 
L 148.690417 224.443139 
L 149.504087 259.046886 
L 150.317758 195.045266 
L 151.131429 213.418937 
L 151.945099 225.055595 
L 152.75877 217.706127 
L 153.57244 257.821975 
L 154.386111 174.221772 
L 155.199781 234.548658 
L 156.013452 265.171443 
L 156.827122 261.496709 
L 157.640793 193.207899 
L 158.454463 250.166278 
L 159.268134 229.342785 
L 160.081805 232.405063 
L 160.895475 259.353114 
L 161.709146 139.924253 
L 163.336487 260.271797 
L 164.150157 139.311797 
L 164.963828 203.313418 
L 165.777498 213.418937 
L 166.591169 232.405063 
L 167.404839 183.10238 
L 168.21851 266.702582 
L 169.03218 135.330835 
L 169.845851 214.33762 
L 170.659522 263.334076 
L 171.473192 224.749367 
L 172.286863 230.261468 
L 173.100533 218.318582 
L 173.914204 153.398278 
L 175.541545 247.104 
L 176.355215 180.652557 
L 177.168886 264.865215 
L 177.982556 117.875848 
L 178.796227 257.515747 
L 179.609897 160.441519 
L 180.423568 221.687089 
L 181.237239 128.900051 
L 182.050909 262.72162 
L 182.86458 139.00557 
L 183.67825 233.323747 
L 184.491921 260.578025 
L 185.305591 232.098835 
L 186.119262 198.72 
L 186.932932 116.344709 
L 187.746603 209.744203 
L 188.560273 242.81681 
L 189.373944 266.090127 
L 190.187614 267.927494 
L 191.001285 255.67838 
L 191.814956 185.552203 
L 192.628626 192.595443 
L 193.442297 124.919089 
L 194.255967 203.00719 
L 195.069638 146.661266 
L 195.883308 252.003646 
L 196.696979 143.598987 
L 197.510649 75.616405 
L 198.32432 271.908456 
L 199.13799 180.958785 
L 199.951661 155.235646 
L 201.579002 285.382481 
L 202.392673 239.754532 
L 203.206343 251.084962 
L 204.020014 254.147241 
L 204.833684 208.213063 
L 205.647355 263.640304 
L 206.461025 142.374076 
L 207.274696 178.81519 
L 208.088366 207.906835 
L 208.902037 249.860051 
L 209.715707 212.806481 
L 210.529378 214.33762 
L 211.343049 220.155949 
L 212.156719 260.884253 
L 212.97039 263.946532 
L 213.78406 251.084962 
L 214.597731 89.09043 
L 215.411401 253.534785 
L 216.225072 182.489924 
L 217.038742 246.797772 
L 217.852413 243.735494 
L 218.666083 207.600608 
L 219.479754 212.194025 
L 220.293424 295.488 
L 221.107095 274.970734 
L 221.920766 209.744203 
L 222.734436 256.290835 
L 223.548107 228.424101 
L 224.361777 235.161114 
L 225.175448 154.010734 
L 225.989118 199.944911 
L 226.802789 257.821975 
L 227.616459 233.017519 
L 228.43013 222.912 
L 229.2438 162.891342 
L 230.057471 250.166278 
L 230.871141 253.534785 
L 231.684812 259.046886 
L 232.498483 262.72162 
L 233.312153 214.950076 
L 234.125824 272.214684 
L 234.939494 206.988152 
L 235.753165 94.908759 
L 236.566835 252.309873 
L 237.380506 169.934582 
L 238.194176 228.424101 
L 239.007847 141.455392 
L 239.821517 131.962329 
L 240.635188 201.476051 
L 241.448859 223.524456 
L 242.262529 181.571241 
L 243.0762 227.19919 
L 243.88987 210.05043 
L 244.703541 206.069468 
L 245.517211 257.515747 
L 246.330882 221.074633 
L 247.144552 209.437975 
L 247.958223 119.713215 
L 248.771893 235.77357 
L 249.585564 172.996861 
L 250.399234 234.854886 
L 251.212905 206.069468 
L 252.026576 124.919089 
L 252.840246 189.839392 
L 253.653917 226.586734 
L 254.467587 212.194025 
L 255.281258 141.455392 
L 256.094928 105.626734 
L 256.908599 273.439595 
L 257.722269 231.792608 
L 258.53594 268.233722 
L 259.34961 226.892962 
L 260.163281 230.873924 
L 260.976951 195.657722 
L 261.790622 255.984608 
L 262.604293 224.749367 
L 263.417963 208.213063 
L 264.231634 210.356658 
L 265.045304 195.045266 
L 265.858975 222.299544 
L 266.672645 203.925873 
L 267.486316 261.190481 
L 268.299986 113.28243 
L 269.113657 236.386025 
L 269.927327 240.366987 
L 270.740998 107.770329 
L 271.554668 193.820354 
L 272.368339 150.029772 
L 273.18201 210.05043 
L 273.99568 224.443139 
L 274.809351 256.597063 
L 275.623021 196.576405 
L 276.436692 206.069468 
L 277.250362 257.821975 
L 278.064033 263.027848 
L 278.877703 148.192405 
L 279.691374 276.808101 
L 280.505044 201.782278 
L 281.318715 110.832608 
L 282.132386 265.783899 
L 283.759727 152.785823 
L 284.573397 264.558987 
L 285.387068 88.477975 
L 286.200738 207.29438 
L 287.014409 198.107544 
L 287.828079 221.074633 
L 288.64175 190.758076 
L 289.45542 118.794532 
L 290.269091 94.908759 
L 291.082761 234.24243 
L 291.896432 248.022684 
L 292.710103 202.088506 
L 293.523773 261.802937 
L 294.337444 226.892962 
L 295.151114 200.863595 
L 295.964785 243.735494 
L 296.778455 210.356658 
L 297.592126 216.481215 
L 298.405796 239.448304 
L 299.219467 172.690633 
L 300.033137 256.903291 
L 300.846808 147.579949 
L 301.660478 257.515747 
L 302.474149 82.353418 
L 303.28782 253.228557 
L 304.10149 205.457013 
L 304.915161 211.887797 
L 305.728831 238.223392 
L 306.542502 86.33438 
L 307.356172 186.164658 
L 308.169843 228.730329 
L 308.983513 150.029772 
L 309.797184 134.71838 
L 310.610854 214.33762 
L 311.424525 192.595443 
L 312.238195 203.619646 
L 313.051866 255.372152 
L 313.865537 192.289215 
L 314.679207 84.497013 
L 315.492878 140.842937 
L 316.306548 223.524456 
L 317.120219 259.96557 
L 317.933889 225.055595 
L 318.74756 236.386025 
L 319.56123 252.003646 
L 320.374901 252.922329 
L 321.188571 209.131747 
L 322.002242 138.699342 
L 322.815913 141.76162 
L 323.629583 122.775494 
L 324.443254 240.673215 
L 325.256924 131.043646 
L 326.070595 164.116253 
L 326.884265 208.825519 
L 327.697936 174.528 
L 328.511606 252.309873 
L 329.325277 107.464101 
L 330.138947 268.846177 
L 330.952618 237.917165 
L 331.766288 213.418937 
L 332.579959 131.656101 
L 333.39363 206.069468 
L 334.2073 232.098835 
L 335.020971 286.607392 
L 335.834641 215.256304 
L 336.648312 125.837772 
L 337.461982 222.299544 
L 338.275653 195.045266 
L 339.089323 290.588354 
L 339.902994 139.618025 
L 340.716664 95.827443 
L 341.530335 232.405063 
L 342.344005 204.844557 
L 343.157676 144.517671 
L 343.971347 227.19919 
L 344.785017 207.600608 
L 345.598688 208.519291 
L 346.412358 153.398278 
L 347.226029 246.797772 
L 348.039699 136.861975 
L 349.66704 245.266633 
L 350.480711 137.780658 
L 351.294381 232.711291 
L 352.108052 59.386329 
L 353.735393 170.853266 
L 354.549064 176.059139 
L 355.362734 200.557367 
L 356.176405 265.477671 
L 357.803746 137.780658 
L 358.617416 223.218228 
L 359.431087 173.303089 
L 361.058428 53.568 
L 361.872098 276.501873 
L 362.685769 67.348253 
L 363.49944 109.913924 
L 364.31311 236.998481 
L 365.126781 135.330835 
L 365.940451 201.782278 
L 366.754122 149.417316 
L 367.567792 158.604152 
L 368.381463 256.597063 
L 370.008804 157.991696 
L 370.822474 105.932962 
L 371.636145 199.638684 
L 372.449815 214.33762 
L 373.263486 153.092051 
L 374.077157 197.495089 
L 374.890827 154.316962 
L 375.704498 260.578025 
L 376.518168 189.226937 
L 377.331839 138.086886 
L 378.145509 105.320506 
L 378.95918 210.356658 
L 379.77285 213.418937 
L 380.586521 232.711291 
L 381.400191 211.887797 
L 382.213862 91.540253 
L 383.027532 263.027848 
L 383.841203 225.361823 
L 384.654874 214.950076 
L 385.468544 263.946532 
L 386.282215 278.645468 
L 388.723226 85.415696 
L 389.536897 255.372152 
L 390.350567 95.827443 
L 391.164238 246.491544 
L 391.977908 209.437975 
L 392.791579 186.470886 
L 393.605249 184.327291 
L 394.41892 138.699342 
L 395.232591 148.498633 
L 396.046261 205.763241 
L 396.859932 153.704506 
L 397.673602 244.654177 
L 398.487273 257.821975 
L 398.487273 257.821975 
" clip-path="url(#p230306ae91)" style="fill: none; stroke: #1f77b4; stroke-width: 1.5; stroke-linecap: square"/>
   </g>
   <g id="patch_3">
    <path d="M 57.6 307.584 
L 57.6 41.472 
" style="fill: none; stroke: #000000; stroke-width: 0.8; stroke-linejoin: miter; stroke-linecap: square"/>
   </g>
   <g id="patch_4">
    <path d="M 414.72 307.584 
L 414.72 41.472 
" style="fill: none; stroke: #000000; stroke-width: 0.8; stroke-linejoin: miter; stroke-linecap: square"/>
   </g>
   <g id="patch_5">
    <path d="M 57.6 307.584 
L 414.72 307.584 
" style="fill: none; stroke: #000000; stroke-width: 0.8; stroke-linejoin: miter; stroke-linecap: square"/>
   </g>
   <g id="patch_6">
    <path d="M 57.6 41.472 
L 414.72 41.472 
" style="fill: none; stroke: #000000; stroke-width: 0.8; stroke-linejoin: miter; stroke-linecap: square"/>
   </g>
   <g id="text_18">
    <!-- Merge Score -->
    <g transform="translate(198.719063 35.472) scale(0.12 -0.12)">
     <use xlink:href="#DejaVuSans-4d"/>
     <use xlink:href="#DejaVuSans-65" x="86.279297"/>
     <use xlink:href="#DejaVuSans-72" x="147.802734"/>
     <use xlink:href="#DejaVuSans-67" x="187.166016"/>
     <use xlink:href="#DejaVuSans-65" x="250.642578"/>
     <use xlink:href="#DejaVuSans-20" x="312.166016"/>
     <use xlink:href="#DejaVuSans-53" x="343.953125"/>
     <use xlink:href="#DejaVuSans-63" x="407.429688"/>
     <use xlink:href="#DejaVuSans-6f" x="462.410156"/>
     <use xlink:href="#DejaVuSans-72" x="523.591797"/>
     <use xlink:href="#DejaVuSans-65" x="562.455078"/>
    </g>
   </g>
   <g id="legend_1">
    <g id="patch_7">
     <path d="M 64.6 64.150125 
L 159.001563 64.150125 
Q 161.001563 64.150125 161.001563 62.150125 
L 161.001563 48.472 
Q 161.001563 46.472 159.001563 46.472 
L 64.6 46.472 
Q 62.6 46.472 62.6 48.472 
L 62.6 62.150125 
Q 62.6 64.150125 64.6 64.150125 
z
" style="fill: #ffffff; opacity: 0.8; stroke: #cccccc; stroke-linejoin: miter"/>
    </g>
    <g id="line2d_18">
     <path d="M 66.6 54.570438 
L 76.6 54.570438 
L 86.6 54.570438 
" style="fill: none; stroke: #1f77b4; stroke-width: 1.5; stroke-linecap: square"/>
    </g>
    <g id="text_19">
     <!-- Merge Score -->
     <g transform="translate(94.6 58.070438) scale(0.1 -0.1)">
      <use xlink:href="#DejaVuSans-4d"/>
      <use xlink:href="#DejaVuSans-65" x="86.279297"/>
      <use xlink:href="#DejaVuSans-72" x="147.802734"/>
      <use xlink:href="#DejaVuSans-67" x="187.166016"/>
      <use xlink:href="#DejaVuSans-65" x="250.642578"/>
      <use xlink:href="#DejaVuSans-20" x="312.166016"/>
      <use xlink:href="#DejaVuSans-53" x="343.953125"/>
      <use xlink:href="#DejaVuSans-63" x="407.429688"/>
      <use xlink:href="#DejaVuSans-6f" x="462.410156"/>
      <use xlink:href="#DejaVuSans-72" x="523.591797"/>
      <use xlink:href="#DejaVuSans-65" x="562.455078"/>
     </g>
    </g>
   </g>
  </g>
 </g>
 <defs>
  <clipPath id="p230306ae91">
   <rect x="57.6" y="41.472" width="357.12" height="266.112"/>
  </clipPath>
 </defs>
</svg>
