<?xml version="1.0" encoding="utf-8" standalone="no"?>
<!DOCTYPE svg PUBLIC "-//W3C//DTD SVG 1.1//EN"
  "http://www.w3.org/Graphics/SVG/1.1/DTD/svg11.dtd">
<svg xmlns:xlink="http://www.w3.org/1999/xlink" width="460.8pt" height="345.6pt" viewBox="0 0 460.8 345.6" xmlns="http://www.w3.org/2000/svg" version="1.1">
 <metadata>
  <rdf:RDF xmlns:dc="http://purl.org/dc/elements/1.1/" xmlns:cc="http://creativecommons.org/ns#" xmlns:rdf="http://www.w3.org/1999/02/22-rdf-syntax-ns#">
   <cc:Work>
    <dc:type rdf:resource="http://purl.org/dc/dcmitype/StillImage"/>
    <dc:date>2024-03-22T16:43:00.785487</dc:date>
    <dc:format>image/svg+xml</dc:format>
    <dc:creator>
     <cc:Agent>
      <dc:title>Matplotlib v3.8.0, https://matplotlib.org/</dc:title>
     </cc:Agent>
    </dc:creator>
   </cc:Work>
  </rdf:RDF>
 </metadata>
 <defs>
  <style type="text/css">*{stroke-linejoin: round; stroke-linecap: butt}</style>
 </defs>
 <g id="figure_1">
  <g id="patch_1">
   <path d="M 0 345.6 
L 460.8 345.6 
L 460.8 0 
L 0 0 
z
" style="fill: #ffffff"/>
  </g>
  <g id="axes_1">
   <g id="patch_2">
    <path d="M 57.6 307.584 
L 414.72 307.584 
L 414.72 41.472 
L 57.6 41.472 
z
" style="fill: #ffffff"/>
   </g>
   <g id="matplotlib.axis_1">
    <g id="xtick_1">
     <g id="line2d_1">
      <defs>
       <path id="m6af631ae88" d="M 0 0 
L 0 3.5 
" style="stroke: #000000; stroke-width: 0.8"/>
      </defs>
      <g>
       <use xlink:href="#m6af631ae88" x="73.832727" y="307.584" style="stroke: #000000; stroke-width: 0.8"/>
      </g>
     </g>
     <g id="text_1">
      <!-- 0 -->
      <g transform="translate(70.651477 322.182437) scale(0.1 -0.1)">
       <defs>
        <path id="DejaVuSans-30" d="M 2034 4250 
Q 1547 4250 1301 3770 
Q 1056 3291 1056 2328 
Q 1056 1369 1301 889 
Q 1547 409 2034 409 
Q 2525 409 2770 889 
Q 3016 1369 3016 2328 
Q 3016 3291 2770 3770 
Q 2525 4250 2034 4250 
z
M 2034 4750 
Q 2819 4750 3233 4129 
Q 3647 3509 3647 2328 
Q 3647 1150 3233 529 
Q 2819 -91 2034 -91 
Q 1250 -91 836 529 
Q 422 1150 422 2328 
Q 422 3509 836 4129 
Q 1250 4750 2034 4750 
z
" transform="scale(0.015625)"/>
       </defs>
       <use xlink:href="#DejaVuSans-30"/>
      </g>
     </g>
    </g>
    <g id="xtick_2">
     <g id="line2d_2">
      <g>
       <use xlink:href="#m6af631ae88" x="114.618474" y="307.584" style="stroke: #000000; stroke-width: 0.8"/>
      </g>
     </g>
     <g id="text_2">
      <!-- 50 -->
      <g transform="translate(108.255974 322.182437) scale(0.1 -0.1)">
       <defs>
        <path id="DejaVuSans-35" d="M 691 4666 
L 3169 4666 
L 3169 4134 
L 1269 4134 
L 1269 2991 
Q 1406 3038 1543 3061 
Q 1681 3084 1819 3084 
Q 2600 3084 3056 2656 
Q 3513 2228 3513 1497 
Q 3513 744 3044 326 
Q 2575 -91 1722 -91 
Q 1428 -91 1123 -41 
Q 819 9 494 109 
L 494 744 
Q 775 591 1075 516 
Q 1375 441 1709 441 
Q 2250 441 2565 725 
Q 2881 1009 2881 1497 
Q 2881 1984 2565 2268 
Q 2250 2553 1709 2553 
Q 1456 2553 1204 2497 
Q 953 2441 691 2322 
L 691 4666 
z
" transform="scale(0.015625)"/>
       </defs>
       <use xlink:href="#DejaVuSans-35"/>
       <use xlink:href="#DejaVuSans-30" x="63.623047"/>
      </g>
     </g>
    </g>
    <g id="xtick_3">
     <g id="line2d_3">
      <g>
       <use xlink:href="#m6af631ae88" x="155.404221" y="307.584" style="stroke: #000000; stroke-width: 0.8"/>
      </g>
     </g>
     <g id="text_3">
      <!-- 100 -->
      <g transform="translate(145.860471 322.182437) scale(0.1 -0.1)">
       <defs>
        <path id="DejaVuSans-31" d="M 794 531 
L 1825 531 
L 1825 4091 
L 703 3866 
L 703 4441 
L 1819 4666 
L 2450 4666 
L 2450 531 
L 3481 531 
L 3481 0 
L 794 0 
L 794 531 
z
" transform="scale(0.015625)"/>
       </defs>
       <use xlink:href="#DejaVuSans-31"/>
       <use xlink:href="#DejaVuSans-30" x="63.623047"/>
       <use xlink:href="#DejaVuSans-30" x="127.246094"/>
      </g>
     </g>
    </g>
    <g id="xtick_4">
     <g id="line2d_4">
      <g>
       <use xlink:href="#m6af631ae88" x="196.189968" y="307.584" style="stroke: #000000; stroke-width: 0.8"/>
      </g>
     </g>
     <g id="text_4">
      <!-- 150 -->
      <g transform="translate(186.646218 322.182437) scale(0.1 -0.1)">
       <use xlink:href="#DejaVuSans-31"/>
       <use xlink:href="#DejaVuSans-35" x="63.623047"/>
       <use xlink:href="#DejaVuSans-30" x="127.246094"/>
      </g>
     </g>
    </g>
    <g id="xtick_5">
     <g id="line2d_5">
      <g>
       <use xlink:href="#m6af631ae88" x="236.975715" y="307.584" style="stroke: #000000; stroke-width: 0.8"/>
      </g>
     </g>
     <g id="text_5">
      <!-- 200 -->
      <g transform="translate(227.431965 322.182437) scale(0.1 -0.1)">
       <defs>
        <path id="DejaVuSans-32" d="M 1228 531 
L 3431 531 
L 3431 0 
L 469 0 
L 469 531 
Q 828 903 1448 1529 
Q 2069 2156 2228 2338 
Q 2531 2678 2651 2914 
Q 2772 3150 2772 3378 
Q 2772 3750 2511 3984 
Q 2250 4219 1831 4219 
Q 1534 4219 1204 4116 
Q 875 4013 500 3803 
L 500 4441 
Q 881 4594 1212 4672 
Q 1544 4750 1819 4750 
Q 2544 4750 2975 4387 
Q 3406 4025 3406 3419 
Q 3406 3131 3298 2873 
Q 3191 2616 2906 2266 
Q 2828 2175 2409 1742 
Q 1991 1309 1228 531 
z
" transform="scale(0.015625)"/>
       </defs>
       <use xlink:href="#DejaVuSans-32"/>
       <use xlink:href="#DejaVuSans-30" x="63.623047"/>
       <use xlink:href="#DejaVuSans-30" x="127.246094"/>
      </g>
     </g>
    </g>
    <g id="xtick_6">
     <g id="line2d_6">
      <g>
       <use xlink:href="#m6af631ae88" x="277.761462" y="307.584" style="stroke: #000000; stroke-width: 0.8"/>
      </g>
     </g>
     <g id="text_6">
      <!-- 250 -->
      <g transform="translate(268.217712 322.182437) scale(0.1 -0.1)">
       <use xlink:href="#DejaVuSans-32"/>
       <use xlink:href="#DejaVuSans-35" x="63.623047"/>
       <use xlink:href="#DejaVuSans-30" x="127.246094"/>
      </g>
     </g>
    </g>
    <g id="xtick_7">
     <g id="line2d_7">
      <g>
       <use xlink:href="#m6af631ae88" x="318.547209" y="307.584" style="stroke: #000000; stroke-width: 0.8"/>
      </g>
     </g>
     <g id="text_7">
      <!-- 300 -->
      <g transform="translate(309.003459 322.182437) scale(0.1 -0.1)">
       <defs>
        <path id="DejaVuSans-33" d="M 2597 2516 
Q 3050 2419 3304 2112 
Q 3559 1806 3559 1356 
Q 3559 666 3084 287 
Q 2609 -91 1734 -91 
Q 1441 -91 1130 -33 
Q 819 25 488 141 
L 488 750 
Q 750 597 1062 519 
Q 1375 441 1716 441 
Q 2309 441 2620 675 
Q 2931 909 2931 1356 
Q 2931 1769 2642 2001 
Q 2353 2234 1838 2234 
L 1294 2234 
L 1294 2753 
L 1863 2753 
Q 2328 2753 2575 2939 
Q 2822 3125 2822 3475 
Q 2822 3834 2567 4026 
Q 2313 4219 1838 4219 
Q 1578 4219 1281 4162 
Q 984 4106 628 3988 
L 628 4550 
Q 988 4650 1302 4700 
Q 1616 4750 1894 4750 
Q 2613 4750 3031 4423 
Q 3450 4097 3450 3541 
Q 3450 3153 3228 2886 
Q 3006 2619 2597 2516 
z
" transform="scale(0.015625)"/>
       </defs>
       <use xlink:href="#DejaVuSans-33"/>
       <use xlink:href="#DejaVuSans-30" x="63.623047"/>
       <use xlink:href="#DejaVuSans-30" x="127.246094"/>
      </g>
     </g>
    </g>
    <g id="xtick_8">
     <g id="line2d_8">
      <g>
       <use xlink:href="#m6af631ae88" x="359.332956" y="307.584" style="stroke: #000000; stroke-width: 0.8"/>
      </g>
     </g>
     <g id="text_8">
      <!-- 350 -->
      <g transform="translate(349.789206 322.182437) scale(0.1 -0.1)">
       <use xlink:href="#DejaVuSans-33"/>
       <use xlink:href="#DejaVuSans-35" x="63.623047"/>
       <use xlink:href="#DejaVuSans-30" x="127.246094"/>
      </g>
     </g>
    </g>
    <g id="xtick_9">
     <g id="line2d_9">
      <g>
       <use xlink:href="#m6af631ae88" x="400.118703" y="307.584" style="stroke: #000000; stroke-width: 0.8"/>
      </g>
     </g>
     <g id="text_9">
      <!-- 400 -->
      <g transform="translate(390.574953 322.182437) scale(0.1 -0.1)">
       <defs>
        <path id="DejaVuSans-34" d="M 2419 4116 
L 825 1625 
L 2419 1625 
L 2419 4116 
z
M 2253 4666 
L 3047 4666 
L 3047 1625 
L 3713 1625 
L 3713 1100 
L 3047 1100 
L 3047 0 
L 2419 0 
L 2419 1100 
L 313 1100 
L 313 1709 
L 2253 4666 
z
" transform="scale(0.015625)"/>
       </defs>
       <use xlink:href="#DejaVuSans-34"/>
       <use xlink:href="#DejaVuSans-30" x="63.623047"/>
       <use xlink:href="#DejaVuSans-30" x="127.246094"/>
      </g>
     </g>
    </g>
   </g>
   <g id="matplotlib.axis_2">
    <g id="ytick_1">
     <g id="line2d_10">
      <defs>
       <path id="ma012b8348a" d="M 0 0 
L -3.5 0 
" style="stroke: #000000; stroke-width: 0.8"/>
      </defs>
      <g>
       <use xlink:href="#ma012b8348a" x="57.6" y="299.131341" style="stroke: #000000; stroke-width: 0.8"/>
      </g>
     </g>
     <g id="text_10">
      <!-- 0 -->
      <g transform="translate(44.2375 302.93056) scale(0.1 -0.1)">
       <use xlink:href="#DejaVuSans-30"/>
      </g>
     </g>
    </g>
    <g id="ytick_2">
     <g id="line2d_11">
      <g>
       <use xlink:href="#ma012b8348a" x="57.6" y="265.964465" style="stroke: #000000; stroke-width: 0.8"/>
      </g>
     </g>
     <g id="text_11">
      <!-- 100 -->
      <g transform="translate(31.5125 269.763684) scale(0.1 -0.1)">
       <use xlink:href="#DejaVuSans-31"/>
       <use xlink:href="#DejaVuSans-30" x="63.623047"/>
       <use xlink:href="#DejaVuSans-30" x="127.246094"/>
      </g>
     </g>
    </g>
    <g id="ytick_3">
     <g id="line2d_12">
      <g>
       <use xlink:href="#ma012b8348a" x="57.6" y="232.797589" style="stroke: #000000; stroke-width: 0.8"/>
      </g>
     </g>
     <g id="text_12">
      <!-- 200 -->
      <g transform="translate(31.5125 236.596808) scale(0.1 -0.1)">
       <use xlink:href="#DejaVuSans-32"/>
       <use xlink:href="#DejaVuSans-30" x="63.623047"/>
       <use xlink:href="#DejaVuSans-30" x="127.246094"/>
      </g>
     </g>
    </g>
    <g id="ytick_4">
     <g id="line2d_13">
      <g>
       <use xlink:href="#ma012b8348a" x="57.6" y="199.630713" style="stroke: #000000; stroke-width: 0.8"/>
      </g>
     </g>
     <g id="text_13">
      <!-- 300 -->
      <g transform="translate(31.5125 203.429932) scale(0.1 -0.1)">
       <use xlink:href="#DejaVuSans-33"/>
       <use xlink:href="#DejaVuSans-30" x="63.623047"/>
       <use xlink:href="#DejaVuSans-30" x="127.246094"/>
      </g>
     </g>
    </g>
    <g id="ytick_5">
     <g id="line2d_14">
      <g>
       <use xlink:href="#ma012b8348a" x="57.6" y="166.463837" style="stroke: #000000; stroke-width: 0.8"/>
      </g>
     </g>
     <g id="text_14">
      <!-- 400 -->
      <g transform="translate(31.5125 170.263056) scale(0.1 -0.1)">
       <use xlink:href="#DejaVuSans-34"/>
       <use xlink:href="#DejaVuSans-30" x="63.623047"/>
       <use xlink:href="#DejaVuSans-30" x="127.246094"/>
      </g>
     </g>
    </g>
    <g id="ytick_6">
     <g id="line2d_15">
      <g>
       <use xlink:href="#ma012b8348a" x="57.6" y="133.296961" style="stroke: #000000; stroke-width: 0.8"/>
      </g>
     </g>
     <g id="text_15">
      <!-- 500 -->
      <g transform="translate(31.5125 137.09618) scale(0.1 -0.1)">
       <use xlink:href="#DejaVuSans-35"/>
       <use xlink:href="#DejaVuSans-30" x="63.623047"/>
       <use xlink:href="#DejaVuSans-30" x="127.246094"/>
      </g>
     </g>
    </g>
    <g id="ytick_7">
     <g id="line2d_16">
      <g>
       <use xlink:href="#ma012b8348a" x="57.6" y="100.130085" style="stroke: #000000; stroke-width: 0.8"/>
      </g>
     </g>
     <g id="text_16">
      <!-- 600 -->
      <g transform="translate(31.5125 103.929304) scale(0.1 -0.1)">
       <defs>
        <path id="DejaVuSans-36" d="M 2113 2584 
Q 1688 2584 1439 2293 
Q 1191 2003 1191 1497 
Q 1191 994 1439 701 
Q 1688 409 2113 409 
Q 2538 409 2786 701 
Q 3034 994 3034 1497 
Q 3034 2003 2786 2293 
Q 2538 2584 2113 2584 
z
M 3366 4563 
L 3366 3988 
Q 3128 4100 2886 4159 
Q 2644 4219 2406 4219 
Q 1781 4219 1451 3797 
Q 1122 3375 1075 2522 
Q 1259 2794 1537 2939 
Q 1816 3084 2150 3084 
Q 2853 3084 3261 2657 
Q 3669 2231 3669 1497 
Q 3669 778 3244 343 
Q 2819 -91 2113 -91 
Q 1303 -91 875 529 
Q 447 1150 447 2328 
Q 447 3434 972 4092 
Q 1497 4750 2381 4750 
Q 2619 4750 2861 4703 
Q 3103 4656 3366 4563 
z
" transform="scale(0.015625)"/>
       </defs>
       <use xlink:href="#DejaVuSans-36"/>
       <use xlink:href="#DejaVuSans-30" x="63.623047"/>
       <use xlink:href="#DejaVuSans-30" x="127.246094"/>
      </g>
     </g>
    </g>
    <g id="ytick_8">
     <g id="line2d_17">
      <g>
       <use xlink:href="#ma012b8348a" x="57.6" y="66.963209" style="stroke: #000000; stroke-width: 0.8"/>
      </g>
     </g>
     <g id="text_17">
      <!-- 700 -->
      <g transform="translate(31.5125 70.762427) scale(0.1 -0.1)">
       <defs>
        <path id="DejaVuSans-37" d="M 525 4666 
L 3525 4666 
L 3525 4397 
L 1831 0 
L 1172 0 
L 2766 4134 
L 525 4134 
L 525 4666 
z
" transform="scale(0.015625)"/>
       </defs>
       <use xlink:href="#DejaVuSans-37"/>
       <use xlink:href="#DejaVuSans-30" x="63.623047"/>
       <use xlink:href="#DejaVuSans-30" x="127.246094"/>
      </g>
     </g>
    </g>
    <g id="text_18">
     <!-- Loss -->
     <g transform="translate(25.432812 185.495187) rotate(-90) scale(0.1 -0.1)">
      <defs>
       <path id="DejaVuSans-4c" d="M 628 4666 
L 1259 4666 
L 1259 531 
L 3531 531 
L 3531 0 
L 628 0 
L 628 4666 
z
" transform="scale(0.015625)"/>
       <path id="DejaVuSans-6f" d="M 1959 3097 
Q 1497 3097 1228 2736 
Q 959 2375 959 1747 
Q 959 1119 1226 758 
Q 1494 397 1959 397 
Q 2419 397 2687 759 
Q 2956 1122 2956 1747 
Q 2956 2369 2687 2733 
Q 2419 3097 1959 3097 
z
M 1959 3584 
Q 2709 3584 3137 3096 
Q 3566 2609 3566 1747 
Q 3566 888 3137 398 
Q 2709 -91 1959 -91 
Q 1206 -91 779 398 
Q 353 888 353 1747 
Q 353 2609 779 3096 
Q 1206 3584 1959 3584 
z
" transform="scale(0.015625)"/>
       <path id="DejaVuSans-73" d="M 2834 3397 
L 2834 2853 
Q 2591 2978 2328 3040 
Q 2066 3103 1784 3103 
Q 1356 3103 1142 2972 
Q 928 2841 928 2578 
Q 928 2378 1081 2264 
Q 1234 2150 1697 2047 
L 1894 2003 
Q 2506 1872 2764 1633 
Q 3022 1394 3022 966 
Q 3022 478 2636 193 
Q 2250 -91 1575 -91 
Q 1294 -91 989 -36 
Q 684 19 347 128 
L 347 722 
Q 666 556 975 473 
Q 1284 391 1588 391 
Q 1994 391 2212 530 
Q 2431 669 2431 922 
Q 2431 1156 2273 1281 
Q 2116 1406 1581 1522 
L 1381 1569 
Q 847 1681 609 1914 
Q 372 2147 372 2553 
Q 372 3047 722 3315 
Q 1072 3584 1716 3584 
Q 2034 3584 2315 3537 
Q 2597 3491 2834 3397 
z
" transform="scale(0.015625)"/>
      </defs>
      <use xlink:href="#DejaVuSans-4c"/>
      <use xlink:href="#DejaVuSans-6f" x="53.962891"/>
      <use xlink:href="#DejaVuSans-73" x="115.144531"/>
      <use xlink:href="#DejaVuSans-73" x="167.244141"/>
     </g>
    </g>
   </g>
   <g id="line2d_18">
    <path d="M 73.832727 279.097635 
L 74.648442 282.395963 
L 75.464157 295.093703 
L 76.279872 295.26786 
L 77.095587 293.799701 
L 77.911302 290.137031 
L 78.727017 290.641647 
L 79.542732 288.096026 
L 80.358447 293.191625 
L 81.174162 294.302237 
L 81.989877 294.492627 
L 82.805592 295.488 
L 83.621307 284.654081 
L 84.437021 290.099992 
L 85.252736 292.242543 
L 86.068451 283.752662 
L 86.884166 290.103004 
L 87.699881 292.881249 
L 88.515596 289.520348 
L 89.331311 293.070102 
L 90.147026 265.223141 
L 90.962741 278.717269 
L 91.778456 283.990777 
L 92.594171 286.233245 
L 93.409886 285.200252 
L 94.225601 287.761668 
L 95.041316 287.680104 
L 95.857031 288.521002 
L 96.672746 290.374519 
L 97.48846 287.238646 
L 98.304175 289.116506 
L 99.11989 290.383983 
L 99.935605 288.901082 
L 100.75132 289.524601 
L 101.567035 289.546402 
L 102.38275 290.934029 
L 103.198465 290.121119 
L 104.01418 288.377807 
L 104.829895 289.396084 
L 105.64561 288.950889 
L 106.461325 266.225933 
L 107.27704 281.720466 
L 108.092755 282.095882 
L 108.90847 281.154476 
L 109.724185 282.496818 
L 110.539899 283.059517 
L 111.355614 281.241022 
L 112.171329 285.443377 
L 112.987044 284.517438 
L 113.802759 284.152795 
L 114.618474 283.124513 
L 115.434189 287.424998 
L 116.249904 268.685925 
L 117.881334 281.004878 
L 118.697049 282.636906 
L 119.512764 280.321963 
L 120.328479 277.112657 
L 121.144194 278.822237 
L 121.959909 281.723466 
L 122.775624 255.265389 
L 123.591339 264.617219 
L 124.407053 269.789606 
L 125.222768 271.858662 
L 127.669913 274.743413 
L 128.485628 274.061433 
L 129.301343 276.467817 
L 130.117058 275.757694 
L 130.932773 277.651465 
L 132.564203 279.521856 
L 133.379918 278.672287 
L 134.195633 278.944651 
L 135.011348 276.880442 
L 135.827063 279.352678 
L 136.642778 280.680175 
L 137.458492 277.445974 
L 138.274207 280.61965 
L 139.089922 254.501053 
L 139.905637 263.487747 
L 140.721352 265.297672 
L 141.537067 269.205978 
L 142.352782 269.465359 
L 143.168497 271.860875 
L 143.984212 269.597389 
L 144.799927 269.433414 
L 145.615642 267.378698 
L 146.431357 271.547459 
L 147.247072 270.201181 
L 148.062787 264.50623 
L 148.878502 261.633621 
L 149.694217 264.283043 
L 150.509931 271.259617 
L 151.325646 270.613026 
L 152.141361 251.754635 
L 152.957076 262.668424 
L 153.772791 271.116524 
L 154.588506 264.94168 
L 155.404221 236.099447 
L 156.219936 249.462435 
L 157.035651 247.16823 
L 157.851366 249.504729 
L 158.667081 250.60723 
L 159.482796 249.581244 
L 160.298511 254.555809 
L 161.114226 248.468439 
L 161.929941 248.427793 
L 162.745656 248.726643 
L 163.56137 247.201496 
L 164.377085 249.290727 
L 165.1928 253.029774 
L 166.008515 252.549067 
L 166.82423 256.77027 
L 167.639945 250.031774 
L 168.45566 255.208801 
L 169.271375 252.612268 
L 170.08709 254.385381 
L 170.902805 253.924571 
L 171.71852 227.49422 
L 172.534235 239.571455 
L 173.34995 235.240847 
L 174.165665 233.054665 
L 174.98138 241.802099 
L 175.797095 240.403653 
L 176.61281 241.938288 
L 177.428524 235.447631 
L 178.244239 246.511323 
L 179.059954 232.352856 
L 179.875669 240.99382 
L 180.691384 246.442212 
L 181.507099 238.684816 
L 182.322814 241.183247 
L 183.138529 234.870966 
L 183.954244 245.944776 
L 184.769959 244.509937 
L 185.585674 244.692819 
L 187.217104 239.202368 
L 188.032819 216.345248 
L 188.848534 221.29634 
L 189.664249 230.220491 
L 190.479963 220.100552 
L 191.295678 220.565109 
L 192.111393 220.051367 
L 192.927108 220.160962 
L 193.742823 229.848819 
L 194.558538 226.523313 
L 195.374253 230.654648 
L 196.189968 236.893857 
L 197.005683 231.442889 
L 197.821398 235.025019 
L 198.637113 237.446267 
L 199.452828 225.376298 
L 200.268543 226.958762 
L 201.084258 237.644393 
L 201.899973 220.732397 
L 202.715688 236.684002 
L 203.531402 235.437575 
L 204.347117 203.283761 
L 205.162832 205.81529 
L 205.978547 221.354263 
L 206.794262 210.793035 
L 207.609977 217.571355 
L 208.425692 222.092513 
L 209.241407 213.706361 
L 210.057122 217.626622 
L 210.872837 217.266175 
L 212.504267 221.657601 
L 213.319982 227.957016 
L 214.135697 223.599363 
L 214.951412 228.540621 
L 215.767127 226.480312 
L 216.582841 228.513859 
L 217.398556 225.749136 
L 218.214271 225.331753 
L 219.029986 230.169962 
L 219.845701 227.783678 
L 220.661416 207.000302 
L 221.477131 216.231892 
L 222.292846 211.717592 
L 223.108561 214.414984 
L 223.924276 208.430775 
L 224.739991 205.553565 
L 225.555706 212.465064 
L 226.371421 208.886387 
L 227.187136 203.851792 
L 228.002851 219.308922 
L 228.818566 211.955657 
L 229.63428 207.337443 
L 230.449995 213.030729 
L 231.26571 205.176285 
L 232.081425 204.357544 
L 232.89714 207.353297 
L 233.712855 208.874652 
L 234.52857 216.32184 
L 235.344285 205.161464 
L 236.16 215.406714 
L 236.975715 173.410789 
L 237.79143 187.74561 
L 238.607145 184.185487 
L 239.42286 202.929331 
L 240.238575 201.020493 
L 241.05429 195.464974 
L 241.870005 188.711091 
L 242.68572 195.924655 
L 243.501434 184.554055 
L 244.317149 198.534788 
L 245.132864 197.360833 
L 245.948579 183.463583 
L 246.764294 195.51485 
L 247.580009 184.392101 
L 248.395724 188.107989 
L 249.211439 187.091858 
L 250.027154 183.333348 
L 250.842869 196.144843 
L 251.658584 193.902827 
L 252.474299 201.5442 
L 253.290014 161.841663 
L 254.105729 175.311845 
L 254.921444 173.435756 
L 255.737159 164.618571 
L 256.552873 176.172017 
L 257.368588 177.752851 
L 258.184303 191.34092 
L 259.000018 180.823037 
L 259.815733 184.866432 
L 260.631448 183.660835 
L 261.447163 178.948279 
L 262.262878 187.437409 
L 263.078593 170.185007 
L 263.894308 183.472083 
L 264.710023 182.418558 
L 265.525738 184.089721 
L 266.341453 188.614342 
L 267.157168 181.160093 
L 268.788598 196.525497 
L 269.604312 151.813614 
L 270.420027 162.394613 
L 271.235742 154.308416 
L 272.867172 171.286004 
L 273.682887 166.591719 
L 274.498602 175.16804 
L 275.314317 179.937796 
L 276.130032 169.027331 
L 276.945747 169.496905 
L 277.761462 170.387783 
L 278.577177 162.636136 
L 279.392892 169.453885 
L 280.208607 181.45004 
L 281.024322 182.368474 
L 281.840037 170.29918 
L 282.655751 177.871011 
L 283.471466 176.725285 
L 284.287181 175.870492 
L 285.102896 168.912274 
L 285.918611 157.441745 
L 286.734326 152.003539 
L 287.550041 160.586343 
L 288.365756 154.189582 
L 289.181471 163.174162 
L 289.997186 158.595591 
L 290.812901 169.787187 
L 291.628616 159.950387 
L 292.444331 161.942718 
L 293.260046 151.258046 
L 294.075761 156.238846 
L 294.891476 156.923943 
L 295.70719 150.944034 
L 296.522905 160.464888 
L 297.33862 158.006161 
L 298.154335 163.949849 
L 298.97005 161.525305 
L 299.785765 152.372748 
L 301.417195 161.730197 
L 302.23291 128.315347 
L 303.86434 136.552658 
L 304.680055 134.034313 
L 305.49577 152.18163 
L 306.311485 145.913271 
L 307.1272 126.450602 
L 307.942915 131.889245 
L 308.75863 133.323559 
L 309.574344 135.472804 
L 310.390059 125.85736 
L 311.205774 150.810871 
L 312.021489 152.499015 
L 312.837204 142.652138 
L 313.652919 146.932437 
L 314.468634 157.494433 
L 315.284349 152.01731 
L 316.100064 156.04885 
L 316.915779 143.948741 
L 317.731494 140.082014 
L 318.547209 118.07555 
L 319.362924 127.118763 
L 320.178639 127.256731 
L 320.994354 127.081079 
L 321.810069 126.306583 
L 322.625783 128.866183 
L 323.441498 130.146686 
L 324.257213 133.813334 
L 325.072928 126.26909 
L 325.888643 123.838581 
L 326.704358 136.02301 
L 327.520073 142.949746 
L 328.335788 136.536932 
L 329.151503 128.445782 
L 329.967218 128.27626 
L 330.782933 142.401906 
L 331.598648 126.989182 
L 332.414363 128.378397 
L 333.230078 128.744616 
L 334.045793 143.169346 
L 334.861508 110.623915 
L 335.677222 117.929398 
L 336.492937 116.666472 
L 337.308652 106.207927 
L 338.124367 107.766313 
L 338.940082 118.511114 
L 339.755797 108.770687 
L 340.571512 117.273858 
L 341.387227 116.083035 
L 342.202942 119.737193 
L 343.018657 122.489069 
L 343.834372 120.650333 
L 344.650087 119.537216 
L 345.465802 121.69598 
L 346.281517 109.151902 
L 347.097232 105.540877 
L 347.912947 110.21831 
L 348.728661 118.210063 
L 349.544376 119.151128 
L 350.360091 110.639943 
L 351.175806 87.093044 
L 351.991521 89.806087 
L 352.807236 105.014413 
L 353.622951 101.783002 
L 354.438666 96.493459 
L 355.254381 87.063241 
L 356.070096 103.440658 
L 356.885811 86.960942 
L 357.701526 88.250539 
L 358.517241 90.509906 
L 359.332956 107.245052 
L 360.148671 88.559852 
L 360.964386 115.66072 
L 361.780101 113.614268 
L 362.595815 115.849012 
L 363.41153 101.831687 
L 364.227245 107.288388 
L 365.04296 116.845536 
L 365.858675 95.405538 
L 366.67439 97.24148 
L 367.490105 53.568 
L 368.30582 87.671976 
L 369.121535 72.171759 
L 369.93725 80.015406 
L 370.752965 82.625663 
L 371.56868 83.145916 
L 372.384395 85.377833 
L 373.20011 85.408908 
L 374.015825 89.010003 
L 374.83154 91.965164 
L 375.647254 96.279479 
L 376.462969 98.90205 
L 377.278684 83.335571 
L 378.094399 100.128229 
L 378.910114 74.149837 
L 379.725829 82.271831 
L 380.541544 87.258905 
L 381.357259 89.120851 
L 382.172974 97.139906 
L 382.988689 81.553539 
L 383.804404 57.636091 
L 384.620119 83.729212 
L 385.435834 84.451198 
L 386.251549 66.96046 
L 387.067264 79.170893 
L 387.882979 71.039484 
L 388.698693 74.045784 
L 389.514408 78.600823 
L 391.145838 98.355055 
L 391.961553 54.801831 
L 392.777268 89.878456 
L 393.592983 70.066414 
L 394.408698 72.100877 
L 395.224413 68.744514 
L 396.040128 81.652958 
L 396.855843 85.191694 
L 397.671558 81.122609 
L 398.487273 81.053642 
L 398.487273 81.053642 
" clip-path="url(#p10f85b58fb)" style="fill: none; stroke: #1f77b4; stroke-width: 1.5; stroke-linecap: square"/>
   </g>
   <g id="patch_3">
    <path d="M 57.6 307.584 
L 57.6 41.472 
" style="fill: none; stroke: #000000; stroke-width: 0.8; stroke-linejoin: miter; stroke-linecap: square"/>
   </g>
   <g id="patch_4">
    <path d="M 414.72 307.584 
L 414.72 41.472 
" style="fill: none; stroke: #000000; stroke-width: 0.8; stroke-linejoin: miter; stroke-linecap: square"/>
   </g>
   <g id="patch_5">
    <path d="M 57.6 307.584 
L 414.72 307.584 
" style="fill: none; stroke: #000000; stroke-width: 0.8; stroke-linejoin: miter; stroke-linecap: square"/>
   </g>
   <g id="patch_6">
    <path d="M 57.6 41.472 
L 414.72 41.472 
" style="fill: none; stroke: #000000; stroke-width: 0.8; stroke-linejoin: miter; stroke-linecap: square"/>
   </g>
   <g id="text_19">
    <!-- Loss per Episode -->
    <g transform="translate(185.653125 35.472) scale(0.12 -0.12)">
     <defs>
      <path id="DejaVuSans-20" transform="scale(0.015625)"/>
      <path id="DejaVuSans-70" d="M 1159 525 
L 1159 -1331 
L 581 -1331 
L 581 3500 
L 1159 3500 
L 1159 2969 
Q 1341 3281 1617 3432 
Q 1894 3584 2278 3584 
Q 2916 3584 3314 3078 
Q 3713 2572 3713 1747 
Q 3713 922 3314 415 
Q 2916 -91 2278 -91 
Q 1894 -91 1617 61 
Q 1341 213 1159 525 
z
M 3116 1747 
Q 3116 2381 2855 2742 
Q 2594 3103 2138 3103 
Q 1681 3103 1420 2742 
Q 1159 2381 1159 1747 
Q 1159 1113 1420 752 
Q 1681 391 2138 391 
Q 2594 391 2855 752 
Q 3116 1113 3116 1747 
z
" transform="scale(0.015625)"/>
      <path id="DejaVuSans-65" d="M 3597 1894 
L 3597 1613 
L 953 1613 
Q 991 1019 1311 708 
Q 1631 397 2203 397 
Q 2534 397 2845 478 
Q 3156 559 3463 722 
L 3463 178 
Q 3153 47 2828 -22 
Q 2503 -91 2169 -91 
Q 1331 -91 842 396 
Q 353 884 353 1716 
Q 353 2575 817 3079 
Q 1281 3584 2069 3584 
Q 2775 3584 3186 3129 
Q 3597 2675 3597 1894 
z
M 3022 2063 
Q 3016 2534 2758 2815 
Q 2500 3097 2075 3097 
Q 1594 3097 1305 2825 
Q 1016 2553 972 2059 
L 3022 2063 
z
" transform="scale(0.015625)"/>
      <path id="DejaVuSans-72" d="M 2631 2963 
Q 2534 3019 2420 3045 
Q 2306 3072 2169 3072 
Q 1681 3072 1420 2755 
Q 1159 2438 1159 1844 
L 1159 0 
L 581 0 
L 581 3500 
L 1159 3500 
L 1159 2956 
Q 1341 3275 1631 3429 
Q 1922 3584 2338 3584 
Q 2397 3584 2469 3576 
Q 2541 3569 2628 3553 
L 2631 2963 
z
" transform="scale(0.015625)"/>
      <path id="DejaVuSans-45" d="M 628 4666 
L 3578 4666 
L 3578 4134 
L 1259 4134 
L 1259 2753 
L 3481 2753 
L 3481 2222 
L 1259 2222 
L 1259 531 
L 3634 531 
L 3634 0 
L 628 0 
L 628 4666 
z
" transform="scale(0.015625)"/>
      <path id="DejaVuSans-69" d="M 603 3500 
L 1178 3500 
L 1178 0 
L 603 0 
L 603 3500 
z
M 603 4863 
L 1178 4863 
L 1178 4134 
L 603 4134 
L 603 4863 
z
" transform="scale(0.015625)"/>
      <path id="DejaVuSans-64" d="M 2906 2969 
L 2906 4863 
L 3481 4863 
L 3481 0 
L 2906 0 
L 2906 525 
Q 2725 213 2448 61 
Q 2172 -91 1784 -91 
Q 1150 -91 751 415 
Q 353 922 353 1747 
Q 353 2572 751 3078 
Q 1150 3584 1784 3584 
Q 2172 3584 2448 3432 
Q 2725 3281 2906 2969 
z
M 947 1747 
Q 947 1113 1208 752 
Q 1469 391 1925 391 
Q 2381 391 2643 752 
Q 2906 1113 2906 1747 
Q 2906 2381 2643 2742 
Q 2381 3103 1925 3103 
Q 1469 3103 1208 2742 
Q 947 2381 947 1747 
z
" transform="scale(0.015625)"/>
     </defs>
     <use xlink:href="#DejaVuSans-4c"/>
     <use xlink:href="#DejaVuSans-6f" x="53.962891"/>
     <use xlink:href="#DejaVuSans-73" x="115.144531"/>
     <use xlink:href="#DejaVuSans-73" x="167.244141"/>
     <use xlink:href="#DejaVuSans-20" x="219.34375"/>
     <use xlink:href="#DejaVuSans-70" x="251.130859"/>
     <use xlink:href="#DejaVuSans-65" x="314.607422"/>
     <use xlink:href="#DejaVuSans-72" x="376.130859"/>
     <use xlink:href="#DejaVuSans-20" x="417.244141"/>
     <use xlink:href="#DejaVuSans-45" x="449.03125"/>
     <use xlink:href="#DejaVuSans-70" x="512.214844"/>
     <use xlink:href="#DejaVuSans-69" x="575.691406"/>
     <use xlink:href="#DejaVuSans-73" x="603.474609"/>
     <use xlink:href="#DejaVuSans-6f" x="655.574219"/>
     <use xlink:href="#DejaVuSans-64" x="716.755859"/>
     <use xlink:href="#DejaVuSans-65" x="780.232422"/>
    </g>
   </g>
   <g id="legend_1">
    <g id="patch_7">
     <path d="M 64.6 64.150125 
L 161.164062 64.150125 
Q 163.164062 64.150125 163.164062 62.150125 
L 163.164062 48.472 
Q 163.164062 46.472 161.164062 46.472 
L 64.6 46.472 
Q 62.6 46.472 62.6 48.472 
L 62.6 62.150125 
Q 62.6 64.150125 64.6 64.150125 
z
" style="fill: #ffffff; opacity: 0.8; stroke: #cccccc; stroke-linejoin: miter"/>
    </g>
    <g id="line2d_19">
     <path d="M 66.6 54.570438 
L 76.6 54.570438 
L 86.6 54.570438 
" style="fill: none; stroke: #1f77b4; stroke-width: 1.5; stroke-linecap: square"/>
    </g>
    <g id="text_20">
     <!-- Training Loss -->
     <g transform="translate(94.6 58.070438) scale(0.1 -0.1)">
      <defs>
       <path id="DejaVuSans-54" d="M -19 4666 
L 3928 4666 
L 3928 4134 
L 2272 4134 
L 2272 0 
L 1638 0 
L 1638 4134 
L -19 4134 
L -19 4666 
z
" transform="scale(0.015625)"/>
       <path id="DejaVuSans-61" d="M 2194 1759 
Q 1497 1759 1228 1600 
Q 959 1441 959 1056 
Q 959 750 1161 570 
Q 1363 391 1709 391 
Q 2188 391 2477 730 
Q 2766 1069 2766 1631 
L 2766 1759 
L 2194 1759 
z
M 3341 1997 
L 3341 0 
L 2766 0 
L 2766 531 
Q 2569 213 2275 61 
Q 1981 -91 1556 -91 
Q 1019 -91 701 211 
Q 384 513 384 1019 
Q 384 1609 779 1909 
Q 1175 2209 1959 2209 
L 2766 2209 
L 2766 2266 
Q 2766 2663 2505 2880 
Q 2244 3097 1772 3097 
Q 1472 3097 1187 3025 
Q 903 2953 641 2809 
L 641 3341 
Q 956 3463 1253 3523 
Q 1550 3584 1831 3584 
Q 2591 3584 2966 3190 
Q 3341 2797 3341 1997 
z
" transform="scale(0.015625)"/>
       <path id="DejaVuSans-6e" d="M 3513 2113 
L 3513 0 
L 2938 0 
L 2938 2094 
Q 2938 2591 2744 2837 
Q 2550 3084 2163 3084 
Q 1697 3084 1428 2787 
Q 1159 2491 1159 1978 
L 1159 0 
L 581 0 
L 581 3500 
L 1159 3500 
L 1159 2956 
Q 1366 3272 1645 3428 
Q 1925 3584 2291 3584 
Q 2894 3584 3203 3211 
Q 3513 2838 3513 2113 
z
" transform="scale(0.015625)"/>
       <path id="DejaVuSans-67" d="M 2906 1791 
Q 2906 2416 2648 2759 
Q 2391 3103 1925 3103 
Q 1463 3103 1205 2759 
Q 947 2416 947 1791 
Q 947 1169 1205 825 
Q 1463 481 1925 481 
Q 2391 481 2648 825 
Q 2906 1169 2906 1791 
z
M 3481 434 
Q 3481 -459 3084 -895 
Q 2688 -1331 1869 -1331 
Q 1566 -1331 1297 -1286 
Q 1028 -1241 775 -1147 
L 775 -588 
Q 1028 -725 1275 -790 
Q 1522 -856 1778 -856 
Q 2344 -856 2625 -561 
Q 2906 -266 2906 331 
L 2906 616 
Q 2728 306 2450 153 
Q 2172 0 1784 0 
Q 1141 0 747 490 
Q 353 981 353 1791 
Q 353 2603 747 3093 
Q 1141 3584 1784 3584 
Q 2172 3584 2450 3431 
Q 2728 3278 2906 2969 
L 2906 3500 
L 3481 3500 
L 3481 434 
z
" transform="scale(0.015625)"/>
      </defs>
      <use xlink:href="#DejaVuSans-54"/>
      <use xlink:href="#DejaVuSans-72" x="46.333984"/>
      <use xlink:href="#DejaVuSans-61" x="87.447266"/>
      <use xlink:href="#DejaVuSans-69" x="148.726562"/>
      <use xlink:href="#DejaVuSans-6e" x="176.509766"/>
      <use xlink:href="#DejaVuSans-69" x="239.888672"/>
      <use xlink:href="#DejaVuSans-6e" x="267.671875"/>
      <use xlink:href="#DejaVuSans-67" x="331.050781"/>
      <use xlink:href="#DejaVuSans-20" x="394.527344"/>
      <use xlink:href="#DejaVuSans-4c" x="426.314453"/>
      <use xlink:href="#DejaVuSans-6f" x="480.277344"/>
      <use xlink:href="#DejaVuSans-73" x="541.458984"/>
      <use xlink:href="#DejaVuSans-73" x="593.558594"/>
     </g>
    </g>
   </g>
  </g>
 </g>
 <defs>
  <clipPath id="p10f85b58fb">
   <rect x="57.6" y="41.472" width="357.12" height="266.112"/>
  </clipPath>
 </defs>
</svg>
