<?xml version="1.0" encoding="utf-8" standalone="no"?>
<!DOCTYPE svg PUBLIC "-//W3C//DTD SVG 1.1//EN"
  "http://www.w3.org/Graphics/SVG/1.1/DTD/svg11.dtd">
<svg xmlns:xlink="http://www.w3.org/1999/xlink" width="460.8pt" height="345.6pt" viewBox="0 0 460.8 345.6" xmlns="http://www.w3.org/2000/svg" version="1.1">
 <metadata>
  <rdf:RDF xmlns:dc="http://purl.org/dc/elements/1.1/" xmlns:cc="http://creativecommons.org/ns#" xmlns:rdf="http://www.w3.org/1999/02/22-rdf-syntax-ns#">
   <cc:Work>
    <dc:type rdf:resource="http://purl.org/dc/dcmitype/StillImage"/>
    <dc:date>2024-03-22T18:12:44.101938</dc:date>
    <dc:format>image/svg+xml</dc:format>
    <dc:creator>
     <cc:Agent>
      <dc:title>Matplotlib v3.8.0, https://matplotlib.org/</dc:title>
     </cc:Agent>
    </dc:creator>
   </cc:Work>
  </rdf:RDF>
 </metadata>
 <defs>
  <style type="text/css">*{stroke-linejoin: round; stroke-linecap: butt}</style>
 </defs>
 <g id="figure_1">
  <g id="patch_1">
   <path d="M 0 345.6 
L 460.8 345.6 
L 460.8 0 
L 0 0 
z
" style="fill: #ffffff"/>
  </g>
  <g id="axes_1">
   <g id="patch_2">
    <path d="M 57.6 307.584 
L 414.72 307.584 
L 414.72 41.472 
L 57.6 41.472 
z
" style="fill: #ffffff"/>
   </g>
   <g id="matplotlib.axis_1">
    <g id="xtick_1">
     <g id="line2d_1">
      <defs>
       <path id="mb21d2d0928" d="M 0 0 
L 0 3.5 
" style="stroke: #000000; stroke-width: 0.8"/>
      </defs>
      <g>
       <use xlink:href="#mb21d2d0928" x="73.832727" y="307.584" style="stroke: #000000; stroke-width: 0.8"/>
      </g>
     </g>
     <g id="text_1">
      <!-- 0 -->
      <g transform="translate(70.651477 322.182437) scale(0.1 -0.1)">
       <defs>
        <path id="DejaVuSans-30" d="M 2034 4250 
Q 1547 4250 1301 3770 
Q 1056 3291 1056 2328 
Q 1056 1369 1301 889 
Q 1547 409 2034 409 
Q 2525 409 2770 889 
Q 3016 1369 3016 2328 
Q 3016 3291 2770 3770 
Q 2525 4250 2034 4250 
z
M 2034 4750 
Q 2819 4750 3233 4129 
Q 3647 3509 3647 2328 
Q 3647 1150 3233 529 
Q 2819 -91 2034 -91 
Q 1250 -91 836 529 
Q 422 1150 422 2328 
Q 422 3509 836 4129 
Q 1250 4750 2034 4750 
z
" transform="scale(0.015625)"/>
       </defs>
       <use xlink:href="#DejaVuSans-30"/>
      </g>
     </g>
    </g>
    <g id="xtick_2">
     <g id="line2d_2">
      <g>
       <use xlink:href="#mb21d2d0928" x="128.032151" y="307.584" style="stroke: #000000; stroke-width: 0.8"/>
      </g>
     </g>
     <g id="text_2">
      <!-- 100 -->
      <g transform="translate(118.488401 322.182437) scale(0.1 -0.1)">
       <defs>
        <path id="DejaVuSans-31" d="M 794 531 
L 1825 531 
L 1825 4091 
L 703 3866 
L 703 4441 
L 1819 4666 
L 2450 4666 
L 2450 531 
L 3481 531 
L 3481 0 
L 794 0 
L 794 531 
z
" transform="scale(0.015625)"/>
       </defs>
       <use xlink:href="#DejaVuSans-31"/>
       <use xlink:href="#DejaVuSans-30" x="63.623047"/>
       <use xlink:href="#DejaVuSans-30" x="127.246094"/>
      </g>
     </g>
    </g>
    <g id="xtick_3">
     <g id="line2d_3">
      <g>
       <use xlink:href="#mb21d2d0928" x="182.231574" y="307.584" style="stroke: #000000; stroke-width: 0.8"/>
      </g>
     </g>
     <g id="text_3">
      <!-- 200 -->
      <g transform="translate(172.687824 322.182437) scale(0.1 -0.1)">
       <defs>
        <path id="DejaVuSans-32" d="M 1228 531 
L 3431 531 
L 3431 0 
L 469 0 
L 469 531 
Q 828 903 1448 1529 
Q 2069 2156 2228 2338 
Q 2531 2678 2651 2914 
Q 2772 3150 2772 3378 
Q 2772 3750 2511 3984 
Q 2250 4219 1831 4219 
Q 1534 4219 1204 4116 
Q 875 4013 500 3803 
L 500 4441 
Q 881 4594 1212 4672 
Q 1544 4750 1819 4750 
Q 2544 4750 2975 4387 
Q 3406 4025 3406 3419 
Q 3406 3131 3298 2873 
Q 3191 2616 2906 2266 
Q 2828 2175 2409 1742 
Q 1991 1309 1228 531 
z
" transform="scale(0.015625)"/>
       </defs>
       <use xlink:href="#DejaVuSans-32"/>
       <use xlink:href="#DejaVuSans-30" x="63.623047"/>
       <use xlink:href="#DejaVuSans-30" x="127.246094"/>
      </g>
     </g>
    </g>
    <g id="xtick_4">
     <g id="line2d_4">
      <g>
       <use xlink:href="#mb21d2d0928" x="236.430997" y="307.584" style="stroke: #000000; stroke-width: 0.8"/>
      </g>
     </g>
     <g id="text_4">
      <!-- 300 -->
      <g transform="translate(226.887247 322.182437) scale(0.1 -0.1)">
       <defs>
        <path id="DejaVuSans-33" d="M 2597 2516 
Q 3050 2419 3304 2112 
Q 3559 1806 3559 1356 
Q 3559 666 3084 287 
Q 2609 -91 1734 -91 
Q 1441 -91 1130 -33 
Q 819 25 488 141 
L 488 750 
Q 750 597 1062 519 
Q 1375 441 1716 441 
Q 2309 441 2620 675 
Q 2931 909 2931 1356 
Q 2931 1769 2642 2001 
Q 2353 2234 1838 2234 
L 1294 2234 
L 1294 2753 
L 1863 2753 
Q 2328 2753 2575 2939 
Q 2822 3125 2822 3475 
Q 2822 3834 2567 4026 
Q 2313 4219 1838 4219 
Q 1578 4219 1281 4162 
Q 984 4106 628 3988 
L 628 4550 
Q 988 4650 1302 4700 
Q 1616 4750 1894 4750 
Q 2613 4750 3031 4423 
Q 3450 4097 3450 3541 
Q 3450 3153 3228 2886 
Q 3006 2619 2597 2516 
z
" transform="scale(0.015625)"/>
       </defs>
       <use xlink:href="#DejaVuSans-33"/>
       <use xlink:href="#DejaVuSans-30" x="63.623047"/>
       <use xlink:href="#DejaVuSans-30" x="127.246094"/>
      </g>
     </g>
    </g>
    <g id="xtick_5">
     <g id="line2d_5">
      <g>
       <use xlink:href="#mb21d2d0928" x="290.63042" y="307.584" style="stroke: #000000; stroke-width: 0.8"/>
      </g>
     </g>
     <g id="text_5">
      <!-- 400 -->
      <g transform="translate(281.08667 322.182437) scale(0.1 -0.1)">
       <defs>
        <path id="DejaVuSans-34" d="M 2419 4116 
L 825 1625 
L 2419 1625 
L 2419 4116 
z
M 2253 4666 
L 3047 4666 
L 3047 1625 
L 3713 1625 
L 3713 1100 
L 3047 1100 
L 3047 0 
L 2419 0 
L 2419 1100 
L 313 1100 
L 313 1709 
L 2253 4666 
z
" transform="scale(0.015625)"/>
       </defs>
       <use xlink:href="#DejaVuSans-34"/>
       <use xlink:href="#DejaVuSans-30" x="63.623047"/>
       <use xlink:href="#DejaVuSans-30" x="127.246094"/>
      </g>
     </g>
    </g>
    <g id="xtick_6">
     <g id="line2d_6">
      <g>
       <use xlink:href="#mb21d2d0928" x="344.829844" y="307.584" style="stroke: #000000; stroke-width: 0.8"/>
      </g>
     </g>
     <g id="text_6">
      <!-- 500 -->
      <g transform="translate(335.286094 322.182437) scale(0.1 -0.1)">
       <defs>
        <path id="DejaVuSans-35" d="M 691 4666 
L 3169 4666 
L 3169 4134 
L 1269 4134 
L 1269 2991 
Q 1406 3038 1543 3061 
Q 1681 3084 1819 3084 
Q 2600 3084 3056 2656 
Q 3513 2228 3513 1497 
Q 3513 744 3044 326 
Q 2575 -91 1722 -91 
Q 1428 -91 1123 -41 
Q 819 9 494 109 
L 494 744 
Q 775 591 1075 516 
Q 1375 441 1709 441 
Q 2250 441 2565 725 
Q 2881 1009 2881 1497 
Q 2881 1984 2565 2268 
Q 2250 2553 1709 2553 
Q 1456 2553 1204 2497 
Q 953 2441 691 2322 
L 691 4666 
z
" transform="scale(0.015625)"/>
       </defs>
       <use xlink:href="#DejaVuSans-35"/>
       <use xlink:href="#DejaVuSans-30" x="63.623047"/>
       <use xlink:href="#DejaVuSans-30" x="127.246094"/>
      </g>
     </g>
    </g>
    <g id="xtick_7">
     <g id="line2d_7">
      <g>
       <use xlink:href="#mb21d2d0928" x="399.029267" y="307.584" style="stroke: #000000; stroke-width: 0.8"/>
      </g>
     </g>
     <g id="text_7">
      <!-- 600 -->
      <g transform="translate(389.485517 322.182437) scale(0.1 -0.1)">
       <defs>
        <path id="DejaVuSans-36" d="M 2113 2584 
Q 1688 2584 1439 2293 
Q 1191 2003 1191 1497 
Q 1191 994 1439 701 
Q 1688 409 2113 409 
Q 2538 409 2786 701 
Q 3034 994 3034 1497 
Q 3034 2003 2786 2293 
Q 2538 2584 2113 2584 
z
M 3366 4563 
L 3366 3988 
Q 3128 4100 2886 4159 
Q 2644 4219 2406 4219 
Q 1781 4219 1451 3797 
Q 1122 3375 1075 2522 
Q 1259 2794 1537 2939 
Q 1816 3084 2150 3084 
Q 2853 3084 3261 2657 
Q 3669 2231 3669 1497 
Q 3669 778 3244 343 
Q 2819 -91 2113 -91 
Q 1303 -91 875 529 
Q 447 1150 447 2328 
Q 447 3434 972 4092 
Q 1497 4750 2381 4750 
Q 2619 4750 2861 4703 
Q 3103 4656 3366 4563 
z
" transform="scale(0.015625)"/>
       </defs>
       <use xlink:href="#DejaVuSans-36"/>
       <use xlink:href="#DejaVuSans-30" x="63.623047"/>
       <use xlink:href="#DejaVuSans-30" x="127.246094"/>
      </g>
     </g>
    </g>
   </g>
   <g id="matplotlib.axis_2">
    <g id="ytick_1">
     <g id="line2d_8">
      <defs>
       <path id="m28add09dc3" d="M 0 0 
L -3.5 0 
" style="stroke: #000000; stroke-width: 0.8"/>
      </defs>
      <g>
       <use xlink:href="#m28add09dc3" x="57.6" y="290.036297" style="stroke: #000000; stroke-width: 0.8"/>
      </g>
     </g>
     <g id="text_8">
      <!-- 200 -->
      <g transform="translate(31.5125 293.835516) scale(0.1 -0.1)">
       <use xlink:href="#DejaVuSans-32"/>
       <use xlink:href="#DejaVuSans-30" x="63.623047"/>
       <use xlink:href="#DejaVuSans-30" x="127.246094"/>
      </g>
     </g>
    </g>
    <g id="ytick_2">
     <g id="line2d_9">
      <g>
       <use xlink:href="#m28add09dc3" x="57.6" y="245.616266" style="stroke: #000000; stroke-width: 0.8"/>
      </g>
     </g>
     <g id="text_9">
      <!-- 400 -->
      <g transform="translate(31.5125 249.415484) scale(0.1 -0.1)">
       <use xlink:href="#DejaVuSans-34"/>
       <use xlink:href="#DejaVuSans-30" x="63.623047"/>
       <use xlink:href="#DejaVuSans-30" x="127.246094"/>
      </g>
     </g>
    </g>
    <g id="ytick_3">
     <g id="line2d_10">
      <g>
       <use xlink:href="#m28add09dc3" x="57.6" y="201.196234" style="stroke: #000000; stroke-width: 0.8"/>
      </g>
     </g>
     <g id="text_10">
      <!-- 600 -->
      <g transform="translate(31.5125 204.995453) scale(0.1 -0.1)">
       <use xlink:href="#DejaVuSans-36"/>
       <use xlink:href="#DejaVuSans-30" x="63.623047"/>
       <use xlink:href="#DejaVuSans-30" x="127.246094"/>
      </g>
     </g>
    </g>
    <g id="ytick_4">
     <g id="line2d_11">
      <g>
       <use xlink:href="#m28add09dc3" x="57.6" y="156.776203" style="stroke: #000000; stroke-width: 0.8"/>
      </g>
     </g>
     <g id="text_11">
      <!-- 800 -->
      <g transform="translate(31.5125 160.575421) scale(0.1 -0.1)">
       <defs>
        <path id="DejaVuSans-38" d="M 2034 2216 
Q 1584 2216 1326 1975 
Q 1069 1734 1069 1313 
Q 1069 891 1326 650 
Q 1584 409 2034 409 
Q 2484 409 2743 651 
Q 3003 894 3003 1313 
Q 3003 1734 2745 1975 
Q 2488 2216 2034 2216 
z
M 1403 2484 
Q 997 2584 770 2862 
Q 544 3141 544 3541 
Q 544 4100 942 4425 
Q 1341 4750 2034 4750 
Q 2731 4750 3128 4425 
Q 3525 4100 3525 3541 
Q 3525 3141 3298 2862 
Q 3072 2584 2669 2484 
Q 3125 2378 3379 2068 
Q 3634 1759 3634 1313 
Q 3634 634 3220 271 
Q 2806 -91 2034 -91 
Q 1263 -91 848 271 
Q 434 634 434 1313 
Q 434 1759 690 2068 
Q 947 2378 1403 2484 
z
M 1172 3481 
Q 1172 3119 1398 2916 
Q 1625 2713 2034 2713 
Q 2441 2713 2670 2916 
Q 2900 3119 2900 3481 
Q 2900 3844 2670 4047 
Q 2441 4250 2034 4250 
Q 1625 4250 1398 4047 
Q 1172 3844 1172 3481 
z
" transform="scale(0.015625)"/>
       </defs>
       <use xlink:href="#DejaVuSans-38"/>
       <use xlink:href="#DejaVuSans-30" x="63.623047"/>
       <use xlink:href="#DejaVuSans-30" x="127.246094"/>
      </g>
     </g>
    </g>
    <g id="ytick_5">
     <g id="line2d_12">
      <g>
       <use xlink:href="#m28add09dc3" x="57.6" y="112.356171" style="stroke: #000000; stroke-width: 0.8"/>
      </g>
     </g>
     <g id="text_12">
      <!-- 1000 -->
      <g transform="translate(25.15 116.15539) scale(0.1 -0.1)">
       <use xlink:href="#DejaVuSans-31"/>
       <use xlink:href="#DejaVuSans-30" x="63.623047"/>
       <use xlink:href="#DejaVuSans-30" x="127.246094"/>
       <use xlink:href="#DejaVuSans-30" x="190.869141"/>
      </g>
     </g>
    </g>
    <g id="ytick_6">
     <g id="line2d_13">
      <g>
       <use xlink:href="#m28add09dc3" x="57.6" y="67.93614" style="stroke: #000000; stroke-width: 0.8"/>
      </g>
     </g>
     <g id="text_13">
      <!-- 1200 -->
      <g transform="translate(25.15 71.735358) scale(0.1 -0.1)">
       <use xlink:href="#DejaVuSans-31"/>
       <use xlink:href="#DejaVuSans-32" x="63.623047"/>
       <use xlink:href="#DejaVuSans-30" x="127.246094"/>
       <use xlink:href="#DejaVuSans-30" x="190.869141"/>
      </g>
     </g>
    </g>
    <g id="text_14">
     <!-- Loss -->
     <g transform="translate(19.070312 185.495187) rotate(-90) scale(0.1 -0.1)">
      <defs>
       <path id="DejaVuSans-4c" d="M 628 4666 
L 1259 4666 
L 1259 531 
L 3531 531 
L 3531 0 
L 628 0 
L 628 4666 
z
" transform="scale(0.015625)"/>
       <path id="DejaVuSans-6f" d="M 1959 3097 
Q 1497 3097 1228 2736 
Q 959 2375 959 1747 
Q 959 1119 1226 758 
Q 1494 397 1959 397 
Q 2419 397 2687 759 
Q 2956 1122 2956 1747 
Q 2956 2369 2687 2733 
Q 2419 3097 1959 3097 
z
M 1959 3584 
Q 2709 3584 3137 3096 
Q 3566 2609 3566 1747 
Q 3566 888 3137 398 
Q 2709 -91 1959 -91 
Q 1206 -91 779 398 
Q 353 888 353 1747 
Q 353 2609 779 3096 
Q 1206 3584 1959 3584 
z
" transform="scale(0.015625)"/>
       <path id="DejaVuSans-73" d="M 2834 3397 
L 2834 2853 
Q 2591 2978 2328 3040 
Q 2066 3103 1784 3103 
Q 1356 3103 1142 2972 
Q 928 2841 928 2578 
Q 928 2378 1081 2264 
Q 1234 2150 1697 2047 
L 1894 2003 
Q 2506 1872 2764 1633 
Q 3022 1394 3022 966 
Q 3022 478 2636 193 
Q 2250 -91 1575 -91 
Q 1294 -91 989 -36 
Q 684 19 347 128 
L 347 722 
Q 666 556 975 473 
Q 1284 391 1588 391 
Q 1994 391 2212 530 
Q 2431 669 2431 922 
Q 2431 1156 2273 1281 
Q 2116 1406 1581 1522 
L 1381 1569 
Q 847 1681 609 1914 
Q 372 2147 372 2553 
Q 372 3047 722 3315 
Q 1072 3584 1716 3584 
Q 2034 3584 2315 3537 
Q 2597 3491 2834 3397 
z
" transform="scale(0.015625)"/>
      </defs>
      <use xlink:href="#DejaVuSans-4c"/>
      <use xlink:href="#DejaVuSans-6f" x="53.962891"/>
      <use xlink:href="#DejaVuSans-73" x="115.144531"/>
      <use xlink:href="#DejaVuSans-73" x="167.244141"/>
     </g>
    </g>
   </g>
   <g id="line2d_14">
    <path d="M 73.832727 250.90755 
L 74.374722 283.486082 
L 74.916716 295.488 
L 75.45871 280.091732 
L 76.000704 282.22743 
L 76.542698 288.090084 
L 77.084693 292.605916 
L 77.626687 288.599827 
L 78.168681 273.213804 
L 78.710675 265.720769 
L 79.25267 259.797832 
L 79.794664 264.563248 
L 80.336658 262.457127 
L 80.878652 273.712172 
L 81.420647 272.225494 
L 81.962641 276.62039 
L 82.504635 278.356852 
L 83.046629 275.259485 
L 83.588623 275.604782 
L 84.130618 276.991341 
L 84.672612 271.110751 
L 85.214606 269.725378 
L 85.7566 270.981425 
L 86.298595 268.988104 
L 86.840589 269.771689 
L 87.382583 272.170355 
L 87.924577 275.191827 
L 88.466572 269.801204 
L 89.008566 270.365241 
L 90.092554 258.983844 
L 90.634548 249.094301 
L 91.176543 255.869501 
L 91.718537 249.411215 
L 92.260531 257.873971 
L 92.802525 253.647186 
L 93.34452 259.863754 
L 93.886514 257.427392 
L 94.428508 265.095747 
L 94.970502 260.904488 
L 95.512497 259.97926 
L 96.054491 262.432128 
L 96.596485 268.168668 
L 97.138479 264.848096 
L 97.680474 265.269568 
L 98.222468 262.470033 
L 98.764462 268.079162 
L 99.306456 265.697495 
L 99.84845 261.938314 
L 100.390445 263.778775 
L 100.932439 266.066704 
L 101.474433 271.656689 
L 102.016427 268.809025 
L 102.558422 271.879758 
L 103.100416 272.647741 
L 104.184404 269.234441 
L 104.726399 271.565376 
L 105.268393 270.785012 
L 105.810387 271.997714 
L 106.352381 271.593262 
L 106.894375 265.115806 
L 107.43637 269.268476 
L 107.978364 267.263317 
L 108.520358 270.935835 
L 109.062352 273.015509 
L 109.604347 268.879633 
L 110.688335 270.28885 
L 111.230329 273.212298 
L 111.772324 274.048711 
L 112.314318 275.228633 
L 112.856312 274.993382 
L 113.398306 271.590685 
L 113.940301 276.242755 
L 114.482295 273.739069 
L 115.024289 277.895814 
L 115.566283 271.181804 
L 116.108277 274.944248 
L 116.650272 272.125499 
L 117.73426 276.040565 
L 118.276254 272.051562 
L 118.818249 275.758912 
L 119.360243 271.793261 
L 119.902237 272.892594 
L 120.444231 276.143232 
L 120.986226 276.187741 
L 121.52822 276.646126 
L 122.070214 275.260117 
L 122.612208 275.339495 
L 123.154202 263.930901 
L 123.696197 268.619172 
L 124.238191 269.71874 
L 124.780185 272.017258 
L 125.322179 272.138048 
L 125.864174 275.833929 
L 126.406168 268.406808 
L 126.948162 267.677856 
L 127.490156 268.85419 
L 128.032151 268.104831 
L 128.574145 272.877285 
L 129.116139 270.028868 
L 129.658133 262.2186 
L 130.200127 266.541735 
L 130.742122 275.097502 
L 131.284116 268.692967 
L 131.82611 267.771605 
L 132.368104 266.252066 
L 132.910099 267.857075 
L 133.452093 266.807044 
L 134.536081 267.175118 
L 135.078076 265.722539 
L 135.62007 271.402513 
L 136.162064 272.761813 
L 136.704058 272.50794 
L 137.246053 265.567723 
L 137.788047 269.683508 
L 138.330041 274.743509 
L 138.872035 273.380412 
L 139.414029 256.368843 
L 139.956024 261.140507 
L 140.498018 261.462859 
L 141.040012 262.631183 
L 141.582006 255.880856 
L 142.124001 262.455069 
L 142.665995 258.103776 
L 143.207989 263.115923 
L 143.749983 260.666333 
L 144.291978 260.285115 
L 144.833972 261.602705 
L 145.375966 260.119912 
L 145.91796 260.473104 
L 146.459954 259.8123 
L 147.001949 257.049455 
L 147.543943 262.198018 
L 148.085937 261.247587 
L 148.627931 265.198562 
L 149.169926 265.975343 
L 149.71192 262.426303 
L 150.253914 262.007361 
L 150.795908 262.695506 
L 151.337903 258.840768 
L 151.879897 263.663723 
L 152.421891 262.898898 
L 152.963885 259.389653 
L 153.505879 263.150754 
L 154.589868 260.525804 
L 155.131862 260.583802 
L 155.673856 248.593539 
L 156.215851 247.177036 
L 156.757845 247.536687 
L 157.299839 256.809578 
L 157.841833 251.753022 
L 158.383828 252.823123 
L 158.925822 252.337407 
L 159.467816 254.073504 
L 160.00981 259.105927 
L 160.551805 255.226002 
L 161.093799 253.771739 
L 161.635793 250.899413 
L 162.177787 258.134169 
L 162.719781 253.957207 
L 163.261776 254.602789 
L 163.80377 256.455153 
L 164.345764 256.681241 
L 164.887758 253.57276 
L 165.971747 257.459423 
L 166.513741 258.401297 
L 167.055735 255.224532 
L 167.59773 244.02428 
L 168.139724 248.945217 
L 168.681718 252.407847 
L 169.223712 254.497491 
L 169.765706 253.261161 
L 170.307701 255.725693 
L 170.849695 245.614249 
L 171.391689 260.987364 
L 171.933683 241.706515 
L 172.475678 241.990088 
L 173.017672 234.288437 
L 173.559666 235.627807 
L 174.10166 247.86646 
L 175.185649 238.099995 
L 175.727643 246.536615 
L 176.269637 244.096666 
L 176.811632 239.522852 
L 177.353626 238.772014 
L 177.89562 243.933304 
L 178.437614 233.869967 
L 178.979608 247.707024 
L 179.521603 241.486715 
L 180.063597 245.399879 
L 180.605591 246.023867 
L 181.147585 230.153097 
L 181.68958 240.066467 
L 182.231574 244.386573 
L 182.773568 251.662507 
L 183.315562 248.376538 
L 183.857557 243.896121 
L 184.399551 247.969749 
L 186.025533 237.098829 
L 186.567528 242.652438 
L 187.109522 241.515401 
L 187.651516 247.254738 
L 188.19351 229.330088 
L 188.735505 227.403369 
L 189.277499 226.470333 
L 189.819493 226.614159 
L 190.361487 234.236222 
L 190.903482 231.709713 
L 191.445476 223.843368 
L 191.98747 235.046457 
L 192.529464 239.874514 
L 193.071458 226.423192 
L 193.613453 233.426844 
L 194.155447 233.489257 
L 194.697441 231.630839 
L 195.239435 233.696365 
L 195.78143 221.703915 
L 196.323424 230.690047 
L 196.865418 229.892064 
L 197.407412 232.604098 
L 197.949407 223.492838 
L 198.491401 232.472699 
L 199.033395 238.67474 
L 199.575389 235.716496 
L 200.117384 234.640023 
L 201.201372 225.632919 
L 201.743366 231.591043 
L 202.28536 226.542668 
L 202.827355 232.125731 
L 203.369349 235.958461 
L 203.911343 230.325431 
L 204.453337 210.951371 
L 204.995332 220.151015 
L 205.537326 213.737793 
L 206.07932 216.010473 
L 206.621314 217.060902 
L 207.163309 220.974366 
L 207.705303 223.3805 
L 208.247297 210.445519 
L 208.789291 217.334136 
L 209.331285 212.976774 
L 209.87328 218.429287 
L 210.415274 225.63602 
L 210.957268 219.787283 
L 211.499262 224.317527 
L 212.041257 222.759706 
L 212.583251 218.842301 
L 213.125245 212.082795 
L 213.667239 225.998759 
L 214.209234 216.003974 
L 214.751228 218.647841 
L 215.293222 219.329848 
L 215.835216 214.223928 
L 216.377211 225.844473 
L 216.919205 227.391499 
L 217.461199 227.987278 
L 218.003193 220.018778 
L 218.545187 225.981523 
L 219.087182 217.50465 
L 219.629176 218.297243 
L 220.17117 219.989656 
L 220.713164 206.330333 
L 221.255159 199.87931 
L 221.797153 204.821696 
L 222.339147 211.080465 
L 222.881141 192.869848 
L 223.423136 204.729402 
L 223.96513 213.221954 
L 224.507124 215.332497 
L 225.049118 202.738168 
L 225.591112 205.62885 
L 226.133107 205.802075 
L 226.675101 200.72391 
L 227.217095 203.070448 
L 227.759089 204.727875 
L 228.301084 209.984148 
L 228.843078 203.957168 
L 229.385072 214.336588 
L 229.927066 195.426954 
L 230.469061 217.365079 
L 231.011055 201.063312 
L 231.553049 205.771538 
L 232.095043 214.703012 
L 232.637037 218.532714 
L 234.26302 200.576523 
L 234.805014 210.015426 
L 235.347009 209.281322 
L 235.889003 215.504422 
L 236.430997 208.534595 
L 236.972991 186.648388 
L 237.514986 193.710816 
L 238.05698 204.987725 
L 238.598974 179.742452 
L 239.140968 200.087667 
L 239.682963 198.994749 
L 240.224957 198.858887 
L 240.766951 189.954286 
L 241.308945 191.954049 
L 241.850939 174.565149 
L 242.392934 195.838643 
L 242.934928 199.446575 
L 243.476922 195.862018 
L 244.018916 200.900767 
L 244.560911 196.113865 
L 245.102905 193.072255 
L 245.644899 191.262081 
L 246.186893 201.785259 
L 246.728888 194.920618 
L 247.270882 193.113899 
L 247.812876 199.041287 
L 248.35487 200.369497 
L 248.896864 198.559599 
L 249.438859 201.37648 
L 249.980853 199.510663 
L 250.522847 200.996479 
L 251.064841 203.037717 
L 251.606836 194.891067 
L 252.14883 198.368351 
L 252.690824 197.524821 
L 253.232818 171.660859 
L 253.774813 186.876174 
L 254.316807 180.467504 
L 254.858801 177.27375 
L 255.400795 181.954474 
L 255.942789 179.681139 
L 256.484784 190.566515 
L 257.026778 179.399403 
L 257.568772 189.087552 
L 258.110766 172.768219 
L 258.652761 187.419575 
L 259.194755 184.516606 
L 259.736749 190.583312 
L 260.278743 187.925069 
L 260.820738 195.018711 
L 261.362732 190.087395 
L 261.904726 176.771768 
L 262.44672 195.549894 
L 263.530709 180.149874 
L 264.072703 186.76573 
L 264.614697 183.088556 
L 265.156691 186.395799 
L 265.698686 184.542371 
L 266.24068 194.868175 
L 266.782674 188.64544 
L 267.324668 196.557216 
L 267.866663 188.50802 
L 268.408657 189.704481 
L 270.03464 165.679067 
L 270.576634 164.884091 
L 271.660622 177.242091 
L 272.202616 173.636591 
L 272.744611 179.459975 
L 273.286605 171.741551 
L 273.828599 166.373006 
L 274.912588 170.193978 
L 275.996576 178.45327 
L 276.53857 176.453391 
L 277.080565 162.942781 
L 277.622559 174.394822 
L 278.164553 175.840612 
L 278.706547 170.258626 
L 279.248542 171.210698 
L 279.790536 173.975516 
L 280.33253 174.113147 
L 280.874524 171.14284 
L 281.416518 177.650469 
L 281.958513 172.255352 
L 282.500507 180.175957 
L 283.042501 179.464144 
L 283.584495 175.120801 
L 284.12649 158.730517 
L 284.668484 177.59529 
L 285.210478 166.2395 
L 285.752472 158.876901 
L 286.294467 146.516511 
L 286.836461 155.814697 
L 287.378455 148.379087 
L 287.920449 158.33862 
L 288.462443 154.24192 
L 289.004438 158.262822 
L 289.546432 161.351377 
L 290.088426 162.533749 
L 290.63042 150.184488 
L 291.172415 156.248132 
L 291.714409 154.101889 
L 292.256403 146.256497 
L 292.798397 154.469504 
L 293.340392 151.892625 
L 293.882386 164.963624 
L 294.42438 145.9432 
L 294.966374 138.278023 
L 295.508368 171.598447 
L 296.050363 154.925479 
L 296.592357 150.363349 
L 297.134351 155.50532 
L 297.676345 156.612113 
L 298.21834 155.749469 
L 298.760334 163.286748 
L 299.302328 156.757474 
L 299.844322 159.613009 
L 300.386317 153.724034 
L 300.928311 154.72068 
L 301.470305 166.557297 
L 302.012299 146.776974 
L 302.554294 140.858769 
L 303.096288 151.626881 
L 303.638282 144.447654 
L 304.180276 135.431878 
L 304.72227 151.58718 
L 305.264265 147.993707 
L 305.806259 159.260493 
L 306.348253 148.738397 
L 306.890247 142.332931 
L 307.432242 152.160454 
L 307.974236 138.81335 
L 308.51623 152.418585 
L 309.058224 148.129753 
L 309.600219 141.88928 
L 310.142213 150.954397 
L 310.684207 143.547721 
L 311.226201 152.514491 
L 311.768195 141.383765 
L 312.31019 152.600449 
L 312.852184 156.905298 
L 313.394178 145.416468 
L 313.936172 149.257386 
L 314.478167 141.198629 
L 315.020161 152.13127 
L 315.562155 148.001176 
L 316.104149 146.763239 
L 316.646144 137.284355 
L 317.188138 160.695007 
L 318.272126 133.75528 
L 318.814121 123.616186 
L 319.356115 128.176091 
L 319.898109 120.946536 
L 320.440103 132.043689 
L 320.982097 132.754478 
L 321.524092 122.177446 
L 322.066086 127.048701 
L 322.60808 135.627337 
L 323.692069 138.427079 
L 324.234063 131.413416 
L 325.318051 138.439103 
L 325.860046 128.868339 
L 326.40204 130.157759 
L 326.944034 121.394032 
L 327.486028 120.580965 
L 328.570017 140.376895 
L 329.112011 137.695483 
L 329.654005 135.946697 
L 330.195999 125.954312 
L 330.737994 127.070476 
L 331.279988 131.312265 
L 331.821982 142.786711 
L 332.363976 127.812625 
L 332.905971 127.968839 
L 333.447965 128.6375 
L 333.989959 127.182529 
L 334.531953 119.05622 
L 335.073947 108.709358 
L 335.615942 108.024513 
L 336.157936 98.484511 
L 336.69993 118.481175 
L 337.241924 115.008343 
L 337.783919 127.528629 
L 338.325913 123.553405 
L 338.867907 114.890089 
L 339.409901 114.929503 
L 339.951896 109.311927 
L 340.49389 122.81419 
L 341.035884 107.886876 
L 341.577878 136.105943 
L 342.119873 117.821026 
L 342.661867 127.431078 
L 343.203861 117.588662 
L 343.745855 133.929176 
L 344.287849 117.778047 
L 344.829844 119.698439 
L 345.371838 110.771544 
L 345.913832 131.00805 
L 346.455826 123.594065 
L 346.997821 127.912137 
L 347.539815 126.302184 
L 348.081809 116.766191 
L 348.623803 131.780634 
L 349.165798 118.442318 
L 349.707792 129.347499 
L 350.249786 137.358261 
L 350.79178 114.52899 
L 351.333774 113.960729 
L 351.875769 109.813386 
L 352.417763 106.724786 
L 352.959757 99.850029 
L 353.501751 103.720317 
L 354.043746 102.231283 
L 354.58574 108.687119 
L 355.127734 106.525119 
L 355.669728 105.288936 
L 356.211723 110.106207 
L 356.753717 112.309682 
L 357.295711 111.917748 
L 358.379699 112.046666 
L 358.921694 110.589703 
L 359.463688 123.028163 
L 360.005682 103.538242 
L 360.547676 91.084104 
L 361.089671 122.646734 
L 361.631665 103.415227 
L 362.173659 113.809993 
L 362.715653 96.109161 
L 363.257648 97.018709 
L 363.799642 89.978326 
L 364.341636 110.967541 
L 364.88363 105.596786 
L 365.425625 124.008983 
L 365.967619 92.488018 
L 366.509613 92.965737 
L 367.051607 77.001322 
L 367.593601 99.25123 
L 368.135596 89.257864 
L 368.67759 99.439456 
L 369.219584 102.101774 
L 369.761578 86.601818 
L 370.303573 84.101327 
L 370.845567 96.403824 
L 371.387561 79.533547 
L 371.929555 80.355282 
L 372.47155 83.017126 
L 373.013544 69.066213 
L 373.555538 103.858729 
L 374.097532 86.395772 
L 374.639526 100.779402 
L 375.181521 93.333325 
L 375.723515 84.136984 
L 376.265509 83.620592 
L 376.807503 92.34312 
L 377.349498 95.744856 
L 377.891492 82.466415 
L 378.433486 104.635674 
L 378.97548 92.73513 
L 379.517475 102.161186 
L 380.059469 86.194163 
L 380.601463 78.257693 
L 381.143457 99.927693 
L 381.685452 102.278875 
L 382.227446 83.712889 
L 382.76944 99.945447 
L 383.311434 67.725867 
L 383.853428 81.758027 
L 384.395423 80.001365 
L 384.937417 83.994988 
L 386.021405 53.568 
L 386.5634 78.885809 
L 387.105394 66.838333 
L 387.647388 70.106942 
L 388.189382 66.785695 
L 388.731377 80.339952 
L 389.273371 72.937252 
L 389.815365 86.293531 
L 390.357359 67.537281 
L 390.899353 63.065664 
L 391.441348 79.400608 
L 391.983342 70.087735 
L 392.525336 80.357285 
L 393.06733 67.892905 
L 393.609325 69.899848 
L 394.151319 79.395673 
L 394.693313 83.325943 
L 395.235307 85.189244 
L 395.777302 82.434353 
L 396.319296 74.195421 
L 396.86129 70.395178 
L 397.403284 87.66167 
L 397.945278 76.688913 
L 398.487273 74.102028 
L 398.487273 74.102028 
" clip-path="url(#pbea9340276)" style="fill: none; stroke: #1f77b4; stroke-width: 1.5; stroke-linecap: square"/>
   </g>
   <g id="patch_3">
    <path d="M 57.6 307.584 
L 57.6 41.472 
" style="fill: none; stroke: #000000; stroke-width: 0.8; stroke-linejoin: miter; stroke-linecap: square"/>
   </g>
   <g id="patch_4">
    <path d="M 414.72 307.584 
L 414.72 41.472 
" style="fill: none; stroke: #000000; stroke-width: 0.8; stroke-linejoin: miter; stroke-linecap: square"/>
   </g>
   <g id="patch_5">
    <path d="M 57.6 307.584 
L 414.72 307.584 
" style="fill: none; stroke: #000000; stroke-width: 0.8; stroke-linejoin: miter; stroke-linecap: square"/>
   </g>
   <g id="patch_6">
    <path d="M 57.6 41.472 
L 414.72 41.472 
" style="fill: none; stroke: #000000; stroke-width: 0.8; stroke-linejoin: miter; stroke-linecap: square"/>
   </g>
   <g id="text_15">
    <!-- Loss per Episode -->
    <g transform="translate(185.653125 35.472) scale(0.12 -0.12)">
     <defs>
      <path id="DejaVuSans-20" transform="scale(0.015625)"/>
      <path id="DejaVuSans-70" d="M 1159 525 
L 1159 -1331 
L 581 -1331 
L 581 3500 
L 1159 3500 
L 1159 2969 
Q 1341 3281 1617 3432 
Q 1894 3584 2278 3584 
Q 2916 3584 3314 3078 
Q 3713 2572 3713 1747 
Q 3713 922 3314 415 
Q 2916 -91 2278 -91 
Q 1894 -91 1617 61 
Q 1341 213 1159 525 
z
M 3116 1747 
Q 3116 2381 2855 2742 
Q 2594 3103 2138 3103 
Q 1681 3103 1420 2742 
Q 1159 2381 1159 1747 
Q 1159 1113 1420 752 
Q 1681 391 2138 391 
Q 2594 391 2855 752 
Q 3116 1113 3116 1747 
z
" transform="scale(0.015625)"/>
      <path id="DejaVuSans-65" d="M 3597 1894 
L 3597 1613 
L 953 1613 
Q 991 1019 1311 708 
Q 1631 397 2203 397 
Q 2534 397 2845 478 
Q 3156 559 3463 722 
L 3463 178 
Q 3153 47 2828 -22 
Q 2503 -91 2169 -91 
Q 1331 -91 842 396 
Q 353 884 353 1716 
Q 353 2575 817 3079 
Q 1281 3584 2069 3584 
Q 2775 3584 3186 3129 
Q 3597 2675 3597 1894 
z
M 3022 2063 
Q 3016 2534 2758 2815 
Q 2500 3097 2075 3097 
Q 1594 3097 1305 2825 
Q 1016 2553 972 2059 
L 3022 2063 
z
" transform="scale(0.015625)"/>
      <path id="DejaVuSans-72" d="M 2631 2963 
Q 2534 3019 2420 3045 
Q 2306 3072 2169 3072 
Q 1681 3072 1420 2755 
Q 1159 2438 1159 1844 
L 1159 0 
L 581 0 
L 581 3500 
L 1159 3500 
L 1159 2956 
Q 1341 3275 1631 3429 
Q 1922 3584 2338 3584 
Q 2397 3584 2469 3576 
Q 2541 3569 2628 3553 
L 2631 2963 
z
" transform="scale(0.015625)"/>
      <path id="DejaVuSans-45" d="M 628 4666 
L 3578 4666 
L 3578 4134 
L 1259 4134 
L 1259 2753 
L 3481 2753 
L 3481 2222 
L 1259 2222 
L 1259 531 
L 3634 531 
L 3634 0 
L 628 0 
L 628 4666 
z
" transform="scale(0.015625)"/>
      <path id="DejaVuSans-69" d="M 603 3500 
L 1178 3500 
L 1178 0 
L 603 0 
L 603 3500 
z
M 603 4863 
L 1178 4863 
L 1178 4134 
L 603 4134 
L 603 4863 
z
" transform="scale(0.015625)"/>
      <path id="DejaVuSans-64" d="M 2906 2969 
L 2906 4863 
L 3481 4863 
L 3481 0 
L 2906 0 
L 2906 525 
Q 2725 213 2448 61 
Q 2172 -91 1784 -91 
Q 1150 -91 751 415 
Q 353 922 353 1747 
Q 353 2572 751 3078 
Q 1150 3584 1784 3584 
Q 2172 3584 2448 3432 
Q 2725 3281 2906 2969 
z
M 947 1747 
Q 947 1113 1208 752 
Q 1469 391 1925 391 
Q 2381 391 2643 752 
Q 2906 1113 2906 1747 
Q 2906 2381 2643 2742 
Q 2381 3103 1925 3103 
Q 1469 3103 1208 2742 
Q 947 2381 947 1747 
z
" transform="scale(0.015625)"/>
     </defs>
     <use xlink:href="#DejaVuSans-4c"/>
     <use xlink:href="#DejaVuSans-6f" x="53.962891"/>
     <use xlink:href="#DejaVuSans-73" x="115.144531"/>
     <use xlink:href="#DejaVuSans-73" x="167.244141"/>
     <use xlink:href="#DejaVuSans-20" x="219.34375"/>
     <use xlink:href="#DejaVuSans-70" x="251.130859"/>
     <use xlink:href="#DejaVuSans-65" x="314.607422"/>
     <use xlink:href="#DejaVuSans-72" x="376.130859"/>
     <use xlink:href="#DejaVuSans-20" x="417.244141"/>
     <use xlink:href="#DejaVuSans-45" x="449.03125"/>
     <use xlink:href="#DejaVuSans-70" x="512.214844"/>
     <use xlink:href="#DejaVuSans-69" x="575.691406"/>
     <use xlink:href="#DejaVuSans-73" x="603.474609"/>
     <use xlink:href="#DejaVuSans-6f" x="655.574219"/>
     <use xlink:href="#DejaVuSans-64" x="716.755859"/>
     <use xlink:href="#DejaVuSans-65" x="780.232422"/>
    </g>
   </g>
   <g id="legend_1">
    <g id="patch_7">
     <path d="M 64.6 64.150125 
L 161.164062 64.150125 
Q 163.164062 64.150125 163.164062 62.150125 
L 163.164062 48.472 
Q 163.164062 46.472 161.164062 46.472 
L 64.6 46.472 
Q 62.6 46.472 62.6 48.472 
L 62.6 62.150125 
Q 62.6 64.150125 64.6 64.150125 
z
" style="fill: #ffffff; opacity: 0.8; stroke: #cccccc; stroke-linejoin: miter"/>
    </g>
    <g id="line2d_15">
     <path d="M 66.6 54.570438 
L 76.6 54.570438 
L 86.6 54.570438 
" style="fill: none; stroke: #1f77b4; stroke-width: 1.5; stroke-linecap: square"/>
    </g>
    <g id="text_16">
     <!-- Training Loss -->
     <g transform="translate(94.6 58.070438) scale(0.1 -0.1)">
      <defs>
       <path id="DejaVuSans-54" d="M -19 4666 
L 3928 4666 
L 3928 4134 
L 2272 4134 
L 2272 0 
L 1638 0 
L 1638 4134 
L -19 4134 
L -19 4666 
z
" transform="scale(0.015625)"/>
       <path id="DejaVuSans-61" d="M 2194 1759 
Q 1497 1759 1228 1600 
Q 959 1441 959 1056 
Q 959 750 1161 570 
Q 1363 391 1709 391 
Q 2188 391 2477 730 
Q 2766 1069 2766 1631 
L 2766 1759 
L 2194 1759 
z
M 3341 1997 
L 3341 0 
L 2766 0 
L 2766 531 
Q 2569 213 2275 61 
Q 1981 -91 1556 -91 
Q 1019 -91 701 211 
Q 384 513 384 1019 
Q 384 1609 779 1909 
Q 1175 2209 1959 2209 
L 2766 2209 
L 2766 2266 
Q 2766 2663 2505 2880 
Q 2244 3097 1772 3097 
Q 1472 3097 1187 3025 
Q 903 2953 641 2809 
L 641 3341 
Q 956 3463 1253 3523 
Q 1550 3584 1831 3584 
Q 2591 3584 2966 3190 
Q 3341 2797 3341 1997 
z
" transform="scale(0.015625)"/>
       <path id="DejaVuSans-6e" d="M 3513 2113 
L 3513 0 
L 2938 0 
L 2938 2094 
Q 2938 2591 2744 2837 
Q 2550 3084 2163 3084 
Q 1697 3084 1428 2787 
Q 1159 2491 1159 1978 
L 1159 0 
L 581 0 
L 581 3500 
L 1159 3500 
L 1159 2956 
Q 1366 3272 1645 3428 
Q 1925 3584 2291 3584 
Q 2894 3584 3203 3211 
Q 3513 2838 3513 2113 
z
" transform="scale(0.015625)"/>
       <path id="DejaVuSans-67" d="M 2906 1791 
Q 2906 2416 2648 2759 
Q 2391 3103 1925 3103 
Q 1463 3103 1205 2759 
Q 947 2416 947 1791 
Q 947 1169 1205 825 
Q 1463 481 1925 481 
Q 2391 481 2648 825 
Q 2906 1169 2906 1791 
z
M 3481 434 
Q 3481 -459 3084 -895 
Q 2688 -1331 1869 -1331 
Q 1566 -1331 1297 -1286 
Q 1028 -1241 775 -1147 
L 775 -588 
Q 1028 -725 1275 -790 
Q 1522 -856 1778 -856 
Q 2344 -856 2625 -561 
Q 2906 -266 2906 331 
L 2906 616 
Q 2728 306 2450 153 
Q 2172 0 1784 0 
Q 1141 0 747 490 
Q 353 981 353 1791 
Q 353 2603 747 3093 
Q 1141 3584 1784 3584 
Q 2172 3584 2450 3431 
Q 2728 3278 2906 2969 
L 2906 3500 
L 3481 3500 
L 3481 434 
z
" transform="scale(0.015625)"/>
      </defs>
      <use xlink:href="#DejaVuSans-54"/>
      <use xlink:href="#DejaVuSans-72" x="46.333984"/>
      <use xlink:href="#DejaVuSans-61" x="87.447266"/>
      <use xlink:href="#DejaVuSans-69" x="148.726562"/>
      <use xlink:href="#DejaVuSans-6e" x="176.509766"/>
      <use xlink:href="#DejaVuSans-69" x="239.888672"/>
      <use xlink:href="#DejaVuSans-6e" x="267.671875"/>
      <use xlink:href="#DejaVuSans-67" x="331.050781"/>
      <use xlink:href="#DejaVuSans-20" x="394.527344"/>
      <use xlink:href="#DejaVuSans-4c" x="426.314453"/>
      <use xlink:href="#DejaVuSans-6f" x="480.277344"/>
      <use xlink:href="#DejaVuSans-73" x="541.458984"/>
      <use xlink:href="#DejaVuSans-73" x="593.558594"/>
     </g>
    </g>
   </g>
  </g>
 </g>
 <defs>
  <clipPath id="pbea9340276">
   <rect x="57.6" y="41.472" width="357.12" height="266.112"/>
  </clipPath>
 </defs>
</svg>
