<?xml version="1.0" encoding="utf-8" standalone="no"?>
<!DOCTYPE svg PUBLIC "-//W3C//DTD SVG 1.1//EN"
  "http://www.w3.org/Graphics/SVG/1.1/DTD/svg11.dtd">
<svg xmlns:xlink="http://www.w3.org/1999/xlink" width="460.8pt" height="345.6pt" viewBox="0 0 460.8 345.6" xmlns="http://www.w3.org/2000/svg" version="1.1">
 <metadata>
  <rdf:RDF xmlns:dc="http://purl.org/dc/elements/1.1/" xmlns:cc="http://creativecommons.org/ns#" xmlns:rdf="http://www.w3.org/1999/02/22-rdf-syntax-ns#">
   <cc:Work>
    <dc:type rdf:resource="http://purl.org/dc/dcmitype/StillImage"/>
    <dc:date>2024-03-22T17:17:20.489031</dc:date>
    <dc:format>image/svg+xml</dc:format>
    <dc:creator>
     <cc:Agent>
      <dc:title>Matplotlib v3.8.0, https://matplotlib.org/</dc:title>
     </cc:Agent>
    </dc:creator>
   </cc:Work>
  </rdf:RDF>
 </metadata>
 <defs>
  <style type="text/css">*{stroke-linejoin: round; stroke-linecap: butt}</style>
 </defs>
 <g id="figure_1">
  <g id="patch_1">
   <path d="M 0 345.6 
L 460.8 345.6 
L 460.8 0 
L 0 0 
z
" style="fill: #ffffff"/>
  </g>
  <g id="axes_1">
   <g id="patch_2">
    <path d="M 57.6 307.584 
L 414.72 307.584 
L 414.72 41.472 
L 57.6 41.472 
z
" style="fill: #ffffff"/>
   </g>
   <g id="matplotlib.axis_1">
    <g id="xtick_1">
     <g id="line2d_1">
      <defs>
       <path id="m19d595ea3c" d="M 0 0 
L 0 3.5 
" style="stroke: #000000; stroke-width: 0.8"/>
      </defs>
      <g>
       <use xlink:href="#m19d595ea3c" x="73.832727" y="307.584" style="stroke: #000000; stroke-width: 0.8"/>
      </g>
     </g>
     <g id="text_1">
      <!-- 0 -->
      <g transform="translate(70.651477 322.182437) scale(0.1 -0.1)">
       <defs>
        <path id="DejaVuSans-30" d="M 2034 4250 
Q 1547 4250 1301 3770 
Q 1056 3291 1056 2328 
Q 1056 1369 1301 889 
Q 1547 409 2034 409 
Q 2525 409 2770 889 
Q 3016 1369 3016 2328 
Q 3016 3291 2770 3770 
Q 2525 4250 2034 4250 
z
M 2034 4750 
Q 2819 4750 3233 4129 
Q 3647 3509 3647 2328 
Q 3647 1150 3233 529 
Q 2819 -91 2034 -91 
Q 1250 -91 836 529 
Q 422 1150 422 2328 
Q 422 3509 836 4129 
Q 1250 4750 2034 4750 
z
" transform="scale(0.015625)"/>
       </defs>
       <use xlink:href="#DejaVuSans-30"/>
      </g>
     </g>
    </g>
    <g id="xtick_2">
     <g id="line2d_2">
      <g>
       <use xlink:href="#m19d595ea3c" x="114.516254" y="307.584" style="stroke: #000000; stroke-width: 0.8"/>
      </g>
     </g>
     <g id="text_2">
      <!-- 50 -->
      <g transform="translate(108.153754 322.182437) scale(0.1 -0.1)">
       <defs>
        <path id="DejaVuSans-35" d="M 691 4666 
L 3169 4666 
L 3169 4134 
L 1269 4134 
L 1269 2991 
Q 1406 3038 1543 3061 
Q 1681 3084 1819 3084 
Q 2600 3084 3056 2656 
Q 3513 2228 3513 1497 
Q 3513 744 3044 326 
Q 2575 -91 1722 -91 
Q 1428 -91 1123 -41 
Q 819 9 494 109 
L 494 744 
Q 775 591 1075 516 
Q 1375 441 1709 441 
Q 2250 441 2565 725 
Q 2881 1009 2881 1497 
Q 2881 1984 2565 2268 
Q 2250 2553 1709 2553 
Q 1456 2553 1204 2497 
Q 953 2441 691 2322 
L 691 4666 
z
" transform="scale(0.015625)"/>
       </defs>
       <use xlink:href="#DejaVuSans-35"/>
       <use xlink:href="#DejaVuSans-30" x="63.623047"/>
      </g>
     </g>
    </g>
    <g id="xtick_3">
     <g id="line2d_3">
      <g>
       <use xlink:href="#m19d595ea3c" x="155.199781" y="307.584" style="stroke: #000000; stroke-width: 0.8"/>
      </g>
     </g>
     <g id="text_3">
      <!-- 100 -->
      <g transform="translate(145.656031 322.182437) scale(0.1 -0.1)">
       <defs>
        <path id="DejaVuSans-31" d="M 794 531 
L 1825 531 
L 1825 4091 
L 703 3866 
L 703 4441 
L 1819 4666 
L 2450 4666 
L 2450 531 
L 3481 531 
L 3481 0 
L 794 0 
L 794 531 
z
" transform="scale(0.015625)"/>
       </defs>
       <use xlink:href="#DejaVuSans-31"/>
       <use xlink:href="#DejaVuSans-30" x="63.623047"/>
       <use xlink:href="#DejaVuSans-30" x="127.246094"/>
      </g>
     </g>
    </g>
    <g id="xtick_4">
     <g id="line2d_4">
      <g>
       <use xlink:href="#m19d595ea3c" x="195.883308" y="307.584" style="stroke: #000000; stroke-width: 0.8"/>
      </g>
     </g>
     <g id="text_4">
      <!-- 150 -->
      <g transform="translate(186.339558 322.182437) scale(0.1 -0.1)">
       <use xlink:href="#DejaVuSans-31"/>
       <use xlink:href="#DejaVuSans-35" x="63.623047"/>
       <use xlink:href="#DejaVuSans-30" x="127.246094"/>
      </g>
     </g>
    </g>
    <g id="xtick_5">
     <g id="line2d_5">
      <g>
       <use xlink:href="#m19d595ea3c" x="236.566835" y="307.584" style="stroke: #000000; stroke-width: 0.8"/>
      </g>
     </g>
     <g id="text_5">
      <!-- 200 -->
      <g transform="translate(227.023085 322.182437) scale(0.1 -0.1)">
       <defs>
        <path id="DejaVuSans-32" d="M 1228 531 
L 3431 531 
L 3431 0 
L 469 0 
L 469 531 
Q 828 903 1448 1529 
Q 2069 2156 2228 2338 
Q 2531 2678 2651 2914 
Q 2772 3150 2772 3378 
Q 2772 3750 2511 3984 
Q 2250 4219 1831 4219 
Q 1534 4219 1204 4116 
Q 875 4013 500 3803 
L 500 4441 
Q 881 4594 1212 4672 
Q 1544 4750 1819 4750 
Q 2544 4750 2975 4387 
Q 3406 4025 3406 3419 
Q 3406 3131 3298 2873 
Q 3191 2616 2906 2266 
Q 2828 2175 2409 1742 
Q 1991 1309 1228 531 
z
" transform="scale(0.015625)"/>
       </defs>
       <use xlink:href="#DejaVuSans-32"/>
       <use xlink:href="#DejaVuSans-30" x="63.623047"/>
       <use xlink:href="#DejaVuSans-30" x="127.246094"/>
      </g>
     </g>
    </g>
    <g id="xtick_6">
     <g id="line2d_6">
      <g>
       <use xlink:href="#m19d595ea3c" x="277.250362" y="307.584" style="stroke: #000000; stroke-width: 0.8"/>
      </g>
     </g>
     <g id="text_6">
      <!-- 250 -->
      <g transform="translate(267.706612 322.182437) scale(0.1 -0.1)">
       <use xlink:href="#DejaVuSans-32"/>
       <use xlink:href="#DejaVuSans-35" x="63.623047"/>
       <use xlink:href="#DejaVuSans-30" x="127.246094"/>
      </g>
     </g>
    </g>
    <g id="xtick_7">
     <g id="line2d_7">
      <g>
       <use xlink:href="#m19d595ea3c" x="317.933889" y="307.584" style="stroke: #000000; stroke-width: 0.8"/>
      </g>
     </g>
     <g id="text_7">
      <!-- 300 -->
      <g transform="translate(308.390139 322.182437) scale(0.1 -0.1)">
       <defs>
        <path id="DejaVuSans-33" d="M 2597 2516 
Q 3050 2419 3304 2112 
Q 3559 1806 3559 1356 
Q 3559 666 3084 287 
Q 2609 -91 1734 -91 
Q 1441 -91 1130 -33 
Q 819 25 488 141 
L 488 750 
Q 750 597 1062 519 
Q 1375 441 1716 441 
Q 2309 441 2620 675 
Q 2931 909 2931 1356 
Q 2931 1769 2642 2001 
Q 2353 2234 1838 2234 
L 1294 2234 
L 1294 2753 
L 1863 2753 
Q 2328 2753 2575 2939 
Q 2822 3125 2822 3475 
Q 2822 3834 2567 4026 
Q 2313 4219 1838 4219 
Q 1578 4219 1281 4162 
Q 984 4106 628 3988 
L 628 4550 
Q 988 4650 1302 4700 
Q 1616 4750 1894 4750 
Q 2613 4750 3031 4423 
Q 3450 4097 3450 3541 
Q 3450 3153 3228 2886 
Q 3006 2619 2597 2516 
z
" transform="scale(0.015625)"/>
       </defs>
       <use xlink:href="#DejaVuSans-33"/>
       <use xlink:href="#DejaVuSans-30" x="63.623047"/>
       <use xlink:href="#DejaVuSans-30" x="127.246094"/>
      </g>
     </g>
    </g>
    <g id="xtick_8">
     <g id="line2d_8">
      <g>
       <use xlink:href="#m19d595ea3c" x="358.617416" y="307.584" style="stroke: #000000; stroke-width: 0.8"/>
      </g>
     </g>
     <g id="text_8">
      <!-- 350 -->
      <g transform="translate(349.073666 322.182437) scale(0.1 -0.1)">
       <use xlink:href="#DejaVuSans-33"/>
       <use xlink:href="#DejaVuSans-35" x="63.623047"/>
       <use xlink:href="#DejaVuSans-30" x="127.246094"/>
      </g>
     </g>
    </g>
    <g id="xtick_9">
     <g id="line2d_9">
      <g>
       <use xlink:href="#m19d595ea3c" x="399.300943" y="307.584" style="stroke: #000000; stroke-width: 0.8"/>
      </g>
     </g>
     <g id="text_9">
      <!-- 400 -->
      <g transform="translate(389.757193 322.182437) scale(0.1 -0.1)">
       <defs>
        <path id="DejaVuSans-34" d="M 2419 4116 
L 825 1625 
L 2419 1625 
L 2419 4116 
z
M 2253 4666 
L 3047 4666 
L 3047 1625 
L 3713 1625 
L 3713 1100 
L 3047 1100 
L 3047 0 
L 2419 0 
L 2419 1100 
L 313 1100 
L 313 1709 
L 2253 4666 
z
" transform="scale(0.015625)"/>
       </defs>
       <use xlink:href="#DejaVuSans-34"/>
       <use xlink:href="#DejaVuSans-30" x="63.623047"/>
       <use xlink:href="#DejaVuSans-30" x="127.246094"/>
      </g>
     </g>
    </g>
   </g>
   <g id="matplotlib.axis_2">
    <g id="ytick_1">
     <g id="line2d_10">
      <defs>
       <path id="mac84ce5c30" d="M 0 0 
L -3.5 0 
" style="stroke: #000000; stroke-width: 0.8"/>
      </defs>
      <g>
       <use xlink:href="#mac84ce5c30" x="57.6" y="276.670153" style="stroke: #000000; stroke-width: 0.8"/>
      </g>
     </g>
     <g id="text_10">
      <!-- 200 -->
      <g transform="translate(31.5125 280.469372) scale(0.1 -0.1)">
       <use xlink:href="#DejaVuSans-32"/>
       <use xlink:href="#DejaVuSans-30" x="63.623047"/>
       <use xlink:href="#DejaVuSans-30" x="127.246094"/>
      </g>
     </g>
    </g>
    <g id="ytick_2">
     <g id="line2d_11">
      <g>
       <use xlink:href="#mac84ce5c30" x="57.6" y="226.585174" style="stroke: #000000; stroke-width: 0.8"/>
      </g>
     </g>
     <g id="text_11">
      <!-- 400 -->
      <g transform="translate(31.5125 230.384392) scale(0.1 -0.1)">
       <use xlink:href="#DejaVuSans-34"/>
       <use xlink:href="#DejaVuSans-30" x="63.623047"/>
       <use xlink:href="#DejaVuSans-30" x="127.246094"/>
      </g>
     </g>
    </g>
    <g id="ytick_3">
     <g id="line2d_12">
      <g>
       <use xlink:href="#mac84ce5c30" x="57.6" y="176.500194" style="stroke: #000000; stroke-width: 0.8"/>
      </g>
     </g>
     <g id="text_12">
      <!-- 600 -->
      <g transform="translate(31.5125 180.299413) scale(0.1 -0.1)">
       <defs>
        <path id="DejaVuSans-36" d="M 2113 2584 
Q 1688 2584 1439 2293 
Q 1191 2003 1191 1497 
Q 1191 994 1439 701 
Q 1688 409 2113 409 
Q 2538 409 2786 701 
Q 3034 994 3034 1497 
Q 3034 2003 2786 2293 
Q 2538 2584 2113 2584 
z
M 3366 4563 
L 3366 3988 
Q 3128 4100 2886 4159 
Q 2644 4219 2406 4219 
Q 1781 4219 1451 3797 
Q 1122 3375 1075 2522 
Q 1259 2794 1537 2939 
Q 1816 3084 2150 3084 
Q 2853 3084 3261 2657 
Q 3669 2231 3669 1497 
Q 3669 778 3244 343 
Q 2819 -91 2113 -91 
Q 1303 -91 875 529 
Q 447 1150 447 2328 
Q 447 3434 972 4092 
Q 1497 4750 2381 4750 
Q 2619 4750 2861 4703 
Q 3103 4656 3366 4563 
z
" transform="scale(0.015625)"/>
       </defs>
       <use xlink:href="#DejaVuSans-36"/>
       <use xlink:href="#DejaVuSans-30" x="63.623047"/>
       <use xlink:href="#DejaVuSans-30" x="127.246094"/>
      </g>
     </g>
    </g>
    <g id="ytick_4">
     <g id="line2d_13">
      <g>
       <use xlink:href="#mac84ce5c30" x="57.6" y="126.415215" style="stroke: #000000; stroke-width: 0.8"/>
      </g>
     </g>
     <g id="text_13">
      <!-- 800 -->
      <g transform="translate(31.5125 130.214434) scale(0.1 -0.1)">
       <defs>
        <path id="DejaVuSans-38" d="M 2034 2216 
Q 1584 2216 1326 1975 
Q 1069 1734 1069 1313 
Q 1069 891 1326 650 
Q 1584 409 2034 409 
Q 2484 409 2743 651 
Q 3003 894 3003 1313 
Q 3003 1734 2745 1975 
Q 2488 2216 2034 2216 
z
M 1403 2484 
Q 997 2584 770 2862 
Q 544 3141 544 3541 
Q 544 4100 942 4425 
Q 1341 4750 2034 4750 
Q 2731 4750 3128 4425 
Q 3525 4100 3525 3541 
Q 3525 3141 3298 2862 
Q 3072 2584 2669 2484 
Q 3125 2378 3379 2068 
Q 3634 1759 3634 1313 
Q 3634 634 3220 271 
Q 2806 -91 2034 -91 
Q 1263 -91 848 271 
Q 434 634 434 1313 
Q 434 1759 690 2068 
Q 947 2378 1403 2484 
z
M 1172 3481 
Q 1172 3119 1398 2916 
Q 1625 2713 2034 2713 
Q 2441 2713 2670 2916 
Q 2900 3119 2900 3481 
Q 2900 3844 2670 4047 
Q 2441 4250 2034 4250 
Q 1625 4250 1398 4047 
Q 1172 3844 1172 3481 
z
" transform="scale(0.015625)"/>
       </defs>
       <use xlink:href="#DejaVuSans-38"/>
       <use xlink:href="#DejaVuSans-30" x="63.623047"/>
       <use xlink:href="#DejaVuSans-30" x="127.246094"/>
      </g>
     </g>
    </g>
    <g id="ytick_5">
     <g id="line2d_14">
      <g>
       <use xlink:href="#mac84ce5c30" x="57.6" y="76.330236" style="stroke: #000000; stroke-width: 0.8"/>
      </g>
     </g>
     <g id="text_14">
      <!-- 1000 -->
      <g transform="translate(25.15 80.129454) scale(0.1 -0.1)">
       <use xlink:href="#DejaVuSans-31"/>
       <use xlink:href="#DejaVuSans-30" x="63.623047"/>
       <use xlink:href="#DejaVuSans-30" x="127.246094"/>
       <use xlink:href="#DejaVuSans-30" x="190.869141"/>
      </g>
     </g>
    </g>
    <g id="text_15">
     <!-- Loss -->
     <g transform="translate(19.070312 185.495187) rotate(-90) scale(0.1 -0.1)">
      <defs>
       <path id="DejaVuSans-4c" d="M 628 4666 
L 1259 4666 
L 1259 531 
L 3531 531 
L 3531 0 
L 628 0 
L 628 4666 
z
" transform="scale(0.015625)"/>
       <path id="DejaVuSans-6f" d="M 1959 3097 
Q 1497 3097 1228 2736 
Q 959 2375 959 1747 
Q 959 1119 1226 758 
Q 1494 397 1959 397 
Q 2419 397 2687 759 
Q 2956 1122 2956 1747 
Q 2956 2369 2687 2733 
Q 2419 3097 1959 3097 
z
M 1959 3584 
Q 2709 3584 3137 3096 
Q 3566 2609 3566 1747 
Q 3566 888 3137 398 
Q 2709 -91 1959 -91 
Q 1206 -91 779 398 
Q 353 888 353 1747 
Q 353 2609 779 3096 
Q 1206 3584 1959 3584 
z
" transform="scale(0.015625)"/>
       <path id="DejaVuSans-73" d="M 2834 3397 
L 2834 2853 
Q 2591 2978 2328 3040 
Q 2066 3103 1784 3103 
Q 1356 3103 1142 2972 
Q 928 2841 928 2578 
Q 928 2378 1081 2264 
Q 1234 2150 1697 2047 
L 1894 2003 
Q 2506 1872 2764 1633 
Q 3022 1394 3022 966 
Q 3022 478 2636 193 
Q 2250 -91 1575 -91 
Q 1294 -91 989 -36 
Q 684 19 347 128 
L 347 722 
Q 666 556 975 473 
Q 1284 391 1588 391 
Q 1994 391 2212 530 
Q 2431 669 2431 922 
Q 2431 1156 2273 1281 
Q 2116 1406 1581 1522 
L 1381 1569 
Q 847 1681 609 1914 
Q 372 2147 372 2553 
Q 372 3047 722 3315 
Q 1072 3584 1716 3584 
Q 2034 3584 2315 3537 
Q 2597 3491 2834 3397 
z
" transform="scale(0.015625)"/>
      </defs>
      <use xlink:href="#DejaVuSans-4c"/>
      <use xlink:href="#DejaVuSans-6f" x="53.962891"/>
      <use xlink:href="#DejaVuSans-73" x="115.144531"/>
      <use xlink:href="#DejaVuSans-73" x="167.244141"/>
     </g>
    </g>
   </g>
   <g id="line2d_15">
    <path d="M 73.832727 264.081269 
L 74.646398 294.221086 
L 75.460068 283.255622 
L 76.273739 290.838045 
L 77.087409 295.488 
L 77.90108 264.901722 
L 78.714751 272.90499 
L 79.528421 274.169498 
L 80.342092 267.662134 
L 81.155762 275.823665 
L 81.969433 279.051689 
L 82.783103 280.842982 
L 83.596774 281.613375 
L 84.410444 262.655553 
L 85.224115 267.187749 
L 86.037785 270.825638 
L 86.851456 270.196343 
L 87.665126 273.638403 
L 88.478797 280.296099 
L 89.292468 282.67135 
L 90.106138 275.21266 
L 90.919809 245.064177 
L 91.733479 253.352769 
L 93.36082 266.983813 
L 94.174491 270.566573 
L 94.988161 271.995979 
L 95.801832 277.678195 
L 97.429173 279.439918 
L 98.242843 283.679682 
L 99.056514 280.917716 
L 99.870185 281.816299 
L 100.683855 287.752893 
L 101.497526 282.101968 
L 102.311196 277.834464 
L 103.938537 279.171614 
L 104.752208 278.326213 
L 105.565878 281.532236 
L 106.379549 282.736992 
L 107.193219 251.66533 
L 108.00689 261.118186 
L 108.82056 264.337237 
L 109.634231 270.205264 
L 110.447902 270.136082 
L 111.261572 271.955367 
L 112.075243 276.337557 
L 112.888913 276.234621 
L 113.702584 278.356441 
L 114.516254 277.536055 
L 115.329925 279.354952 
L 116.143595 280.327079 
L 116.957266 283.656258 
L 117.770936 284.501389 
L 118.584607 284.159965 
L 119.398278 285.368172 
L 120.211948 285.24867 
L 121.839289 288.314947 
L 122.65296 289.512555 
L 123.46663 259.719999 
L 124.280301 268.508894 
L 125.093971 269.192011 
L 125.907642 270.309411 
L 126.721312 270.367328 
L 127.534983 267.190374 
L 128.348653 266.165554 
L 129.162324 268.142695 
L 129.975995 274.600889 
L 130.789665 270.600025 
L 131.603336 276.123897 
L 132.417006 271.013407 
L 133.230677 274.607891 
L 134.044347 275.420241 
L 134.858018 274.393545 
L 135.671688 276.879105 
L 136.485359 273.387002 
L 137.299029 277.008404 
L 138.1127 279.431618 
L 138.92637 279.486917 
L 139.740041 247.345465 
L 140.553712 254.146294 
L 141.367382 258.272521 
L 142.181053 256.534731 
L 142.994723 260.663739 
L 143.808394 259.242174 
L 144.622064 260.780138 
L 145.435735 259.837348 
L 146.249405 259.499425 
L 147.063076 266.18026 
L 147.876746 266.298648 
L 148.690417 263.766379 
L 149.504087 267.909726 
L 150.317758 267.050301 
L 151.131429 266.800989 
L 151.945099 268.826612 
L 152.75877 268.895325 
L 154.386111 266.251413 
L 155.199781 268.012196 
L 156.013452 240.328522 
L 156.827122 244.971429 
L 157.640793 247.17677 
L 158.454463 248.83891 
L 159.268134 246.108265 
L 160.081805 247.463699 
L 160.895475 254.461748 
L 161.709146 252.823227 
L 162.522816 256.297285 
L 163.336487 251.581034 
L 164.150157 250.366042 
L 164.963828 254.295757 
L 165.777498 252.507783 
L 166.591169 255.961764 
L 167.404839 251.414288 
L 168.21851 247.512592 
L 169.03218 253.68705 
L 169.845851 250.896747 
L 170.659522 250.887441 
L 171.473192 251.108361 
L 172.286863 227.161712 
L 173.100533 225.727909 
L 173.914204 229.816376 
L 174.727874 228.150136 
L 175.541545 223.203773 
L 176.355215 232.576455 
L 177.168886 236.674638 
L 177.982556 235.450243 
L 178.796227 237.207897 
L 179.609897 236.910879 
L 180.423568 236.043861 
L 181.237239 237.726327 
L 182.050909 237.482011 
L 182.86458 235.211627 
L 183.67825 231.29049 
L 184.491921 242.266914 
L 185.305591 229.677067 
L 186.119262 235.669 
L 186.932932 237.508231 
L 187.746603 233.198964 
L 188.560273 212.524895 
L 189.373944 211.404574 
L 190.187614 214.02206 
L 191.001285 219.497495 
L 191.814956 213.092576 
L 192.628626 216.904679 
L 193.442297 221.453038 
L 194.255967 223.576214 
L 195.069638 218.181578 
L 196.696979 222.439948 
L 197.510649 219.740046 
L 198.32432 221.548458 
L 199.13799 219.725288 
L 199.951661 216.190222 
L 200.765332 219.374423 
L 201.579002 221.937267 
L 202.392673 226.833134 
L 203.206343 218.788104 
L 204.020014 227.991966 
L 204.833684 198.336594 
L 205.647355 202.266572 
L 206.461025 211.02151 
L 207.274696 203.762815 
L 208.088366 203.363397 
L 208.902037 210.301514 
L 209.715707 201.959646 
L 210.529378 206.888453 
L 212.156719 210.752761 
L 212.97039 206.885634 
L 213.78406 214.050282 
L 214.597731 206.534323 
L 215.411401 218.353143 
L 216.225072 204.666823 
L 217.038742 213.824986 
L 217.852413 208.342808 
L 218.666083 210.844116 
L 219.479754 219.415855 
L 220.293424 219.389382 
L 221.107095 196.766505 
L 221.920766 190.915849 
L 222.734436 191.715981 
L 223.548107 191.550673 
L 224.361777 199.442154 
L 225.175448 199.512399 
L 226.802789 190.686719 
L 227.616459 204.703887 
L 228.43013 202.370116 
L 229.2438 198.433219 
L 230.871141 207.4069 
L 231.684812 199.622309 
L 232.498483 203.432093 
L 233.312153 206.489532 
L 234.125824 201.569809 
L 234.939494 206.497127 
L 235.753165 207.156343 
L 236.566835 205.645727 
L 237.380506 172.72327 
L 238.194176 174.982657 
L 239.007847 186.231933 
L 239.821517 183.50756 
L 240.635188 183.067119 
L 241.448859 178.845657 
L 243.0762 190.031073 
L 243.88987 190.710682 
L 244.703541 187.869683 
L 245.517211 188.910326 
L 246.330882 191.782752 
L 247.144552 188.832415 
L 247.958223 187.974312 
L 248.771893 192.593685 
L 249.585564 191.465246 
L 250.399234 193.268517 
L 251.212905 189.837705 
L 252.026576 189.465479 
L 252.840246 192.510684 
L 253.653917 162.448936 
L 254.467587 183.627017 
L 255.281258 168.48952 
L 256.094928 175.111474 
L 256.908599 177.766868 
L 257.722269 171.303536 
L 258.53594 174.271627 
L 259.34961 168.643199 
L 260.976951 180.344169 
L 261.790622 171.730091 
L 263.417963 181.537263 
L 264.231634 173.75802 
L 265.045304 182.296696 
L 265.858975 179.069055 
L 266.672645 176.835588 
L 267.486316 177.217558 
L 268.299986 182.385099 
L 269.113657 184.221721 
L 269.927327 155.594838 
L 270.740998 156.498655 
L 271.554668 158.922058 
L 272.368339 162.932783 
L 273.18201 155.637326 
L 273.99568 170.507531 
L 274.809351 164.768905 
L 275.623021 157.882818 
L 276.436692 167.210295 
L 277.250362 159.797195 
L 278.064033 169.434458 
L 278.877703 164.139665 
L 279.691374 169.283027 
L 280.505044 169.4727 
L 281.318715 169.051142 
L 282.132386 171.513631 
L 282.946056 174.91562 
L 283.759727 163.796981 
L 284.573397 166.651352 
L 285.387068 160.192906 
L 286.200738 146.356002 
L 287.014409 139.653717 
L 287.828079 153.175069 
L 288.64175 160.092853 
L 289.45542 148.111403 
L 290.269091 162.318902 
L 291.082761 155.073118 
L 291.896432 150.956207 
L 292.710103 159.029179 
L 293.523773 143.852086 
L 294.337444 154.665665 
L 295.151114 146.105368 
L 295.964785 149.6849 
L 296.778455 154.401868 
L 297.592126 164.843668 
L 298.405796 155.608856 
L 299.219467 162.23419 
L 300.033137 153.069736 
L 300.846808 156.301237 
L 301.660478 158.776721 
L 302.474149 139.053135 
L 303.28782 142.859003 
L 304.10149 134.975933 
L 304.915161 138.220625 
L 305.728831 133.948485 
L 306.542502 137.261187 
L 307.356172 135.143851 
L 308.169843 143.841032 
L 308.983513 143.673259 
L 309.797184 138.228945 
L 310.610854 147.078569 
L 311.424525 143.618505 
L 312.238195 141.357566 
L 313.051866 140.883393 
L 313.865537 128.020752 
L 314.679207 143.692428 
L 315.492878 149.751649 
L 316.306548 144.332851 
L 317.120219 141.64107 
L 317.933889 139.493053 
L 318.74756 118.540402 
L 319.56123 128.72487 
L 320.374901 120.66339 
L 321.188571 127.88136 
L 322.002242 130.490489 
L 322.815913 134.338621 
L 323.629583 127.54114 
L 324.443254 124.409371 
L 325.256924 119.893934 
L 326.070595 128.484629 
L 326.884265 126.00502 
L 327.697936 130.372721 
L 328.511606 129.365437 
L 329.325277 133.070693 
L 330.138947 119.129279 
L 330.952618 126.582327 
L 331.766288 135.659086 
L 332.579959 135.372221 
L 333.39363 138.881726 
L 334.2073 127.572139 
L 335.020971 100.075779 
L 335.834641 106.490876 
L 336.648312 115.312832 
L 337.461982 108.794604 
L 338.275653 106.107854 
L 339.089323 113.385717 
L 339.902994 118.191981 
L 340.716664 108.592816 
L 341.530335 110.207933 
L 342.344005 119.584346 
L 343.157676 114.388441 
L 343.971347 107.620134 
L 344.785017 119.341619 
L 345.598688 116.319084 
L 346.412358 120.245396 
L 347.226029 114.19698 
L 348.039699 104.760638 
L 348.85337 116.347951 
L 349.66704 102.177629 
L 350.480711 123.445611 
L 351.294381 83.63657 
L 352.108052 86.872268 
L 352.921722 101.00673 
L 353.735393 100.099132 
L 354.549064 109.082154 
L 355.362734 106.154291 
L 356.176405 100.027343 
L 356.990075 89.320214 
L 357.803746 97.428374 
L 358.617416 95.278931 
L 359.431087 92.494794 
L 360.244757 94.491622 
L 361.058428 99.907087 
L 361.872098 98.014468 
L 362.685769 96.700735 
L 363.49944 86.338606 
L 364.31311 95.653263 
L 365.126781 91.250771 
L 365.940451 91.680287 
L 366.754122 87.911962 
L 367.567792 78.679501 
L 368.381463 76.513926 
L 369.195133 85.627246 
L 370.008804 71.022881 
L 371.636145 69.119978 
L 372.449815 73.062772 
L 373.263486 94.059605 
L 374.890827 83.365364 
L 375.704498 90.820502 
L 376.518168 84.646664 
L 378.145509 80.464857 
L 378.95918 83.805819 
L 379.77285 90.354083 
L 380.586521 90.638917 
L 381.400191 92.07231 
L 382.213862 89.298129 
L 383.027532 91.389767 
L 383.841203 67.135538 
L 384.654874 60.377932 
L 385.468544 67.104721 
L 386.282215 58.734105 
L 387.095885 78.92865 
L 387.909556 72.913901 
L 388.723226 58.12576 
L 389.536897 58.660281 
L 390.350567 62.634039 
L 391.164238 78.082961 
L 391.977908 76.878501 
L 392.791579 66.433436 
L 393.605249 78.141156 
L 394.41892 78.114918 
L 395.232591 62.220689 
L 396.046261 68.843655 
L 396.859932 53.568 
L 397.673602 72.507688 
L 398.487273 73.296775 
L 398.487273 73.296775 
" clip-path="url(#p2c21ed6397)" style="fill: none; stroke: #1f77b4; stroke-width: 1.5; stroke-linecap: square"/>
   </g>
   <g id="patch_3">
    <path d="M 57.6 307.584 
L 57.6 41.472 
" style="fill: none; stroke: #000000; stroke-width: 0.8; stroke-linejoin: miter; stroke-linecap: square"/>
   </g>
   <g id="patch_4">
    <path d="M 414.72 307.584 
L 414.72 41.472 
" style="fill: none; stroke: #000000; stroke-width: 0.8; stroke-linejoin: miter; stroke-linecap: square"/>
   </g>
   <g id="patch_5">
    <path d="M 57.6 307.584 
L 414.72 307.584 
" style="fill: none; stroke: #000000; stroke-width: 0.8; stroke-linejoin: miter; stroke-linecap: square"/>
   </g>
   <g id="patch_6">
    <path d="M 57.6 41.472 
L 414.72 41.472 
" style="fill: none; stroke: #000000; stroke-width: 0.8; stroke-linejoin: miter; stroke-linecap: square"/>
   </g>
   <g id="text_16">
    <!-- Loss per Episode -->
    <g transform="translate(185.653125 35.472) scale(0.12 -0.12)">
     <defs>
      <path id="DejaVuSans-20" transform="scale(0.015625)"/>
      <path id="DejaVuSans-70" d="M 1159 525 
L 1159 -1331 
L 581 -1331 
L 581 3500 
L 1159 3500 
L 1159 2969 
Q 1341 3281 1617 3432 
Q 1894 3584 2278 3584 
Q 2916 3584 3314 3078 
Q 3713 2572 3713 1747 
Q 3713 922 3314 415 
Q 2916 -91 2278 -91 
Q 1894 -91 1617 61 
Q 1341 213 1159 525 
z
M 3116 1747 
Q 3116 2381 2855 2742 
Q 2594 3103 2138 3103 
Q 1681 3103 1420 2742 
Q 1159 2381 1159 1747 
Q 1159 1113 1420 752 
Q 1681 391 2138 391 
Q 2594 391 2855 752 
Q 3116 1113 3116 1747 
z
" transform="scale(0.015625)"/>
      <path id="DejaVuSans-65" d="M 3597 1894 
L 3597 1613 
L 953 1613 
Q 991 1019 1311 708 
Q 1631 397 2203 397 
Q 2534 397 2845 478 
Q 3156 559 3463 722 
L 3463 178 
Q 3153 47 2828 -22 
Q 2503 -91 2169 -91 
Q 1331 -91 842 396 
Q 353 884 353 1716 
Q 353 2575 817 3079 
Q 1281 3584 2069 3584 
Q 2775 3584 3186 3129 
Q 3597 2675 3597 1894 
z
M 3022 2063 
Q 3016 2534 2758 2815 
Q 2500 3097 2075 3097 
Q 1594 3097 1305 2825 
Q 1016 2553 972 2059 
L 3022 2063 
z
" transform="scale(0.015625)"/>
      <path id="DejaVuSans-72" d="M 2631 2963 
Q 2534 3019 2420 3045 
Q 2306 3072 2169 3072 
Q 1681 3072 1420 2755 
Q 1159 2438 1159 1844 
L 1159 0 
L 581 0 
L 581 3500 
L 1159 3500 
L 1159 2956 
Q 1341 3275 1631 3429 
Q 1922 3584 2338 3584 
Q 2397 3584 2469 3576 
Q 2541 3569 2628 3553 
L 2631 2963 
z
" transform="scale(0.015625)"/>
      <path id="DejaVuSans-45" d="M 628 4666 
L 3578 4666 
L 3578 4134 
L 1259 4134 
L 1259 2753 
L 3481 2753 
L 3481 2222 
L 1259 2222 
L 1259 531 
L 3634 531 
L 3634 0 
L 628 0 
L 628 4666 
z
" transform="scale(0.015625)"/>
      <path id="DejaVuSans-69" d="M 603 3500 
L 1178 3500 
L 1178 0 
L 603 0 
L 603 3500 
z
M 603 4863 
L 1178 4863 
L 1178 4134 
L 603 4134 
L 603 4863 
z
" transform="scale(0.015625)"/>
      <path id="DejaVuSans-64" d="M 2906 2969 
L 2906 4863 
L 3481 4863 
L 3481 0 
L 2906 0 
L 2906 525 
Q 2725 213 2448 61 
Q 2172 -91 1784 -91 
Q 1150 -91 751 415 
Q 353 922 353 1747 
Q 353 2572 751 3078 
Q 1150 3584 1784 3584 
Q 2172 3584 2448 3432 
Q 2725 3281 2906 2969 
z
M 947 1747 
Q 947 1113 1208 752 
Q 1469 391 1925 391 
Q 2381 391 2643 752 
Q 2906 1113 2906 1747 
Q 2906 2381 2643 2742 
Q 2381 3103 1925 3103 
Q 1469 3103 1208 2742 
Q 947 2381 947 1747 
z
" transform="scale(0.015625)"/>
     </defs>
     <use xlink:href="#DejaVuSans-4c"/>
     <use xlink:href="#DejaVuSans-6f" x="53.962891"/>
     <use xlink:href="#DejaVuSans-73" x="115.144531"/>
     <use xlink:href="#DejaVuSans-73" x="167.244141"/>
     <use xlink:href="#DejaVuSans-20" x="219.34375"/>
     <use xlink:href="#DejaVuSans-70" x="251.130859"/>
     <use xlink:href="#DejaVuSans-65" x="314.607422"/>
     <use xlink:href="#DejaVuSans-72" x="376.130859"/>
     <use xlink:href="#DejaVuSans-20" x="417.244141"/>
     <use xlink:href="#DejaVuSans-45" x="449.03125"/>
     <use xlink:href="#DejaVuSans-70" x="512.214844"/>
     <use xlink:href="#DejaVuSans-69" x="575.691406"/>
     <use xlink:href="#DejaVuSans-73" x="603.474609"/>
     <use xlink:href="#DejaVuSans-6f" x="655.574219"/>
     <use xlink:href="#DejaVuSans-64" x="716.755859"/>
     <use xlink:href="#DejaVuSans-65" x="780.232422"/>
    </g>
   </g>
   <g id="legend_1">
    <g id="patch_7">
     <path d="M 64.6 64.150125 
L 161.164062 64.150125 
Q 163.164062 64.150125 163.164062 62.150125 
L 163.164062 48.472 
Q 163.164062 46.472 161.164062 46.472 
L 64.6 46.472 
Q 62.6 46.472 62.6 48.472 
L 62.6 62.150125 
Q 62.6 64.150125 64.6 64.150125 
z
" style="fill: #ffffff; opacity: 0.8; stroke: #cccccc; stroke-linejoin: miter"/>
    </g>
    <g id="line2d_16">
     <path d="M 66.6 54.570438 
L 76.6 54.570438 
L 86.6 54.570438 
" style="fill: none; stroke: #1f77b4; stroke-width: 1.5; stroke-linecap: square"/>
    </g>
    <g id="text_17">
     <!-- Training Loss -->
     <g transform="translate(94.6 58.070438) scale(0.1 -0.1)">
      <defs>
       <path id="DejaVuSans-54" d="M -19 4666 
L 3928 4666 
L 3928 4134 
L 2272 4134 
L 2272 0 
L 1638 0 
L 1638 4134 
L -19 4134 
L -19 4666 
z
" transform="scale(0.015625)"/>
       <path id="DejaVuSans-61" d="M 2194 1759 
Q 1497 1759 1228 1600 
Q 959 1441 959 1056 
Q 959 750 1161 570 
Q 1363 391 1709 391 
Q 2188 391 2477 730 
Q 2766 1069 2766 1631 
L 2766 1759 
L 2194 1759 
z
M 3341 1997 
L 3341 0 
L 2766 0 
L 2766 531 
Q 2569 213 2275 61 
Q 1981 -91 1556 -91 
Q 1019 -91 701 211 
Q 384 513 384 1019 
Q 384 1609 779 1909 
Q 1175 2209 1959 2209 
L 2766 2209 
L 2766 2266 
Q 2766 2663 2505 2880 
Q 2244 3097 1772 3097 
Q 1472 3097 1187 3025 
Q 903 2953 641 2809 
L 641 3341 
Q 956 3463 1253 3523 
Q 1550 3584 1831 3584 
Q 2591 3584 2966 3190 
Q 3341 2797 3341 1997 
z
" transform="scale(0.015625)"/>
       <path id="DejaVuSans-6e" d="M 3513 2113 
L 3513 0 
L 2938 0 
L 2938 2094 
Q 2938 2591 2744 2837 
Q 2550 3084 2163 3084 
Q 1697 3084 1428 2787 
Q 1159 2491 1159 1978 
L 1159 0 
L 581 0 
L 581 3500 
L 1159 3500 
L 1159 2956 
Q 1366 3272 1645 3428 
Q 1925 3584 2291 3584 
Q 2894 3584 3203 3211 
Q 3513 2838 3513 2113 
z
" transform="scale(0.015625)"/>
       <path id="DejaVuSans-67" d="M 2906 1791 
Q 2906 2416 2648 2759 
Q 2391 3103 1925 3103 
Q 1463 3103 1205 2759 
Q 947 2416 947 1791 
Q 947 1169 1205 825 
Q 1463 481 1925 481 
Q 2391 481 2648 825 
Q 2906 1169 2906 1791 
z
M 3481 434 
Q 3481 -459 3084 -895 
Q 2688 -1331 1869 -1331 
Q 1566 -1331 1297 -1286 
Q 1028 -1241 775 -1147 
L 775 -588 
Q 1028 -725 1275 -790 
Q 1522 -856 1778 -856 
Q 2344 -856 2625 -561 
Q 2906 -266 2906 331 
L 2906 616 
Q 2728 306 2450 153 
Q 2172 0 1784 0 
Q 1141 0 747 490 
Q 353 981 353 1791 
Q 353 2603 747 3093 
Q 1141 3584 1784 3584 
Q 2172 3584 2450 3431 
Q 2728 3278 2906 2969 
L 2906 3500 
L 3481 3500 
L 3481 434 
z
" transform="scale(0.015625)"/>
      </defs>
      <use xlink:href="#DejaVuSans-54"/>
      <use xlink:href="#DejaVuSans-72" x="46.333984"/>
      <use xlink:href="#DejaVuSans-61" x="87.447266"/>
      <use xlink:href="#DejaVuSans-69" x="148.726562"/>
      <use xlink:href="#DejaVuSans-6e" x="176.509766"/>
      <use xlink:href="#DejaVuSans-69" x="239.888672"/>
      <use xlink:href="#DejaVuSans-6e" x="267.671875"/>
      <use xlink:href="#DejaVuSans-67" x="331.050781"/>
      <use xlink:href="#DejaVuSans-20" x="394.527344"/>
      <use xlink:href="#DejaVuSans-4c" x="426.314453"/>
      <use xlink:href="#DejaVuSans-6f" x="480.277344"/>
      <use xlink:href="#DejaVuSans-73" x="541.458984"/>
      <use xlink:href="#DejaVuSans-73" x="593.558594"/>
     </g>
    </g>
   </g>
  </g>
 </g>
 <defs>
  <clipPath id="p2c21ed6397">
   <rect x="57.6" y="41.472" width="357.12" height="266.112"/>
  </clipPath>
 </defs>
</svg>
