<?xml version="1.0" encoding="utf-8" standalone="no"?>
<!DOCTYPE svg PUBLIC "-//W3C//DTD SVG 1.1//EN"
  "http://www.w3.org/Graphics/SVG/1.1/DTD/svg11.dtd">
<svg xmlns:xlink="http://www.w3.org/1999/xlink" width="460.8pt" height="345.6pt" viewBox="0 0 460.8 345.6" xmlns="http://www.w3.org/2000/svg" version="1.1">
 <metadata>
  <rdf:RDF xmlns:dc="http://purl.org/dc/elements/1.1/" xmlns:cc="http://creativecommons.org/ns#" xmlns:rdf="http://www.w3.org/1999/02/22-rdf-syntax-ns#">
   <cc:Work>
    <dc:type rdf:resource="http://purl.org/dc/dcmitype/StillImage"/>
    <dc:date>2024-03-22T17:17:20.596679</dc:date>
    <dc:format>image/svg+xml</dc:format>
    <dc:creator>
     <cc:Agent>
      <dc:title>Matplotlib v3.8.0, https://matplotlib.org/</dc:title>
     </cc:Agent>
    </dc:creator>
   </cc:Work>
  </rdf:RDF>
 </metadata>
 <defs>
  <style type="text/css">*{stroke-linejoin: round; stroke-linecap: butt}</style>
 </defs>
 <g id="figure_1">
  <g id="patch_1">
   <path d="M 0 345.6 
L 460.8 345.6 
L 460.8 0 
L 0 0 
z
" style="fill: #ffffff"/>
  </g>
  <g id="axes_1">
   <g id="patch_2">
    <path d="M 57.6 307.584 
L 414.72 307.584 
L 414.72 41.472 
L 57.6 41.472 
z
" style="fill: #ffffff"/>
   </g>
   <g id="matplotlib.axis_1">
    <g id="xtick_1">
     <g id="line2d_1">
      <defs>
       <path id="ma952b24b1a" d="M 0 0 
L 0 3.5 
" style="stroke: #000000; stroke-width: 0.8"/>
      </defs>
      <g>
       <use xlink:href="#ma952b24b1a" x="73.832727" y="307.584" style="stroke: #000000; stroke-width: 0.8"/>
      </g>
     </g>
     <g id="text_1">
      <!-- 0 -->
      <g transform="translate(70.651477 322.182437) scale(0.1 -0.1)">
       <defs>
        <path id="DejaVuSans-30" d="M 2034 4250 
Q 1547 4250 1301 3770 
Q 1056 3291 1056 2328 
Q 1056 1369 1301 889 
Q 1547 409 2034 409 
Q 2525 409 2770 889 
Q 3016 1369 3016 2328 
Q 3016 3291 2770 3770 
Q 2525 4250 2034 4250 
z
M 2034 4750 
Q 2819 4750 3233 4129 
Q 3647 3509 3647 2328 
Q 3647 1150 3233 529 
Q 2819 -91 2034 -91 
Q 1250 -91 836 529 
Q 422 1150 422 2328 
Q 422 3509 836 4129 
Q 1250 4750 2034 4750 
z
" transform="scale(0.015625)"/>
       </defs>
       <use xlink:href="#DejaVuSans-30"/>
      </g>
     </g>
    </g>
    <g id="xtick_2">
     <g id="line2d_2">
      <g>
       <use xlink:href="#ma952b24b1a" x="114.516254" y="307.584" style="stroke: #000000; stroke-width: 0.8"/>
      </g>
     </g>
     <g id="text_2">
      <!-- 50 -->
      <g transform="translate(108.153754 322.182437) scale(0.1 -0.1)">
       <defs>
        <path id="DejaVuSans-35" d="M 691 4666 
L 3169 4666 
L 3169 4134 
L 1269 4134 
L 1269 2991 
Q 1406 3038 1543 3061 
Q 1681 3084 1819 3084 
Q 2600 3084 3056 2656 
Q 3513 2228 3513 1497 
Q 3513 744 3044 326 
Q 2575 -91 1722 -91 
Q 1428 -91 1123 -41 
Q 819 9 494 109 
L 494 744 
Q 775 591 1075 516 
Q 1375 441 1709 441 
Q 2250 441 2565 725 
Q 2881 1009 2881 1497 
Q 2881 1984 2565 2268 
Q 2250 2553 1709 2553 
Q 1456 2553 1204 2497 
Q 953 2441 691 2322 
L 691 4666 
z
" transform="scale(0.015625)"/>
       </defs>
       <use xlink:href="#DejaVuSans-35"/>
       <use xlink:href="#DejaVuSans-30" x="63.623047"/>
      </g>
     </g>
    </g>
    <g id="xtick_3">
     <g id="line2d_3">
      <g>
       <use xlink:href="#ma952b24b1a" x="155.199781" y="307.584" style="stroke: #000000; stroke-width: 0.8"/>
      </g>
     </g>
     <g id="text_3">
      <!-- 100 -->
      <g transform="translate(145.656031 322.182437) scale(0.1 -0.1)">
       <defs>
        <path id="DejaVuSans-31" d="M 794 531 
L 1825 531 
L 1825 4091 
L 703 3866 
L 703 4441 
L 1819 4666 
L 2450 4666 
L 2450 531 
L 3481 531 
L 3481 0 
L 794 0 
L 794 531 
z
" transform="scale(0.015625)"/>
       </defs>
       <use xlink:href="#DejaVuSans-31"/>
       <use xlink:href="#DejaVuSans-30" x="63.623047"/>
       <use xlink:href="#DejaVuSans-30" x="127.246094"/>
      </g>
     </g>
    </g>
    <g id="xtick_4">
     <g id="line2d_4">
      <g>
       <use xlink:href="#ma952b24b1a" x="195.883308" y="307.584" style="stroke: #000000; stroke-width: 0.8"/>
      </g>
     </g>
     <g id="text_4">
      <!-- 150 -->
      <g transform="translate(186.339558 322.182437) scale(0.1 -0.1)">
       <use xlink:href="#DejaVuSans-31"/>
       <use xlink:href="#DejaVuSans-35" x="63.623047"/>
       <use xlink:href="#DejaVuSans-30" x="127.246094"/>
      </g>
     </g>
    </g>
    <g id="xtick_5">
     <g id="line2d_5">
      <g>
       <use xlink:href="#ma952b24b1a" x="236.566835" y="307.584" style="stroke: #000000; stroke-width: 0.8"/>
      </g>
     </g>
     <g id="text_5">
      <!-- 200 -->
      <g transform="translate(227.023085 322.182437) scale(0.1 -0.1)">
       <defs>
        <path id="DejaVuSans-32" d="M 1228 531 
L 3431 531 
L 3431 0 
L 469 0 
L 469 531 
Q 828 903 1448 1529 
Q 2069 2156 2228 2338 
Q 2531 2678 2651 2914 
Q 2772 3150 2772 3378 
Q 2772 3750 2511 3984 
Q 2250 4219 1831 4219 
Q 1534 4219 1204 4116 
Q 875 4013 500 3803 
L 500 4441 
Q 881 4594 1212 4672 
Q 1544 4750 1819 4750 
Q 2544 4750 2975 4387 
Q 3406 4025 3406 3419 
Q 3406 3131 3298 2873 
Q 3191 2616 2906 2266 
Q 2828 2175 2409 1742 
Q 1991 1309 1228 531 
z
" transform="scale(0.015625)"/>
       </defs>
       <use xlink:href="#DejaVuSans-32"/>
       <use xlink:href="#DejaVuSans-30" x="63.623047"/>
       <use xlink:href="#DejaVuSans-30" x="127.246094"/>
      </g>
     </g>
    </g>
    <g id="xtick_6">
     <g id="line2d_6">
      <g>
       <use xlink:href="#ma952b24b1a" x="277.250362" y="307.584" style="stroke: #000000; stroke-width: 0.8"/>
      </g>
     </g>
     <g id="text_6">
      <!-- 250 -->
      <g transform="translate(267.706612 322.182437) scale(0.1 -0.1)">
       <use xlink:href="#DejaVuSans-32"/>
       <use xlink:href="#DejaVuSans-35" x="63.623047"/>
       <use xlink:href="#DejaVuSans-30" x="127.246094"/>
      </g>
     </g>
    </g>
    <g id="xtick_7">
     <g id="line2d_7">
      <g>
       <use xlink:href="#ma952b24b1a" x="317.933889" y="307.584" style="stroke: #000000; stroke-width: 0.8"/>
      </g>
     </g>
     <g id="text_7">
      <!-- 300 -->
      <g transform="translate(308.390139 322.182437) scale(0.1 -0.1)">
       <defs>
        <path id="DejaVuSans-33" d="M 2597 2516 
Q 3050 2419 3304 2112 
Q 3559 1806 3559 1356 
Q 3559 666 3084 287 
Q 2609 -91 1734 -91 
Q 1441 -91 1130 -33 
Q 819 25 488 141 
L 488 750 
Q 750 597 1062 519 
Q 1375 441 1716 441 
Q 2309 441 2620 675 
Q 2931 909 2931 1356 
Q 2931 1769 2642 2001 
Q 2353 2234 1838 2234 
L 1294 2234 
L 1294 2753 
L 1863 2753 
Q 2328 2753 2575 2939 
Q 2822 3125 2822 3475 
Q 2822 3834 2567 4026 
Q 2313 4219 1838 4219 
Q 1578 4219 1281 4162 
Q 984 4106 628 3988 
L 628 4550 
Q 988 4650 1302 4700 
Q 1616 4750 1894 4750 
Q 2613 4750 3031 4423 
Q 3450 4097 3450 3541 
Q 3450 3153 3228 2886 
Q 3006 2619 2597 2516 
z
" transform="scale(0.015625)"/>
       </defs>
       <use xlink:href="#DejaVuSans-33"/>
       <use xlink:href="#DejaVuSans-30" x="63.623047"/>
       <use xlink:href="#DejaVuSans-30" x="127.246094"/>
      </g>
     </g>
    </g>
    <g id="xtick_8">
     <g id="line2d_8">
      <g>
       <use xlink:href="#ma952b24b1a" x="358.617416" y="307.584" style="stroke: #000000; stroke-width: 0.8"/>
      </g>
     </g>
     <g id="text_8">
      <!-- 350 -->
      <g transform="translate(349.073666 322.182437) scale(0.1 -0.1)">
       <use xlink:href="#DejaVuSans-33"/>
       <use xlink:href="#DejaVuSans-35" x="63.623047"/>
       <use xlink:href="#DejaVuSans-30" x="127.246094"/>
      </g>
     </g>
    </g>
    <g id="xtick_9">
     <g id="line2d_9">
      <g>
       <use xlink:href="#ma952b24b1a" x="399.300943" y="307.584" style="stroke: #000000; stroke-width: 0.8"/>
      </g>
     </g>
     <g id="text_9">
      <!-- 400 -->
      <g transform="translate(389.757193 322.182437) scale(0.1 -0.1)">
       <defs>
        <path id="DejaVuSans-34" d="M 2419 4116 
L 825 1625 
L 2419 1625 
L 2419 4116 
z
M 2253 4666 
L 3047 4666 
L 3047 1625 
L 3713 1625 
L 3713 1100 
L 3047 1100 
L 3047 0 
L 2419 0 
L 2419 1100 
L 313 1100 
L 313 1709 
L 2253 4666 
z
" transform="scale(0.015625)"/>
       </defs>
       <use xlink:href="#DejaVuSans-34"/>
       <use xlink:href="#DejaVuSans-30" x="63.623047"/>
       <use xlink:href="#DejaVuSans-30" x="127.246094"/>
      </g>
     </g>
    </g>
   </g>
   <g id="matplotlib.axis_2">
    <g id="ytick_1">
     <g id="line2d_10">
      <defs>
       <path id="m686a4c9319" d="M 0 0 
L -3.5 0 
" style="stroke: #000000; stroke-width: 0.8"/>
      </defs>
      <g>
       <use xlink:href="#m686a4c9319" x="57.6" y="286.374575" style="stroke: #000000; stroke-width: 0.8"/>
      </g>
     </g>
     <g id="text_10">
      <!-- 50 -->
      <g transform="translate(37.875 290.173794) scale(0.1 -0.1)">
       <use xlink:href="#DejaVuSans-35"/>
       <use xlink:href="#DejaVuSans-30" x="63.623047"/>
      </g>
     </g>
    </g>
    <g id="ytick_2">
     <g id="line2d_11">
      <g>
       <use xlink:href="#m686a4c9319" x="57.6" y="244.949918" style="stroke: #000000; stroke-width: 0.8"/>
      </g>
     </g>
     <g id="text_11">
      <!-- 100 -->
      <g transform="translate(31.5125 248.749137) scale(0.1 -0.1)">
       <use xlink:href="#DejaVuSans-31"/>
       <use xlink:href="#DejaVuSans-30" x="63.623047"/>
       <use xlink:href="#DejaVuSans-30" x="127.246094"/>
      </g>
     </g>
    </g>
    <g id="ytick_3">
     <g id="line2d_12">
      <g>
       <use xlink:href="#m686a4c9319" x="57.6" y="203.52526" style="stroke: #000000; stroke-width: 0.8"/>
      </g>
     </g>
     <g id="text_12">
      <!-- 150 -->
      <g transform="translate(31.5125 207.324479) scale(0.1 -0.1)">
       <use xlink:href="#DejaVuSans-31"/>
       <use xlink:href="#DejaVuSans-35" x="63.623047"/>
       <use xlink:href="#DejaVuSans-30" x="127.246094"/>
      </g>
     </g>
    </g>
    <g id="ytick_4">
     <g id="line2d_13">
      <g>
       <use xlink:href="#m686a4c9319" x="57.6" y="162.100603" style="stroke: #000000; stroke-width: 0.8"/>
      </g>
     </g>
     <g id="text_13">
      <!-- 200 -->
      <g transform="translate(31.5125 165.899821) scale(0.1 -0.1)">
       <use xlink:href="#DejaVuSans-32"/>
       <use xlink:href="#DejaVuSans-30" x="63.623047"/>
       <use xlink:href="#DejaVuSans-30" x="127.246094"/>
      </g>
     </g>
    </g>
    <g id="ytick_5">
     <g id="line2d_14">
      <g>
       <use xlink:href="#m686a4c9319" x="57.6" y="120.675945" style="stroke: #000000; stroke-width: 0.8"/>
      </g>
     </g>
     <g id="text_14">
      <!-- 250 -->
      <g transform="translate(31.5125 124.475164) scale(0.1 -0.1)">
       <use xlink:href="#DejaVuSans-32"/>
       <use xlink:href="#DejaVuSans-35" x="63.623047"/>
       <use xlink:href="#DejaVuSans-30" x="127.246094"/>
      </g>
     </g>
    </g>
    <g id="ytick_6">
     <g id="line2d_15">
      <g>
       <use xlink:href="#m686a4c9319" x="57.6" y="79.251288" style="stroke: #000000; stroke-width: 0.8"/>
      </g>
     </g>
     <g id="text_15">
      <!-- 300 -->
      <g transform="translate(31.5125 83.050506) scale(0.1 -0.1)">
       <use xlink:href="#DejaVuSans-33"/>
       <use xlink:href="#DejaVuSans-30" x="63.623047"/>
       <use xlink:href="#DejaVuSans-30" x="127.246094"/>
      </g>
     </g>
    </g>
    <g id="text_16">
     <!-- Episode Length -->
     <g transform="translate(25.432812 213.001438) rotate(-90) scale(0.1 -0.1)">
      <defs>
       <path id="DejaVuSans-45" d="M 628 4666 
L 3578 4666 
L 3578 4134 
L 1259 4134 
L 1259 2753 
L 3481 2753 
L 3481 2222 
L 1259 2222 
L 1259 531 
L 3634 531 
L 3634 0 
L 628 0 
L 628 4666 
z
" transform="scale(0.015625)"/>
       <path id="DejaVuSans-70" d="M 1159 525 
L 1159 -1331 
L 581 -1331 
L 581 3500 
L 1159 3500 
L 1159 2969 
Q 1341 3281 1617 3432 
Q 1894 3584 2278 3584 
Q 2916 3584 3314 3078 
Q 3713 2572 3713 1747 
Q 3713 922 3314 415 
Q 2916 -91 2278 -91 
Q 1894 -91 1617 61 
Q 1341 213 1159 525 
z
M 3116 1747 
Q 3116 2381 2855 2742 
Q 2594 3103 2138 3103 
Q 1681 3103 1420 2742 
Q 1159 2381 1159 1747 
Q 1159 1113 1420 752 
Q 1681 391 2138 391 
Q 2594 391 2855 752 
Q 3116 1113 3116 1747 
z
" transform="scale(0.015625)"/>
       <path id="DejaVuSans-69" d="M 603 3500 
L 1178 3500 
L 1178 0 
L 603 0 
L 603 3500 
z
M 603 4863 
L 1178 4863 
L 1178 4134 
L 603 4134 
L 603 4863 
z
" transform="scale(0.015625)"/>
       <path id="DejaVuSans-73" d="M 2834 3397 
L 2834 2853 
Q 2591 2978 2328 3040 
Q 2066 3103 1784 3103 
Q 1356 3103 1142 2972 
Q 928 2841 928 2578 
Q 928 2378 1081 2264 
Q 1234 2150 1697 2047 
L 1894 2003 
Q 2506 1872 2764 1633 
Q 3022 1394 3022 966 
Q 3022 478 2636 193 
Q 2250 -91 1575 -91 
Q 1294 -91 989 -36 
Q 684 19 347 128 
L 347 722 
Q 666 556 975 473 
Q 1284 391 1588 391 
Q 1994 391 2212 530 
Q 2431 669 2431 922 
Q 2431 1156 2273 1281 
Q 2116 1406 1581 1522 
L 1381 1569 
Q 847 1681 609 1914 
Q 372 2147 372 2553 
Q 372 3047 722 3315 
Q 1072 3584 1716 3584 
Q 2034 3584 2315 3537 
Q 2597 3491 2834 3397 
z
" transform="scale(0.015625)"/>
       <path id="DejaVuSans-6f" d="M 1959 3097 
Q 1497 3097 1228 2736 
Q 959 2375 959 1747 
Q 959 1119 1226 758 
Q 1494 397 1959 397 
Q 2419 397 2687 759 
Q 2956 1122 2956 1747 
Q 2956 2369 2687 2733 
Q 2419 3097 1959 3097 
z
M 1959 3584 
Q 2709 3584 3137 3096 
Q 3566 2609 3566 1747 
Q 3566 888 3137 398 
Q 2709 -91 1959 -91 
Q 1206 -91 779 398 
Q 353 888 353 1747 
Q 353 2609 779 3096 
Q 1206 3584 1959 3584 
z
" transform="scale(0.015625)"/>
       <path id="DejaVuSans-64" d="M 2906 2969 
L 2906 4863 
L 3481 4863 
L 3481 0 
L 2906 0 
L 2906 525 
Q 2725 213 2448 61 
Q 2172 -91 1784 -91 
Q 1150 -91 751 415 
Q 353 922 353 1747 
Q 353 2572 751 3078 
Q 1150 3584 1784 3584 
Q 2172 3584 2448 3432 
Q 2725 3281 2906 2969 
z
M 947 1747 
Q 947 1113 1208 752 
Q 1469 391 1925 391 
Q 2381 391 2643 752 
Q 2906 1113 2906 1747 
Q 2906 2381 2643 2742 
Q 2381 3103 1925 3103 
Q 1469 3103 1208 2742 
Q 947 2381 947 1747 
z
" transform="scale(0.015625)"/>
       <path id="DejaVuSans-65" d="M 3597 1894 
L 3597 1613 
L 953 1613 
Q 991 1019 1311 708 
Q 1631 397 2203 397 
Q 2534 397 2845 478 
Q 3156 559 3463 722 
L 3463 178 
Q 3153 47 2828 -22 
Q 2503 -91 2169 -91 
Q 1331 -91 842 396 
Q 353 884 353 1716 
Q 353 2575 817 3079 
Q 1281 3584 2069 3584 
Q 2775 3584 3186 3129 
Q 3597 2675 3597 1894 
z
M 3022 2063 
Q 3016 2534 2758 2815 
Q 2500 3097 2075 3097 
Q 1594 3097 1305 2825 
Q 1016 2553 972 2059 
L 3022 2063 
z
" transform="scale(0.015625)"/>
       <path id="DejaVuSans-20" transform="scale(0.015625)"/>
       <path id="DejaVuSans-4c" d="M 628 4666 
L 1259 4666 
L 1259 531 
L 3531 531 
L 3531 0 
L 628 0 
L 628 4666 
z
" transform="scale(0.015625)"/>
       <path id="DejaVuSans-6e" d="M 3513 2113 
L 3513 0 
L 2938 0 
L 2938 2094 
Q 2938 2591 2744 2837 
Q 2550 3084 2163 3084 
Q 1697 3084 1428 2787 
Q 1159 2491 1159 1978 
L 1159 0 
L 581 0 
L 581 3500 
L 1159 3500 
L 1159 2956 
Q 1366 3272 1645 3428 
Q 1925 3584 2291 3584 
Q 2894 3584 3203 3211 
Q 3513 2838 3513 2113 
z
" transform="scale(0.015625)"/>
       <path id="DejaVuSans-67" d="M 2906 1791 
Q 2906 2416 2648 2759 
Q 2391 3103 1925 3103 
Q 1463 3103 1205 2759 
Q 947 2416 947 1791 
Q 947 1169 1205 825 
Q 1463 481 1925 481 
Q 2391 481 2648 825 
Q 2906 1169 2906 1791 
z
M 3481 434 
Q 3481 -459 3084 -895 
Q 2688 -1331 1869 -1331 
Q 1566 -1331 1297 -1286 
Q 1028 -1241 775 -1147 
L 775 -588 
Q 1028 -725 1275 -790 
Q 1522 -856 1778 -856 
Q 2344 -856 2625 -561 
Q 2906 -266 2906 331 
L 2906 616 
Q 2728 306 2450 153 
Q 2172 0 1784 0 
Q 1141 0 747 490 
Q 353 981 353 1791 
Q 353 2603 747 3093 
Q 1141 3584 1784 3584 
Q 2172 3584 2450 3431 
Q 2728 3278 2906 2969 
L 2906 3500 
L 3481 3500 
L 3481 434 
z
" transform="scale(0.015625)"/>
       <path id="DejaVuSans-74" d="M 1172 4494 
L 1172 3500 
L 2356 3500 
L 2356 3053 
L 1172 3053 
L 1172 1153 
Q 1172 725 1289 603 
Q 1406 481 1766 481 
L 2356 481 
L 2356 0 
L 1766 0 
Q 1100 0 847 248 
Q 594 497 594 1153 
L 594 3053 
L 172 3053 
L 172 3500 
L 594 3500 
L 594 4494 
L 1172 4494 
z
" transform="scale(0.015625)"/>
       <path id="DejaVuSans-68" d="M 3513 2113 
L 3513 0 
L 2938 0 
L 2938 2094 
Q 2938 2591 2744 2837 
Q 2550 3084 2163 3084 
Q 1697 3084 1428 2787 
Q 1159 2491 1159 1978 
L 1159 0 
L 581 0 
L 581 4863 
L 1159 4863 
L 1159 2956 
Q 1366 3272 1645 3428 
Q 1925 3584 2291 3584 
Q 2894 3584 3203 3211 
Q 3513 2838 3513 2113 
z
" transform="scale(0.015625)"/>
      </defs>
      <use xlink:href="#DejaVuSans-45"/>
      <use xlink:href="#DejaVuSans-70" x="63.183594"/>
      <use xlink:href="#DejaVuSans-69" x="126.660156"/>
      <use xlink:href="#DejaVuSans-73" x="154.443359"/>
      <use xlink:href="#DejaVuSans-6f" x="206.542969"/>
      <use xlink:href="#DejaVuSans-64" x="267.724609"/>
      <use xlink:href="#DejaVuSans-65" x="331.201172"/>
      <use xlink:href="#DejaVuSans-20" x="392.724609"/>
      <use xlink:href="#DejaVuSans-4c" x="424.511719"/>
      <use xlink:href="#DejaVuSans-65" x="478.474609"/>
      <use xlink:href="#DejaVuSans-6e" x="539.998047"/>
      <use xlink:href="#DejaVuSans-67" x="603.376953"/>
      <use xlink:href="#DejaVuSans-74" x="666.853516"/>
      <use xlink:href="#DejaVuSans-68" x="706.0625"/>
     </g>
    </g>
   </g>
   <g id="line2d_16">
    <path d="M 73.832727 206.01074 
L 74.646398 254.891836 
L 75.460068 193.583342 
L 76.273739 267.319233 
L 77.087409 268.976219 
L 77.90108 179.498959 
L 78.714751 254.891836 
L 79.528421 242.464438 
L 80.342092 199.382795 
L 81.155762 256.548822 
L 81.969433 256.548822 
L 82.783103 275.604164 
L 83.596774 226.723068 
L 84.410444 196.068822 
L 85.224115 265.662247 
L 86.037785 242.464438 
L 86.851456 234.179507 
L 87.665126 261.519781 
L 88.478797 269.804712 
L 89.292468 274.775671 
L 90.106138 200.211288 
L 90.919809 244.121425 
L 91.733479 250.74937 
L 92.54715 262.348274 
L 93.36082 248.26389 
L 94.988161 274.775671 
L 95.801832 248.26389 
L 96.615502 259.034301 
L 97.429173 255.720329 
L 98.242843 243.292932 
L 99.056514 235.008 
L 99.870185 266.49074 
L 100.683855 273.118685 
L 101.497526 194.411836 
L 102.311196 217.609644 
L 103.124867 208.496219 
L 103.938537 201.039781 
L 104.752208 230.865534 
L 105.565878 275.604164 
L 106.379549 258.205808 
L 107.193219 208.496219 
L 108.00689 256.548822 
L 108.82056 276.432658 
L 109.634231 273.947178 
L 110.447902 228.380055 
L 111.261572 218.438137 
L 112.075243 249.920877 
L 113.702584 282.23211 
L 114.516254 260.691288 
L 115.329925 267.319233 
L 116.143595 252.406356 
L 116.957266 279.74663 
L 117.770936 251.577863 
L 118.584607 216.781151 
L 119.398278 258.205808 
L 120.211948 265.662247 
L 121.025619 248.26389 
L 121.839289 272.290192 
L 122.65296 283.889096 
L 123.46663 289.688548 
L 124.280301 252.406356 
L 125.093971 283.060603 
L 125.907642 235.008 
L 126.721312 219.26663 
L 127.534983 187.78389 
L 129.975995 237.493479 
L 130.789665 232.522521 
L 131.603336 232.522521 
L 132.417006 221.75211 
L 133.230677 274.775671 
L 134.044347 244.121425 
L 134.858018 238.321973 
L 135.671688 237.493479 
L 136.485359 278.089644 
L 137.299029 223.409096 
L 138.1127 248.26389 
L 138.92637 249.092384 
L 139.740041 203.52526 
L 140.553712 258.205808 
L 141.367382 257.377315 
L 142.181053 255.720329 
L 142.994723 238.321973 
L 143.808394 282.23211 
L 144.622064 254.063342 
L 145.435735 210.153205 
L 146.249405 259.034301 
L 147.063076 264.833753 
L 147.876746 243.292932 
L 148.690417 244.121425 
L 149.504087 260.691288 
L 150.317758 212.638685 
L 151.131429 235.008 
L 151.945099 248.26389 
L 152.75877 232.522521 
L 153.57244 258.205808 
L 154.386111 203.52526 
L 155.199781 250.74937 
L 156.013452 268.976219 
L 156.827122 271.461699 
L 157.640793 220.095123 
L 158.454463 258.205808 
L 159.268134 252.406356 
L 160.081805 196.897315 
L 160.895475 266.49074 
L 161.709146 196.897315 
L 162.522816 219.26663 
L 163.336487 262.348274 
L 164.150157 183.641425 
L 164.963828 216.781151 
L 165.777498 231.694027 
L 166.591169 242.464438 
L 167.404839 198.554301 
L 168.21851 263.176767 
L 169.03218 199.382795 
L 169.845851 228.380055 
L 170.659522 270.633205 
L 171.473192 244.949918 
L 172.286863 247.435397 
L 173.100533 244.121425 
L 173.914204 196.068822 
L 174.727874 210.981699 
L 175.541545 249.920877 
L 176.355215 215.124164 
L 177.168886 278.918137 
L 177.982556 157.129644 
L 178.796227 264.833753 
L 179.609897 215.952658 
L 180.423568 242.464438 
L 181.237239 175.356493 
L 182.050909 272.290192 
L 182.86458 185.298411 
L 183.67825 241.635945 
L 184.491921 269.804712 
L 185.305591 254.891836 
L 186.119262 228.380055 
L 186.932932 154.644164 
L 187.746603 234.179507 
L 189.373944 271.461699 
L 190.187614 269.804712 
L 191.001285 263.176767 
L 191.814956 197.725808 
L 192.628626 212.638685 
L 193.442297 166.243068 
L 194.255967 216.781151 
L 195.069638 208.496219 
L 195.883308 205.182247 
L 196.696979 174.528 
L 197.510649 122.332932 
L 198.32432 281.403616 
L 199.13799 213.467178 
L 199.951661 203.52526 
L 200.765332 232.522521 
L 201.579002 295.488 
L 202.392673 210.153205 
L 203.206343 262.348274 
L 204.020014 262.348274 
L 204.833684 193.583342 
L 205.647355 273.118685 
L 206.461025 173.699507 
L 207.274696 215.124164 
L 208.088366 209.324712 
L 208.902037 248.26389 
L 209.715707 206.01074 
L 210.529378 220.095123 
L 211.343049 216.781151 
L 212.156719 263.176767 
L 212.97039 267.319233 
L 213.78406 258.205808 
L 214.597731 131.446356 
L 215.411401 261.519781 
L 216.225072 149.673205 
L 217.038742 252.406356 
L 217.852413 253.234849 
L 218.666083 226.723068 
L 219.479754 215.952658 
L 220.293424 270.633205 
L 221.107095 279.74663 
L 221.920766 230.037041 
L 222.734436 251.577863 
L 223.548107 191.926356 
L 224.361777 257.377315 
L 225.175448 204.353753 
L 225.989118 171.214027 
L 226.802789 264.00526 
L 227.616459 259.034301 
L 228.43013 248.26389 
L 229.2438 189.440877 
L 230.057471 240.807452 
L 230.871141 256.548822 
L 231.684812 259.034301 
L 232.498483 260.691288 
L 233.312153 239.978959 
L 234.125824 245.778411 
L 234.939494 222.580603 
L 235.753165 141.388274 
L 236.566835 235.836493 
L 237.380506 199.382795 
L 238.194176 208.496219 
L 239.007847 200.211288 
L 239.821517 173.699507 
L 240.635188 233.351014 
L 241.448859 210.153205 
L 242.262529 205.182247 
L 243.0762 198.554301 
L 243.88987 152.158685 
L 244.703541 231.694027 
L 245.517211 265.662247 
L 246.330882 207.667726 
L 247.144552 211.810192 
L 247.958223 137.245808 
L 248.771893 256.548822 
L 249.585564 200.211288 
L 250.399234 260.691288 
L 251.212905 227.551562 
L 252.026576 150.501699 
L 252.840246 227.551562 
L 254.467587 208.496219 
L 255.281258 161.27211 
L 256.094928 152.158685 
L 256.908599 284.717589 
L 257.722269 256.548822 
L 258.53594 278.089644 
L 259.34961 192.754849 
L 260.163281 253.234849 
L 260.976951 217.609644 
L 261.790622 263.176767 
L 262.604293 216.781151 
L 263.417963 234.179507 
L 264.231634 236.664986 
L 265.045304 232.522521 
L 265.858975 202.696767 
L 266.672645 183.641425 
L 267.486316 258.205808 
L 268.299986 180.327452 
L 269.113657 238.321973 
L 269.927327 245.778411 
L 270.740998 163.757589 
L 271.554668 217.609644 
L 272.368339 187.78389 
L 273.18201 240.807452 
L 273.99568 247.435397 
L 274.809351 259.034301 
L 275.623021 204.353753 
L 277.250362 267.319233 
L 278.064033 273.118685 
L 278.877703 200.211288 
L 279.691374 275.604164 
L 280.505044 215.952658 
L 281.318715 106.591562 
L 282.132386 246.606904 
L 282.946056 228.380055 
L 283.759727 197.725808 
L 284.573397 275.604164 
L 285.387068 148.016219 
L 286.200738 217.609644 
L 287.014409 187.78389 
L 287.828079 212.638685 
L 288.64175 165.414575 
L 289.45542 178.670466 
L 290.269091 158.78663 
L 291.082761 250.74937 
L 291.896432 262.348274 
L 292.710103 198.554301 
L 293.523773 272.290192 
L 294.337444 249.920877 
L 295.151114 222.580603 
L 295.964785 255.720329 
L 296.778455 219.26663 
L 297.592126 241.635945 
L 298.405796 236.664986 
L 299.219467 183.641425 
L 300.033137 265.662247 
L 300.846808 167.071562 
L 301.660478 262.348274 
L 302.474149 102.449096 
L 303.28782 271.461699 
L 304.10149 225.894575 
L 304.915161 244.949918 
L 305.728831 222.580603 
L 306.542502 118.190466 
L 307.356172 216.781151 
L 308.169843 251.577863 
L 308.983513 190.26937 
L 309.797184 162.100603 
L 310.610854 213.467178 
L 311.424525 184.469918 
L 313.051866 265.662247 
L 313.865537 219.26663 
L 314.679207 138.074301 
L 315.492878 203.52526 
L 316.306548 210.981699 
L 317.120219 270.633205 
L 317.933889 245.778411 
L 318.74756 244.121425 
L 319.56123 194.411836 
L 320.374901 255.720329 
L 321.188571 239.150466 
L 322.002242 170.385534 
L 322.815913 202.696767 
L 323.629583 175.356493 
L 324.443254 225.894575 
L 325.256924 172.871014 
L 326.070595 177.013479 
L 326.884265 199.382795 
L 327.697936 208.496219 
L 328.511606 242.464438 
L 329.325277 152.158685 
L 330.138947 274.775671 
L 330.952618 254.891836 
L 331.766288 227.551562 
L 332.579959 165.414575 
L 333.39363 206.01074 
L 334.2073 259.034301 
L 335.020971 293.002521 
L 335.834641 209.324712 
L 336.648312 182.812932 
L 337.461982 237.493479 
L 338.275653 206.839233 
L 339.089323 273.118685 
L 339.902994 192.754849 
L 340.716664 100.79211 
L 341.530335 258.205808 
L 342.344005 232.522521 
L 343.157676 191.097863 
L 343.971347 240.807452 
L 344.785017 235.008 
L 345.598688 208.496219 
L 346.412358 189.440877 
L 347.226029 239.978959 
L 348.039699 163.757589 
L 348.85337 210.153205 
L 349.66704 249.920877 
L 350.480711 194.411836 
L 351.294381 242.464438 
L 352.108052 138.902795 
L 352.921722 145.53074 
L 353.735393 209.324712 
L 354.549064 207.667726 
L 355.362734 202.696767 
L 356.176405 277.261151 
L 356.990075 181.984438 
L 357.803746 176.184986 
L 358.617416 201.868274 
L 359.431087 200.211288 
L 360.244757 169.557041 
L 361.058428 53.568 
L 361.872098 285.546082 
L 362.685769 99.963616 
L 363.49944 177.841973 
L 364.31311 238.321973 
L 365.126781 189.440877 
L 365.940451 195.240329 
L 366.754122 207.667726 
L 367.567792 173.699507 
L 368.381463 236.664986 
L 369.195133 185.298411 
L 370.008804 177.841973 
L 370.822474 173.699507 
L 371.636145 196.897315 
L 372.449815 230.865534 
L 373.263486 187.78389 
L 374.077157 212.638685 
L 374.890827 198.554301 
L 375.704498 271.461699 
L 377.331839 162.929096 
L 378.145509 152.987178 
L 378.95918 201.868274 
L 379.77285 214.295671 
L 380.586521 250.74937 
L 382.213862 167.071562 
L 383.027532 241.635945 
L 383.841203 239.978959 
L 384.654874 213.467178 
L 385.468544 278.089644 
L 386.282215 261.519781 
L 387.095885 238.321973 
L 387.909556 160.443616 
L 388.723226 157.129644 
L 389.536897 244.121425 
L 390.350567 143.873753 
L 391.164238 259.862795 
L 391.977908 187.78389 
L 392.791579 217.609644 
L 393.605249 191.926356 
L 394.41892 203.52526 
L 395.232591 181.155945 
L 396.046261 235.008 
L 396.859932 211.810192 
L 397.673602 259.034301 
L 398.487273 205.182247 
L 398.487273 205.182247 
" clip-path="url(#pc86a447c4a)" style="fill: none; stroke: #1f77b4; stroke-width: 1.5; stroke-linecap: square"/>
   </g>
   <g id="patch_3">
    <path d="M 57.6 307.584 
L 57.6 41.472 
" style="fill: none; stroke: #000000; stroke-width: 0.8; stroke-linejoin: miter; stroke-linecap: square"/>
   </g>
   <g id="patch_4">
    <path d="M 414.72 307.584 
L 414.72 41.472 
" style="fill: none; stroke: #000000; stroke-width: 0.8; stroke-linejoin: miter; stroke-linecap: square"/>
   </g>
   <g id="patch_5">
    <path d="M 57.6 307.584 
L 414.72 307.584 
" style="fill: none; stroke: #000000; stroke-width: 0.8; stroke-linejoin: miter; stroke-linecap: square"/>
   </g>
   <g id="patch_6">
    <path d="M 57.6 41.472 
L 414.72 41.472 
" style="fill: none; stroke: #000000; stroke-width: 0.8; stroke-linejoin: miter; stroke-linecap: square"/>
   </g>
   <g id="text_17">
    <!-- Episode Length -->
    <g transform="translate(189.991875 35.472) scale(0.12 -0.12)">
     <use xlink:href="#DejaVuSans-45"/>
     <use xlink:href="#DejaVuSans-70" x="63.183594"/>
     <use xlink:href="#DejaVuSans-69" x="126.660156"/>
     <use xlink:href="#DejaVuSans-73" x="154.443359"/>
     <use xlink:href="#DejaVuSans-6f" x="206.542969"/>
     <use xlink:href="#DejaVuSans-64" x="267.724609"/>
     <use xlink:href="#DejaVuSans-65" x="331.201172"/>
     <use xlink:href="#DejaVuSans-20" x="392.724609"/>
     <use xlink:href="#DejaVuSans-4c" x="424.511719"/>
     <use xlink:href="#DejaVuSans-65" x="478.474609"/>
     <use xlink:href="#DejaVuSans-6e" x="539.998047"/>
     <use xlink:href="#DejaVuSans-67" x="603.376953"/>
     <use xlink:href="#DejaVuSans-74" x="666.853516"/>
     <use xlink:href="#DejaVuSans-68" x="706.0625"/>
    </g>
   </g>
   <g id="legend_1">
    <g id="patch_7">
     <path d="M 64.6 64.150125 
L 173.546875 64.150125 
Q 175.546875 64.150125 175.546875 62.150125 
L 175.546875 48.472 
Q 175.546875 46.472 173.546875 46.472 
L 64.6 46.472 
Q 62.6 46.472 62.6 48.472 
L 62.6 62.150125 
Q 62.6 64.150125 64.6 64.150125 
z
" style="fill: #ffffff; opacity: 0.8; stroke: #cccccc; stroke-linejoin: miter"/>
    </g>
    <g id="line2d_17">
     <path d="M 66.6 54.570438 
L 76.6 54.570438 
L 86.6 54.570438 
" style="fill: none; stroke: #1f77b4; stroke-width: 1.5; stroke-linecap: square"/>
    </g>
    <g id="text_18">
     <!-- Episode Length -->
     <g transform="translate(94.6 58.070438) scale(0.1 -0.1)">
      <use xlink:href="#DejaVuSans-45"/>
      <use xlink:href="#DejaVuSans-70" x="63.183594"/>
      <use xlink:href="#DejaVuSans-69" x="126.660156"/>
      <use xlink:href="#DejaVuSans-73" x="154.443359"/>
      <use xlink:href="#DejaVuSans-6f" x="206.542969"/>
      <use xlink:href="#DejaVuSans-64" x="267.724609"/>
      <use xlink:href="#DejaVuSans-65" x="331.201172"/>
      <use xlink:href="#DejaVuSans-20" x="392.724609"/>
      <use xlink:href="#DejaVuSans-4c" x="424.511719"/>
      <use xlink:href="#DejaVuSans-65" x="478.474609"/>
      <use xlink:href="#DejaVuSans-6e" x="539.998047"/>
      <use xlink:href="#DejaVuSans-67" x="603.376953"/>
      <use xlink:href="#DejaVuSans-74" x="666.853516"/>
      <use xlink:href="#DejaVuSans-68" x="706.0625"/>
     </g>
    </g>
   </g>
  </g>
 </g>
 <defs>
  <clipPath id="pc86a447c4a">
   <rect x="57.6" y="41.472" width="357.12" height="266.112"/>
  </clipPath>
 </defs>
</svg>
