<?xml version="1.0" encoding="utf-8" standalone="no"?>
<!DOCTYPE svg PUBLIC "-//W3C//DTD SVG 1.1//EN"
  "http://www.w3.org/Graphics/SVG/1.1/DTD/svg11.dtd">
<svg xmlns:xlink="http://www.w3.org/1999/xlink" width="460.8pt" height="345.6pt" viewBox="0 0 460.8 345.6" xmlns="http://www.w3.org/2000/svg" version="1.1">
 <metadata>
  <rdf:RDF xmlns:dc="http://purl.org/dc/elements/1.1/" xmlns:cc="http://creativecommons.org/ns#" xmlns:rdf="http://www.w3.org/1999/02/22-rdf-syntax-ns#">
   <cc:Work>
    <dc:type rdf:resource="http://purl.org/dc/dcmitype/StillImage"/>
    <dc:date>2024-03-22T16:43:00.893523</dc:date>
    <dc:format>image/svg+xml</dc:format>
    <dc:creator>
     <cc:Agent>
      <dc:title>Matplotlib v3.8.0, https://matplotlib.org/</dc:title>
     </cc:Agent>
    </dc:creator>
   </cc:Work>
  </rdf:RDF>
 </metadata>
 <defs>
  <style type="text/css">*{stroke-linejoin: round; stroke-linecap: butt}</style>
 </defs>
 <g id="figure_1">
  <g id="patch_1">
   <path d="M 0 345.6 
L 460.8 345.6 
L 460.8 0 
L 0 0 
z
" style="fill: #ffffff"/>
  </g>
  <g id="axes_1">
   <g id="patch_2">
    <path d="M 57.6 307.584 
L 414.72 307.584 
L 414.72 41.472 
L 57.6 41.472 
z
" style="fill: #ffffff"/>
   </g>
   <g id="matplotlib.axis_1">
    <g id="xtick_1">
     <g id="line2d_1">
      <defs>
       <path id="m06a32d16d7" d="M 0 0 
L 0 3.5 
" style="stroke: #000000; stroke-width: 0.8"/>
      </defs>
      <g>
       <use xlink:href="#m06a32d16d7" x="73.832727" y="307.584" style="stroke: #000000; stroke-width: 0.8"/>
      </g>
     </g>
     <g id="text_1">
      <!-- 0 -->
      <g transform="translate(70.651477 322.182437) scale(0.1 -0.1)">
       <defs>
        <path id="DejaVuSans-30" d="M 2034 4250 
Q 1547 4250 1301 3770 
Q 1056 3291 1056 2328 
Q 1056 1369 1301 889 
Q 1547 409 2034 409 
Q 2525 409 2770 889 
Q 3016 1369 3016 2328 
Q 3016 3291 2770 3770 
Q 2525 4250 2034 4250 
z
M 2034 4750 
Q 2819 4750 3233 4129 
Q 3647 3509 3647 2328 
Q 3647 1150 3233 529 
Q 2819 -91 2034 -91 
Q 1250 -91 836 529 
Q 422 1150 422 2328 
Q 422 3509 836 4129 
Q 1250 4750 2034 4750 
z
" transform="scale(0.015625)"/>
       </defs>
       <use xlink:href="#DejaVuSans-30"/>
      </g>
     </g>
    </g>
    <g id="xtick_2">
     <g id="line2d_2">
      <g>
       <use xlink:href="#m06a32d16d7" x="114.516254" y="307.584" style="stroke: #000000; stroke-width: 0.8"/>
      </g>
     </g>
     <g id="text_2">
      <!-- 50 -->
      <g transform="translate(108.153754 322.182437) scale(0.1 -0.1)">
       <defs>
        <path id="DejaVuSans-35" d="M 691 4666 
L 3169 4666 
L 3169 4134 
L 1269 4134 
L 1269 2991 
Q 1406 3038 1543 3061 
Q 1681 3084 1819 3084 
Q 2600 3084 3056 2656 
Q 3513 2228 3513 1497 
Q 3513 744 3044 326 
Q 2575 -91 1722 -91 
Q 1428 -91 1123 -41 
Q 819 9 494 109 
L 494 744 
Q 775 591 1075 516 
Q 1375 441 1709 441 
Q 2250 441 2565 725 
Q 2881 1009 2881 1497 
Q 2881 1984 2565 2268 
Q 2250 2553 1709 2553 
Q 1456 2553 1204 2497 
Q 953 2441 691 2322 
L 691 4666 
z
" transform="scale(0.015625)"/>
       </defs>
       <use xlink:href="#DejaVuSans-35"/>
       <use xlink:href="#DejaVuSans-30" x="63.623047"/>
      </g>
     </g>
    </g>
    <g id="xtick_3">
     <g id="line2d_3">
      <g>
       <use xlink:href="#m06a32d16d7" x="155.199781" y="307.584" style="stroke: #000000; stroke-width: 0.8"/>
      </g>
     </g>
     <g id="text_3">
      <!-- 100 -->
      <g transform="translate(145.656031 322.182437) scale(0.1 -0.1)">
       <defs>
        <path id="DejaVuSans-31" d="M 794 531 
L 1825 531 
L 1825 4091 
L 703 3866 
L 703 4441 
L 1819 4666 
L 2450 4666 
L 2450 531 
L 3481 531 
L 3481 0 
L 794 0 
L 794 531 
z
" transform="scale(0.015625)"/>
       </defs>
       <use xlink:href="#DejaVuSans-31"/>
       <use xlink:href="#DejaVuSans-30" x="63.623047"/>
       <use xlink:href="#DejaVuSans-30" x="127.246094"/>
      </g>
     </g>
    </g>
    <g id="xtick_4">
     <g id="line2d_4">
      <g>
       <use xlink:href="#m06a32d16d7" x="195.883308" y="307.584" style="stroke: #000000; stroke-width: 0.8"/>
      </g>
     </g>
     <g id="text_4">
      <!-- 150 -->
      <g transform="translate(186.339558 322.182437) scale(0.1 -0.1)">
       <use xlink:href="#DejaVuSans-31"/>
       <use xlink:href="#DejaVuSans-35" x="63.623047"/>
       <use xlink:href="#DejaVuSans-30" x="127.246094"/>
      </g>
     </g>
    </g>
    <g id="xtick_5">
     <g id="line2d_5">
      <g>
       <use xlink:href="#m06a32d16d7" x="236.566835" y="307.584" style="stroke: #000000; stroke-width: 0.8"/>
      </g>
     </g>
     <g id="text_5">
      <!-- 200 -->
      <g transform="translate(227.023085 322.182437) scale(0.1 -0.1)">
       <defs>
        <path id="DejaVuSans-32" d="M 1228 531 
L 3431 531 
L 3431 0 
L 469 0 
L 469 531 
Q 828 903 1448 1529 
Q 2069 2156 2228 2338 
Q 2531 2678 2651 2914 
Q 2772 3150 2772 3378 
Q 2772 3750 2511 3984 
Q 2250 4219 1831 4219 
Q 1534 4219 1204 4116 
Q 875 4013 500 3803 
L 500 4441 
Q 881 4594 1212 4672 
Q 1544 4750 1819 4750 
Q 2544 4750 2975 4387 
Q 3406 4025 3406 3419 
Q 3406 3131 3298 2873 
Q 3191 2616 2906 2266 
Q 2828 2175 2409 1742 
Q 1991 1309 1228 531 
z
" transform="scale(0.015625)"/>
       </defs>
       <use xlink:href="#DejaVuSans-32"/>
       <use xlink:href="#DejaVuSans-30" x="63.623047"/>
       <use xlink:href="#DejaVuSans-30" x="127.246094"/>
      </g>
     </g>
    </g>
    <g id="xtick_6">
     <g id="line2d_6">
      <g>
       <use xlink:href="#m06a32d16d7" x="277.250362" y="307.584" style="stroke: #000000; stroke-width: 0.8"/>
      </g>
     </g>
     <g id="text_6">
      <!-- 250 -->
      <g transform="translate(267.706612 322.182437) scale(0.1 -0.1)">
       <use xlink:href="#DejaVuSans-32"/>
       <use xlink:href="#DejaVuSans-35" x="63.623047"/>
       <use xlink:href="#DejaVuSans-30" x="127.246094"/>
      </g>
     </g>
    </g>
    <g id="xtick_7">
     <g id="line2d_7">
      <g>
       <use xlink:href="#m06a32d16d7" x="317.933889" y="307.584" style="stroke: #000000; stroke-width: 0.8"/>
      </g>
     </g>
     <g id="text_7">
      <!-- 300 -->
      <g transform="translate(308.390139 322.182437) scale(0.1 -0.1)">
       <defs>
        <path id="DejaVuSans-33" d="M 2597 2516 
Q 3050 2419 3304 2112 
Q 3559 1806 3559 1356 
Q 3559 666 3084 287 
Q 2609 -91 1734 -91 
Q 1441 -91 1130 -33 
Q 819 25 488 141 
L 488 750 
Q 750 597 1062 519 
Q 1375 441 1716 441 
Q 2309 441 2620 675 
Q 2931 909 2931 1356 
Q 2931 1769 2642 2001 
Q 2353 2234 1838 2234 
L 1294 2234 
L 1294 2753 
L 1863 2753 
Q 2328 2753 2575 2939 
Q 2822 3125 2822 3475 
Q 2822 3834 2567 4026 
Q 2313 4219 1838 4219 
Q 1578 4219 1281 4162 
Q 984 4106 628 3988 
L 628 4550 
Q 988 4650 1302 4700 
Q 1616 4750 1894 4750 
Q 2613 4750 3031 4423 
Q 3450 4097 3450 3541 
Q 3450 3153 3228 2886 
Q 3006 2619 2597 2516 
z
" transform="scale(0.015625)"/>
       </defs>
       <use xlink:href="#DejaVuSans-33"/>
       <use xlink:href="#DejaVuSans-30" x="63.623047"/>
       <use xlink:href="#DejaVuSans-30" x="127.246094"/>
      </g>
     </g>
    </g>
    <g id="xtick_8">
     <g id="line2d_8">
      <g>
       <use xlink:href="#m06a32d16d7" x="358.617416" y="307.584" style="stroke: #000000; stroke-width: 0.8"/>
      </g>
     </g>
     <g id="text_8">
      <!-- 350 -->
      <g transform="translate(349.073666 322.182437) scale(0.1 -0.1)">
       <use xlink:href="#DejaVuSans-33"/>
       <use xlink:href="#DejaVuSans-35" x="63.623047"/>
       <use xlink:href="#DejaVuSans-30" x="127.246094"/>
      </g>
     </g>
    </g>
    <g id="xtick_9">
     <g id="line2d_9">
      <g>
       <use xlink:href="#m06a32d16d7" x="399.300943" y="307.584" style="stroke: #000000; stroke-width: 0.8"/>
      </g>
     </g>
     <g id="text_9">
      <!-- 400 -->
      <g transform="translate(389.757193 322.182437) scale(0.1 -0.1)">
       <defs>
        <path id="DejaVuSans-34" d="M 2419 4116 
L 825 1625 
L 2419 1625 
L 2419 4116 
z
M 2253 4666 
L 3047 4666 
L 3047 1625 
L 3713 1625 
L 3713 1100 
L 3047 1100 
L 3047 0 
L 2419 0 
L 2419 1100 
L 313 1100 
L 313 1709 
L 2253 4666 
z
" transform="scale(0.015625)"/>
       </defs>
       <use xlink:href="#DejaVuSans-34"/>
       <use xlink:href="#DejaVuSans-30" x="63.623047"/>
       <use xlink:href="#DejaVuSans-30" x="127.246094"/>
      </g>
     </g>
    </g>
   </g>
   <g id="matplotlib.axis_2">
    <g id="ytick_1">
     <g id="line2d_10">
      <defs>
       <path id="m89a7167425" d="M 0 0 
L -3.5 0 
" style="stroke: #000000; stroke-width: 0.8"/>
      </defs>
      <g>
       <use xlink:href="#m89a7167425" x="57.6" y="268.710595" style="stroke: #000000; stroke-width: 0.8"/>
      </g>
     </g>
     <g id="text_10">
      <!-- 50 -->
      <g transform="translate(37.875 272.509814) scale(0.1 -0.1)">
       <use xlink:href="#DejaVuSans-35"/>
       <use xlink:href="#DejaVuSans-30" x="63.623047"/>
      </g>
     </g>
    </g>
    <g id="ytick_2">
     <g id="line2d_11">
      <g>
       <use xlink:href="#m89a7167425" x="57.6" y="222.542656" style="stroke: #000000; stroke-width: 0.8"/>
      </g>
     </g>
     <g id="text_11">
      <!-- 100 -->
      <g transform="translate(31.5125 226.341875) scale(0.1 -0.1)">
       <use xlink:href="#DejaVuSans-31"/>
       <use xlink:href="#DejaVuSans-30" x="63.623047"/>
       <use xlink:href="#DejaVuSans-30" x="127.246094"/>
      </g>
     </g>
    </g>
    <g id="ytick_3">
     <g id="line2d_12">
      <g>
       <use xlink:href="#m89a7167425" x="57.6" y="176.374718" style="stroke: #000000; stroke-width: 0.8"/>
      </g>
     </g>
     <g id="text_12">
      <!-- 150 -->
      <g transform="translate(31.5125 180.173936) scale(0.1 -0.1)">
       <use xlink:href="#DejaVuSans-31"/>
       <use xlink:href="#DejaVuSans-35" x="63.623047"/>
       <use xlink:href="#DejaVuSans-30" x="127.246094"/>
      </g>
     </g>
    </g>
    <g id="ytick_4">
     <g id="line2d_13">
      <g>
       <use xlink:href="#m89a7167425" x="57.6" y="130.206779" style="stroke: #000000; stroke-width: 0.8"/>
      </g>
     </g>
     <g id="text_13">
      <!-- 200 -->
      <g transform="translate(31.5125 134.005997) scale(0.1 -0.1)">
       <use xlink:href="#DejaVuSans-32"/>
       <use xlink:href="#DejaVuSans-30" x="63.623047"/>
       <use xlink:href="#DejaVuSans-30" x="127.246094"/>
      </g>
     </g>
    </g>
    <g id="ytick_5">
     <g id="line2d_14">
      <g>
       <use xlink:href="#m89a7167425" x="57.6" y="84.03884" style="stroke: #000000; stroke-width: 0.8"/>
      </g>
     </g>
     <g id="text_14">
      <!-- 250 -->
      <g transform="translate(31.5125 87.838058) scale(0.1 -0.1)">
       <use xlink:href="#DejaVuSans-32"/>
       <use xlink:href="#DejaVuSans-35" x="63.623047"/>
       <use xlink:href="#DejaVuSans-30" x="127.246094"/>
      </g>
     </g>
    </g>
    <g id="text_15">
     <!-- Episode Length -->
     <g transform="translate(25.432812 213.001438) rotate(-90) scale(0.1 -0.1)">
      <defs>
       <path id="DejaVuSans-45" d="M 628 4666 
L 3578 4666 
L 3578 4134 
L 1259 4134 
L 1259 2753 
L 3481 2753 
L 3481 2222 
L 1259 2222 
L 1259 531 
L 3634 531 
L 3634 0 
L 628 0 
L 628 4666 
z
" transform="scale(0.015625)"/>
       <path id="DejaVuSans-70" d="M 1159 525 
L 1159 -1331 
L 581 -1331 
L 581 3500 
L 1159 3500 
L 1159 2969 
Q 1341 3281 1617 3432 
Q 1894 3584 2278 3584 
Q 2916 3584 3314 3078 
Q 3713 2572 3713 1747 
Q 3713 922 3314 415 
Q 2916 -91 2278 -91 
Q 1894 -91 1617 61 
Q 1341 213 1159 525 
z
M 3116 1747 
Q 3116 2381 2855 2742 
Q 2594 3103 2138 3103 
Q 1681 3103 1420 2742 
Q 1159 2381 1159 1747 
Q 1159 1113 1420 752 
Q 1681 391 2138 391 
Q 2594 391 2855 752 
Q 3116 1113 3116 1747 
z
" transform="scale(0.015625)"/>
       <path id="DejaVuSans-69" d="M 603 3500 
L 1178 3500 
L 1178 0 
L 603 0 
L 603 3500 
z
M 603 4863 
L 1178 4863 
L 1178 4134 
L 603 4134 
L 603 4863 
z
" transform="scale(0.015625)"/>
       <path id="DejaVuSans-73" d="M 2834 3397 
L 2834 2853 
Q 2591 2978 2328 3040 
Q 2066 3103 1784 3103 
Q 1356 3103 1142 2972 
Q 928 2841 928 2578 
Q 928 2378 1081 2264 
Q 1234 2150 1697 2047 
L 1894 2003 
Q 2506 1872 2764 1633 
Q 3022 1394 3022 966 
Q 3022 478 2636 193 
Q 2250 -91 1575 -91 
Q 1294 -91 989 -36 
Q 684 19 347 128 
L 347 722 
Q 666 556 975 473 
Q 1284 391 1588 391 
Q 1994 391 2212 530 
Q 2431 669 2431 922 
Q 2431 1156 2273 1281 
Q 2116 1406 1581 1522 
L 1381 1569 
Q 847 1681 609 1914 
Q 372 2147 372 2553 
Q 372 3047 722 3315 
Q 1072 3584 1716 3584 
Q 2034 3584 2315 3537 
Q 2597 3491 2834 3397 
z
" transform="scale(0.015625)"/>
       <path id="DejaVuSans-6f" d="M 1959 3097 
Q 1497 3097 1228 2736 
Q 959 2375 959 1747 
Q 959 1119 1226 758 
Q 1494 397 1959 397 
Q 2419 397 2687 759 
Q 2956 1122 2956 1747 
Q 2956 2369 2687 2733 
Q 2419 3097 1959 3097 
z
M 1959 3584 
Q 2709 3584 3137 3096 
Q 3566 2609 3566 1747 
Q 3566 888 3137 398 
Q 2709 -91 1959 -91 
Q 1206 -91 779 398 
Q 353 888 353 1747 
Q 353 2609 779 3096 
Q 1206 3584 1959 3584 
z
" transform="scale(0.015625)"/>
       <path id="DejaVuSans-64" d="M 2906 2969 
L 2906 4863 
L 3481 4863 
L 3481 0 
L 2906 0 
L 2906 525 
Q 2725 213 2448 61 
Q 2172 -91 1784 -91 
Q 1150 -91 751 415 
Q 353 922 353 1747 
Q 353 2572 751 3078 
Q 1150 3584 1784 3584 
Q 2172 3584 2448 3432 
Q 2725 3281 2906 2969 
z
M 947 1747 
Q 947 1113 1208 752 
Q 1469 391 1925 391 
Q 2381 391 2643 752 
Q 2906 1113 2906 1747 
Q 2906 2381 2643 2742 
Q 2381 3103 1925 3103 
Q 1469 3103 1208 2742 
Q 947 2381 947 1747 
z
" transform="scale(0.015625)"/>
       <path id="DejaVuSans-65" d="M 3597 1894 
L 3597 1613 
L 953 1613 
Q 991 1019 1311 708 
Q 1631 397 2203 397 
Q 2534 397 2845 478 
Q 3156 559 3463 722 
L 3463 178 
Q 3153 47 2828 -22 
Q 2503 -91 2169 -91 
Q 1331 -91 842 396 
Q 353 884 353 1716 
Q 353 2575 817 3079 
Q 1281 3584 2069 3584 
Q 2775 3584 3186 3129 
Q 3597 2675 3597 1894 
z
M 3022 2063 
Q 3016 2534 2758 2815 
Q 2500 3097 2075 3097 
Q 1594 3097 1305 2825 
Q 1016 2553 972 2059 
L 3022 2063 
z
" transform="scale(0.015625)"/>
       <path id="DejaVuSans-20" transform="scale(0.015625)"/>
       <path id="DejaVuSans-4c" d="M 628 4666 
L 1259 4666 
L 1259 531 
L 3531 531 
L 3531 0 
L 628 0 
L 628 4666 
z
" transform="scale(0.015625)"/>
       <path id="DejaVuSans-6e" d="M 3513 2113 
L 3513 0 
L 2938 0 
L 2938 2094 
Q 2938 2591 2744 2837 
Q 2550 3084 2163 3084 
Q 1697 3084 1428 2787 
Q 1159 2491 1159 1978 
L 1159 0 
L 581 0 
L 581 3500 
L 1159 3500 
L 1159 2956 
Q 1366 3272 1645 3428 
Q 1925 3584 2291 3584 
Q 2894 3584 3203 3211 
Q 3513 2838 3513 2113 
z
" transform="scale(0.015625)"/>
       <path id="DejaVuSans-67" d="M 2906 1791 
Q 2906 2416 2648 2759 
Q 2391 3103 1925 3103 
Q 1463 3103 1205 2759 
Q 947 2416 947 1791 
Q 947 1169 1205 825 
Q 1463 481 1925 481 
Q 2391 481 2648 825 
Q 2906 1169 2906 1791 
z
M 3481 434 
Q 3481 -459 3084 -895 
Q 2688 -1331 1869 -1331 
Q 1566 -1331 1297 -1286 
Q 1028 -1241 775 -1147 
L 775 -588 
Q 1028 -725 1275 -790 
Q 1522 -856 1778 -856 
Q 2344 -856 2625 -561 
Q 2906 -266 2906 331 
L 2906 616 
Q 2728 306 2450 153 
Q 2172 0 1784 0 
Q 1141 0 747 490 
Q 353 981 353 1791 
Q 353 2603 747 3093 
Q 1141 3584 1784 3584 
Q 2172 3584 2450 3431 
Q 2728 3278 2906 2969 
L 2906 3500 
L 3481 3500 
L 3481 434 
z
" transform="scale(0.015625)"/>
       <path id="DejaVuSans-74" d="M 1172 4494 
L 1172 3500 
L 2356 3500 
L 2356 3053 
L 1172 3053 
L 1172 1153 
Q 1172 725 1289 603 
Q 1406 481 1766 481 
L 2356 481 
L 2356 0 
L 1766 0 
Q 1100 0 847 248 
Q 594 497 594 1153 
L 594 3053 
L 172 3053 
L 172 3500 
L 594 3500 
L 594 4494 
L 1172 4494 
z
" transform="scale(0.015625)"/>
       <path id="DejaVuSans-68" d="M 3513 2113 
L 3513 0 
L 2938 0 
L 2938 2094 
Q 2938 2591 2744 2837 
Q 2550 3084 2163 3084 
Q 1697 3084 1428 2787 
Q 1159 2491 1159 1978 
L 1159 0 
L 581 0 
L 581 4863 
L 1159 4863 
L 1159 2956 
Q 1366 3272 1645 3428 
Q 1925 3584 2291 3584 
Q 2894 3584 3203 3211 
Q 3513 2838 3513 2113 
z
" transform="scale(0.015625)"/>
      </defs>
      <use xlink:href="#DejaVuSans-45"/>
      <use xlink:href="#DejaVuSans-70" x="63.183594"/>
      <use xlink:href="#DejaVuSans-69" x="126.660156"/>
      <use xlink:href="#DejaVuSans-73" x="154.443359"/>
      <use xlink:href="#DejaVuSans-6f" x="206.542969"/>
      <use xlink:href="#DejaVuSans-64" x="267.724609"/>
      <use xlink:href="#DejaVuSans-65" x="331.201172"/>
      <use xlink:href="#DejaVuSans-20" x="392.724609"/>
      <use xlink:href="#DejaVuSans-4c" x="424.511719"/>
      <use xlink:href="#DejaVuSans-65" x="478.474609"/>
      <use xlink:href="#DejaVuSans-6e" x="539.998047"/>
      <use xlink:href="#DejaVuSans-67" x="603.376953"/>
      <use xlink:href="#DejaVuSans-74" x="666.853516"/>
      <use xlink:href="#DejaVuSans-68" x="706.0625"/>
     </g>
    </g>
   </g>
   <g id="line2d_15">
    <path d="M 73.832727 265.01716 
L 74.646398 241.933191 
L 75.460068 197.611969 
L 76.273739 291.794565 
L 77.087409 269.633954 
L 77.90108 225.312733 
L 78.714751 216.079145 
L 79.528421 216.079145 
L 80.342092 206.845557 
L 81.155762 261.323725 
L 81.969433 277.944183 
L 82.783103 261.323725 
L 83.596774 295.488 
L 84.410444 159.75426 
L 85.224115 279.790901 
L 86.037785 260.400366 
L 86.851456 120.049832 
L 87.665126 279.790901 
L 88.478797 274.250748 
L 89.292468 205.922198 
L 90.106138 281.637618 
L 90.919809 157.907542 
L 91.733479 240.086473 
L 92.54715 265.940519 
L 93.36082 286.254412 
L 94.174491 205.922198 
L 94.988161 287.177771 
L 95.801832 227.15945 
L 96.615502 231.776244 
L 97.429173 286.254412 
L 98.242843 223.466015 
L 99.056514 275.174107 
L 99.870185 283.484336 
L 100.683855 134.823573 
L 101.497526 255.783573 
L 102.311196 267.787237 
L 103.124867 254.860214 
L 103.938537 267.787237 
L 104.752208 205.922198 
L 105.565878 270.557313 
L 106.379549 277.944183 
L 107.193219 206.845557 
L 108.00689 278.867542 
L 109.634231 150.520672 
L 110.447902 250.24342 
L 111.261572 223.466015 
L 112.075243 185.608305 
L 112.888913 251.166779 
L 113.702584 239.163115 
L 114.516254 241.933191 
L 115.329925 235.469679 
L 116.143595 287.177771 
L 116.957266 80.345405 
L 117.770936 237.316397 
L 118.584607 227.15945 
L 119.398278 241.009832 
L 120.211948 228.082809 
L 121.025619 192.071817 
L 121.839289 217.002504 
L 122.65296 215.155786 
L 123.46663 214.232427 
L 124.280301 153.290748 
L 125.093971 250.24342 
L 125.907642 269.633954 
L 126.721312 203.152122 
L 127.534983 219.77258 
L 128.348653 224.389374 
L 129.162324 212.38571 
L 129.975995 203.152122 
L 130.789665 265.940519 
L 131.603336 202.228763 
L 132.417006 295.488 
L 133.230677 220.695939 
L 134.044347 110.816244 
L 134.858018 247.473344 
L 135.671688 253.013496 
L 136.485359 253.936855 
L 137.299029 229.006168 
L 138.1127 189.30174 
L 138.92637 271.480672 
L 139.740041 263.170443 
L 140.553712 196.688611 
L 141.367382 93.272427 
L 142.181053 186.531664 
L 142.994723 228.082809 
L 143.808394 194.841893 
L 144.622064 243.779908 
L 145.435735 189.30174 
L 146.249405 237.316397 
L 147.063076 229.929527 
L 147.876746 107.122809 
L 148.690417 178.221435 
L 149.504087 205.922198 
L 150.317758 193.918534 
L 151.131429 232.699603 
L 151.945099 178.221435 
L 152.75877 245.626626 
L 153.57244 268.710595 
L 154.386111 229.006168 
L 155.199781 210.538992 
L 156.013452 234.546321 
L 156.827122 152.367389 
L 157.640793 136.67029 
L 158.454463 172.681282 
L 159.268134 191.148458 
L 160.081805 235.469679 
L 160.895475 256.706931 
L 161.709146 91.42571 
L 162.522816 254.860214 
L 163.336487 181.91487 
L 164.150157 204.075481 
L 165.777498 217.925863 
L 166.591169 240.086473 
L 167.404839 170.834565 
L 168.21851 268.710595 
L 169.03218 184.684947 
L 169.845851 229.929527 
L 170.659522 247.473344 
L 171.473192 187.455023 
L 172.286863 180.991511 
L 173.100533 274.250748 
L 173.914204 126.513344 
L 174.727874 229.006168 
L 175.541545 238.239756 
L 176.355215 212.38571 
L 177.168886 247.473344 
L 177.982556 211.462351 
L 178.796227 260.400366 
L 179.609897 202.228763 
L 180.423568 217.002504 
L 181.237239 207.768916 
L 182.050909 175.451359 
L 183.67825 206.845557 
L 184.491921 264.093802 
L 185.305591 206.845557 
L 186.119262 211.462351 
L 186.932932 207.768916 
L 187.746603 141.287084 
L 188.560273 214.232427 
L 189.373944 263.170443 
L 190.187614 188.378382 
L 191.001285 249.320061 
L 191.814956 165.294412 
L 192.628626 196.688611 
L 193.442297 207.768916 
L 194.255967 224.389374 
L 195.069638 217.002504 
L 195.883308 207.768916 
L 196.696979 218.849221 
L 197.510649 239.163115 
L 198.32432 245.626626 
L 199.951661 177.298076 
L 200.765332 259.477008 
L 201.579002 240.086473 
L 202.392673 246.549985 
L 203.206343 220.695939 
L 204.833684 253.936855 
L 205.647355 199.458687 
L 206.461025 218.849221 
L 207.274696 213.309069 
L 208.088366 264.093802 
L 208.902037 232.699603 
L 209.715707 220.695939 
L 210.529378 259.477008 
L 211.343049 229.929527 
L 212.156719 238.239756 
L 212.97039 204.99884 
L 213.78406 227.15945 
L 214.597731 243.779908 
L 215.411401 191.148458 
L 216.225072 228.082809 
L 217.038742 186.531664 
L 217.852413 185.608305 
L 218.666083 165.294412 
L 219.479754 255.783573 
L 220.293424 192.995176 
L 221.107095 215.155786 
L 221.920766 53.568 
L 222.734436 183.761588 
L 223.548107 221.619298 
L 224.361777 144.980519 
L 225.175448 196.688611 
L 225.989118 164.371053 
L 226.802789 241.933191 
L 227.616459 252.090137 
L 228.43013 251.166779 
L 229.2438 213.309069 
L 230.057471 221.619298 
L 230.871141 273.327389 
L 231.684812 236.393038 
L 232.498483 54.491359 
L 233.312153 183.761588 
L 234.125824 209.615634 
L 234.939494 230.852885 
L 235.753165 215.155786 
L 236.566835 194.841893 
L 237.380506 246.549985 
L 238.194176 216.079145 
L 239.007847 257.63029 
L 239.821517 247.473344 
L 240.635188 161.600977 
L 241.448859 144.05716 
L 242.262529 175.451359 
L 243.0762 128.360061 
L 243.88987 136.67029 
L 244.703541 168.987847 
L 245.517211 214.232427 
L 246.330882 196.688611 
L 247.144552 238.239756 
L 247.958223 129.28342 
L 248.771893 230.852885 
L 249.585564 121.89655 
L 250.399234 242.85655 
L 251.212905 238.239756 
L 252.026576 204.075481 
L 252.840246 219.77258 
L 253.653917 145.903878 
L 254.467587 250.24342 
L 255.281258 248.396702 
L 256.094928 135.746931 
L 256.908599 153.290748 
L 258.53594 229.006168 
L 259.34961 120.049832 
L 260.163281 209.615634 
L 260.976951 200.382046 
L 261.790622 220.695939 
L 262.604293 216.079145 
L 263.417963 198.535328 
L 264.231634 184.684947 
L 265.045304 165.294412 
L 265.858975 237.316397 
L 266.672645 212.38571 
L 267.486316 177.298076 
L 268.299986 205.922198 
L 269.113657 204.99884 
L 269.927327 245.626626 
L 270.740998 247.473344 
L 271.554668 200.382046 
L 272.368339 197.611969 
L 273.18201 214.232427 
L 273.99568 217.002504 
L 274.809351 221.619298 
L 275.623021 279.790901 
L 276.436692 246.549985 
L 277.250362 121.89655 
L 278.064033 148.673954 
L 278.877703 179.144794 
L 279.691374 160.677618 
L 280.505044 241.933191 
L 281.318715 238.239756 
L 282.132386 223.466015 
L 282.946056 243.779908 
L 283.759727 233.622962 
L 284.573397 249.320061 
L 285.387068 215.155786 
L 286.200738 163.447695 
L 287.014409 155.137466 
L 287.828079 208.692275 
L 288.64175 252.090137 
L 289.45542 231.776244 
L 290.269091 236.393038 
L 291.082761 127.436702 
L 291.896432 228.082809 
L 292.710103 148.673954 
L 293.523773 160.677618 
L 294.337444 157.907542 
L 295.151114 261.323725 
L 295.964785 261.323725 
L 296.778455 173.604641 
L 297.592126 197.611969 
L 298.405796 202.228763 
L 299.219467 198.535328 
L 300.033137 208.692275 
L 300.846808 200.382046 
L 301.660478 196.688611 
L 302.474149 242.85655 
L 303.28782 158.830901 
L 304.10149 201.305405 
L 304.915161 258.553649 
L 305.728831 193.918534 
L 306.542502 227.15945 
L 307.356172 180.991511 
L 308.169843 234.546321 
L 309.797184 123.743267 
L 310.610854 121.89655 
L 311.424525 178.221435 
L 312.238195 198.535328 
L 313.051866 201.305405 
L 313.865537 182.838229 
L 314.679207 171.757924 
L 315.492878 180.991511 
L 316.306548 128.360061 
L 317.120219 188.378382 
L 317.933889 224.389374 
L 318.74756 194.841893 
L 319.56123 242.85655 
L 320.374901 253.013496 
L 321.188571 144.980519 
L 322.002242 199.458687 
L 322.815913 176.374718 
L 324.443254 246.549985 
L 325.256924 191.148458 
L 326.070595 173.604641 
L 326.884265 218.849221 
L 327.697936 212.38571 
L 328.511606 152.367389 
L 329.325277 241.933191 
L 330.138947 214.232427 
L 330.952618 166.217771 
L 331.766288 204.075481 
L 332.579959 247.473344 
L 333.39363 203.152122 
L 334.2073 185.608305 
L 335.020971 144.980519 
L 335.834641 266.863878 
L 337.461982 207.768916 
L 338.275653 192.071817 
L 339.089323 253.013496 
L 339.902994 169.911206 
L 340.716664 146.827237 
L 341.530335 138.517008 
L 342.344005 139.440366 
L 343.157676 167.14113 
L 343.971347 254.860214 
L 344.785017 163.447695 
L 345.598688 254.860214 
L 346.412358 109.892885 
L 347.226029 243.779908 
L 348.039699 170.834565 
L 348.85337 168.064489 
L 349.66704 221.619298 
L 350.480711 230.852885 
L 351.294381 185.608305 
L 352.108052 176.374718 
L 352.921722 142.210443 
L 353.735393 229.929527 
L 354.549064 204.075481 
L 355.362734 259.477008 
L 356.176405 223.466015 
L 356.990075 210.538992 
L 357.803746 204.075481 
L 358.617416 208.692275 
L 359.431087 193.918534 
L 360.244757 193.918534 
L 361.058428 225.312733 
L 361.872098 224.389374 
L 362.685769 246.549985 
L 363.49944 184.684947 
L 364.31311 154.214107 
L 365.126781 178.221435 
L 365.940451 207.768916 
L 366.754122 192.995176 
L 367.567792 151.444031 
L 368.381463 205.922198 
L 369.195133 168.987847 
L 370.822474 247.473344 
L 371.636145 191.148458 
L 372.449815 229.006168 
L 373.263486 234.546321 
L 374.077157 220.695939 
L 374.890827 234.546321 
L 375.704498 204.99884 
L 376.518168 192.995176 
L 377.331839 145.903878 
L 378.145509 229.006168 
L 378.95918 264.093802 
L 379.77285 192.995176 
L 380.586521 194.841893 
L 381.400191 242.85655 
L 382.213862 226.236092 
L 383.027532 240.086473 
L 383.841203 123.743267 
L 384.654874 174.528 
L 385.468544 217.002504 
L 386.282215 186.531664 
L 387.095885 181.91487 
L 387.909556 241.009832 
L 388.723226 242.85655 
L 389.536897 184.684947 
L 390.350567 215.155786 
L 391.164238 227.15945 
L 391.977908 210.538992 
L 392.791579 217.002504 
L 393.605249 243.779908 
L 394.41892 241.933191 
L 395.232591 157.907542 
L 396.046261 256.706931 
L 396.859932 253.013496 
L 397.673602 225.312733 
L 398.487273 170.834565 
L 398.487273 170.834565 
" clip-path="url(#peb61ed1b91)" style="fill: none; stroke: #1f77b4; stroke-width: 1.5; stroke-linecap: square"/>
   </g>
   <g id="patch_3">
    <path d="M 57.6 307.584 
L 57.6 41.472 
" style="fill: none; stroke: #000000; stroke-width: 0.8; stroke-linejoin: miter; stroke-linecap: square"/>
   </g>
   <g id="patch_4">
    <path d="M 414.72 307.584 
L 414.72 41.472 
" style="fill: none; stroke: #000000; stroke-width: 0.8; stroke-linejoin: miter; stroke-linecap: square"/>
   </g>
   <g id="patch_5">
    <path d="M 57.6 307.584 
L 414.72 307.584 
" style="fill: none; stroke: #000000; stroke-width: 0.8; stroke-linejoin: miter; stroke-linecap: square"/>
   </g>
   <g id="patch_6">
    <path d="M 57.6 41.472 
L 414.72 41.472 
" style="fill: none; stroke: #000000; stroke-width: 0.8; stroke-linejoin: miter; stroke-linecap: square"/>
   </g>
   <g id="text_16">
    <!-- Episode Length -->
    <g transform="translate(189.991875 35.472) scale(0.12 -0.12)">
     <use xlink:href="#DejaVuSans-45"/>
     <use xlink:href="#DejaVuSans-70" x="63.183594"/>
     <use xlink:href="#DejaVuSans-69" x="126.660156"/>
     <use xlink:href="#DejaVuSans-73" x="154.443359"/>
     <use xlink:href="#DejaVuSans-6f" x="206.542969"/>
     <use xlink:href="#DejaVuSans-64" x="267.724609"/>
     <use xlink:href="#DejaVuSans-65" x="331.201172"/>
     <use xlink:href="#DejaVuSans-20" x="392.724609"/>
     <use xlink:href="#DejaVuSans-4c" x="424.511719"/>
     <use xlink:href="#DejaVuSans-65" x="478.474609"/>
     <use xlink:href="#DejaVuSans-6e" x="539.998047"/>
     <use xlink:href="#DejaVuSans-67" x="603.376953"/>
     <use xlink:href="#DejaVuSans-74" x="666.853516"/>
     <use xlink:href="#DejaVuSans-68" x="706.0625"/>
    </g>
   </g>
   <g id="legend_1">
    <g id="patch_7">
     <path d="M 298.773125 64.150125 
L 407.72 64.150125 
Q 409.72 64.150125 409.72 62.150125 
L 409.72 48.472 
Q 409.72 46.472 407.72 46.472 
L 298.773125 46.472 
Q 296.773125 46.472 296.773125 48.472 
L 296.773125 62.150125 
Q 296.773125 64.150125 298.773125 64.150125 
z
" style="fill: #ffffff; opacity: 0.8; stroke: #cccccc; stroke-linejoin: miter"/>
    </g>
    <g id="line2d_16">
     <path d="M 300.773125 54.570438 
L 310.773125 54.570438 
L 320.773125 54.570438 
" style="fill: none; stroke: #1f77b4; stroke-width: 1.5; stroke-linecap: square"/>
    </g>
    <g id="text_17">
     <!-- Episode Length -->
     <g transform="translate(328.773125 58.070438) scale(0.1 -0.1)">
      <use xlink:href="#DejaVuSans-45"/>
      <use xlink:href="#DejaVuSans-70" x="63.183594"/>
      <use xlink:href="#DejaVuSans-69" x="126.660156"/>
      <use xlink:href="#DejaVuSans-73" x="154.443359"/>
      <use xlink:href="#DejaVuSans-6f" x="206.542969"/>
      <use xlink:href="#DejaVuSans-64" x="267.724609"/>
      <use xlink:href="#DejaVuSans-65" x="331.201172"/>
      <use xlink:href="#DejaVuSans-20" x="392.724609"/>
      <use xlink:href="#DejaVuSans-4c" x="424.511719"/>
      <use xlink:href="#DejaVuSans-65" x="478.474609"/>
      <use xlink:href="#DejaVuSans-6e" x="539.998047"/>
      <use xlink:href="#DejaVuSans-67" x="603.376953"/>
      <use xlink:href="#DejaVuSans-74" x="666.853516"/>
      <use xlink:href="#DejaVuSans-68" x="706.0625"/>
     </g>
    </g>
   </g>
  </g>
 </g>
 <defs>
  <clipPath id="peb61ed1b91">
   <rect x="57.6" y="41.472" width="357.12" height="266.112"/>
  </clipPath>
 </defs>
</svg>
