<?xml version="1.0" encoding="utf-8" standalone="no"?>
<!DOCTYPE svg PUBLIC "-//W3C//DTD SVG 1.1//EN"
  "http://www.w3.org/Graphics/SVG/1.1/DTD/svg11.dtd">
<svg xmlns:xlink="http://www.w3.org/1999/xlink" width="460.8pt" height="345.6pt" viewBox="0 0 460.8 345.6" xmlns="http://www.w3.org/2000/svg" version="1.1">
 <metadata>
  <rdf:RDF xmlns:dc="http://purl.org/dc/elements/1.1/" xmlns:cc="http://creativecommons.org/ns#" xmlns:rdf="http://www.w3.org/1999/02/22-rdf-syntax-ns#">
   <cc:Work>
    <dc:type rdf:resource="http://purl.org/dc/dcmitype/StillImage"/>
    <dc:date>2024-03-22T18:12:44.281639</dc:date>
    <dc:format>image/svg+xml</dc:format>
    <dc:creator>
     <cc:Agent>
      <dc:title>Matplotlib v3.8.0, https://matplotlib.org/</dc:title>
     </cc:Agent>
    </dc:creator>
   </cc:Work>
  </rdf:RDF>
 </metadata>
 <defs>
  <style type="text/css">*{stroke-linejoin: round; stroke-linecap: butt}</style>
 </defs>
 <g id="figure_1">
  <g id="patch_1">
   <path d="M 0 345.6 
L 460.8 345.6 
L 460.8 0 
L 0 0 
z
" style="fill: #ffffff"/>
  </g>
  <g id="axes_1">
   <g id="patch_2">
    <path d="M 57.6 307.584 
L 414.72 307.584 
L 414.72 41.472 
L 57.6 41.472 
z
" style="fill: #ffffff"/>
   </g>
   <g id="matplotlib.axis_1">
    <g id="xtick_1">
     <g id="line2d_1">
      <defs>
       <path id="m21d08424bd" d="M 0 0 
L 0 3.5 
" style="stroke: #000000; stroke-width: 0.8"/>
      </defs>
      <g>
       <use xlink:href="#m21d08424bd" x="73.832727" y="307.584" style="stroke: #000000; stroke-width: 0.8"/>
      </g>
     </g>
     <g id="text_1">
      <!-- 0 -->
      <g transform="translate(70.651477 322.182437) scale(0.1 -0.1)">
       <defs>
        <path id="DejaVuSans-30" d="M 2034 4250 
Q 1547 4250 1301 3770 
Q 1056 3291 1056 2328 
Q 1056 1369 1301 889 
Q 1547 409 2034 409 
Q 2525 409 2770 889 
Q 3016 1369 3016 2328 
Q 3016 3291 2770 3770 
Q 2525 4250 2034 4250 
z
M 2034 4750 
Q 2819 4750 3233 4129 
Q 3647 3509 3647 2328 
Q 3647 1150 3233 529 
Q 2819 -91 2034 -91 
Q 1250 -91 836 529 
Q 422 1150 422 2328 
Q 422 3509 836 4129 
Q 1250 4750 2034 4750 
z
" transform="scale(0.015625)"/>
       </defs>
       <use xlink:href="#DejaVuSans-30"/>
      </g>
     </g>
    </g>
    <g id="xtick_2">
     <g id="line2d_2">
      <g>
       <use xlink:href="#m21d08424bd" x="128.032151" y="307.584" style="stroke: #000000; stroke-width: 0.8"/>
      </g>
     </g>
     <g id="text_2">
      <!-- 100 -->
      <g transform="translate(118.488401 322.182437) scale(0.1 -0.1)">
       <defs>
        <path id="DejaVuSans-31" d="M 794 531 
L 1825 531 
L 1825 4091 
L 703 3866 
L 703 4441 
L 1819 4666 
L 2450 4666 
L 2450 531 
L 3481 531 
L 3481 0 
L 794 0 
L 794 531 
z
" transform="scale(0.015625)"/>
       </defs>
       <use xlink:href="#DejaVuSans-31"/>
       <use xlink:href="#DejaVuSans-30" x="63.623047"/>
       <use xlink:href="#DejaVuSans-30" x="127.246094"/>
      </g>
     </g>
    </g>
    <g id="xtick_3">
     <g id="line2d_3">
      <g>
       <use xlink:href="#m21d08424bd" x="182.231574" y="307.584" style="stroke: #000000; stroke-width: 0.8"/>
      </g>
     </g>
     <g id="text_3">
      <!-- 200 -->
      <g transform="translate(172.687824 322.182437) scale(0.1 -0.1)">
       <defs>
        <path id="DejaVuSans-32" d="M 1228 531 
L 3431 531 
L 3431 0 
L 469 0 
L 469 531 
Q 828 903 1448 1529 
Q 2069 2156 2228 2338 
Q 2531 2678 2651 2914 
Q 2772 3150 2772 3378 
Q 2772 3750 2511 3984 
Q 2250 4219 1831 4219 
Q 1534 4219 1204 4116 
Q 875 4013 500 3803 
L 500 4441 
Q 881 4594 1212 4672 
Q 1544 4750 1819 4750 
Q 2544 4750 2975 4387 
Q 3406 4025 3406 3419 
Q 3406 3131 3298 2873 
Q 3191 2616 2906 2266 
Q 2828 2175 2409 1742 
Q 1991 1309 1228 531 
z
" transform="scale(0.015625)"/>
       </defs>
       <use xlink:href="#DejaVuSans-32"/>
       <use xlink:href="#DejaVuSans-30" x="63.623047"/>
       <use xlink:href="#DejaVuSans-30" x="127.246094"/>
      </g>
     </g>
    </g>
    <g id="xtick_4">
     <g id="line2d_4">
      <g>
       <use xlink:href="#m21d08424bd" x="236.430997" y="307.584" style="stroke: #000000; stroke-width: 0.8"/>
      </g>
     </g>
     <g id="text_4">
      <!-- 300 -->
      <g transform="translate(226.887247 322.182437) scale(0.1 -0.1)">
       <defs>
        <path id="DejaVuSans-33" d="M 2597 2516 
Q 3050 2419 3304 2112 
Q 3559 1806 3559 1356 
Q 3559 666 3084 287 
Q 2609 -91 1734 -91 
Q 1441 -91 1130 -33 
Q 819 25 488 141 
L 488 750 
Q 750 597 1062 519 
Q 1375 441 1716 441 
Q 2309 441 2620 675 
Q 2931 909 2931 1356 
Q 2931 1769 2642 2001 
Q 2353 2234 1838 2234 
L 1294 2234 
L 1294 2753 
L 1863 2753 
Q 2328 2753 2575 2939 
Q 2822 3125 2822 3475 
Q 2822 3834 2567 4026 
Q 2313 4219 1838 4219 
Q 1578 4219 1281 4162 
Q 984 4106 628 3988 
L 628 4550 
Q 988 4650 1302 4700 
Q 1616 4750 1894 4750 
Q 2613 4750 3031 4423 
Q 3450 4097 3450 3541 
Q 3450 3153 3228 2886 
Q 3006 2619 2597 2516 
z
" transform="scale(0.015625)"/>
       </defs>
       <use xlink:href="#DejaVuSans-33"/>
       <use xlink:href="#DejaVuSans-30" x="63.623047"/>
       <use xlink:href="#DejaVuSans-30" x="127.246094"/>
      </g>
     </g>
    </g>
    <g id="xtick_5">
     <g id="line2d_5">
      <g>
       <use xlink:href="#m21d08424bd" x="290.63042" y="307.584" style="stroke: #000000; stroke-width: 0.8"/>
      </g>
     </g>
     <g id="text_5">
      <!-- 400 -->
      <g transform="translate(281.08667 322.182437) scale(0.1 -0.1)">
       <defs>
        <path id="DejaVuSans-34" d="M 2419 4116 
L 825 1625 
L 2419 1625 
L 2419 4116 
z
M 2253 4666 
L 3047 4666 
L 3047 1625 
L 3713 1625 
L 3713 1100 
L 3047 1100 
L 3047 0 
L 2419 0 
L 2419 1100 
L 313 1100 
L 313 1709 
L 2253 4666 
z
" transform="scale(0.015625)"/>
       </defs>
       <use xlink:href="#DejaVuSans-34"/>
       <use xlink:href="#DejaVuSans-30" x="63.623047"/>
       <use xlink:href="#DejaVuSans-30" x="127.246094"/>
      </g>
     </g>
    </g>
    <g id="xtick_6">
     <g id="line2d_6">
      <g>
       <use xlink:href="#m21d08424bd" x="344.829844" y="307.584" style="stroke: #000000; stroke-width: 0.8"/>
      </g>
     </g>
     <g id="text_6">
      <!-- 500 -->
      <g transform="translate(335.286094 322.182437) scale(0.1 -0.1)">
       <defs>
        <path id="DejaVuSans-35" d="M 691 4666 
L 3169 4666 
L 3169 4134 
L 1269 4134 
L 1269 2991 
Q 1406 3038 1543 3061 
Q 1681 3084 1819 3084 
Q 2600 3084 3056 2656 
Q 3513 2228 3513 1497 
Q 3513 744 3044 326 
Q 2575 -91 1722 -91 
Q 1428 -91 1123 -41 
Q 819 9 494 109 
L 494 744 
Q 775 591 1075 516 
Q 1375 441 1709 441 
Q 2250 441 2565 725 
Q 2881 1009 2881 1497 
Q 2881 1984 2565 2268 
Q 2250 2553 1709 2553 
Q 1456 2553 1204 2497 
Q 953 2441 691 2322 
L 691 4666 
z
" transform="scale(0.015625)"/>
       </defs>
       <use xlink:href="#DejaVuSans-35"/>
       <use xlink:href="#DejaVuSans-30" x="63.623047"/>
       <use xlink:href="#DejaVuSans-30" x="127.246094"/>
      </g>
     </g>
    </g>
    <g id="xtick_7">
     <g id="line2d_7">
      <g>
       <use xlink:href="#m21d08424bd" x="399.029267" y="307.584" style="stroke: #000000; stroke-width: 0.8"/>
      </g>
     </g>
     <g id="text_7">
      <!-- 600 -->
      <g transform="translate(389.485517 322.182437) scale(0.1 -0.1)">
       <defs>
        <path id="DejaVuSans-36" d="M 2113 2584 
Q 1688 2584 1439 2293 
Q 1191 2003 1191 1497 
Q 1191 994 1439 701 
Q 1688 409 2113 409 
Q 2538 409 2786 701 
Q 3034 994 3034 1497 
Q 3034 2003 2786 2293 
Q 2538 2584 2113 2584 
z
M 3366 4563 
L 3366 3988 
Q 3128 4100 2886 4159 
Q 2644 4219 2406 4219 
Q 1781 4219 1451 3797 
Q 1122 3375 1075 2522 
Q 1259 2794 1537 2939 
Q 1816 3084 2150 3084 
Q 2853 3084 3261 2657 
Q 3669 2231 3669 1497 
Q 3669 778 3244 343 
Q 2819 -91 2113 -91 
Q 1303 -91 875 529 
Q 447 1150 447 2328 
Q 447 3434 972 4092 
Q 1497 4750 2381 4750 
Q 2619 4750 2861 4703 
Q 3103 4656 3366 4563 
z
" transform="scale(0.015625)"/>
       </defs>
       <use xlink:href="#DejaVuSans-36"/>
       <use xlink:href="#DejaVuSans-30" x="63.623047"/>
       <use xlink:href="#DejaVuSans-30" x="127.246094"/>
      </g>
     </g>
    </g>
   </g>
   <g id="matplotlib.axis_2">
    <g id="ytick_1">
     <g id="line2d_8">
      <defs>
       <path id="md112502510" d="M 0 0 
L -3.5 0 
" style="stroke: #000000; stroke-width: 0.8"/>
      </defs>
      <g>
       <use xlink:href="#md112502510" x="57.6" y="284.010044" style="stroke: #000000; stroke-width: 0.8"/>
      </g>
     </g>
     <g id="text_8">
      <!-- 50 -->
      <g transform="translate(37.875 287.809263) scale(0.1 -0.1)">
       <use xlink:href="#DejaVuSans-35"/>
       <use xlink:href="#DejaVuSans-30" x="63.623047"/>
      </g>
     </g>
    </g>
    <g id="ytick_2">
     <g id="line2d_9">
      <g>
       <use xlink:href="#md112502510" x="57.6" y="239.864058" style="stroke: #000000; stroke-width: 0.8"/>
      </g>
     </g>
     <g id="text_9">
      <!-- 100 -->
      <g transform="translate(31.5125 243.663277) scale(0.1 -0.1)">
       <use xlink:href="#DejaVuSans-31"/>
       <use xlink:href="#DejaVuSans-30" x="63.623047"/>
       <use xlink:href="#DejaVuSans-30" x="127.246094"/>
      </g>
     </g>
    </g>
    <g id="ytick_3">
     <g id="line2d_10">
      <g>
       <use xlink:href="#md112502510" x="57.6" y="195.718073" style="stroke: #000000; stroke-width: 0.8"/>
      </g>
     </g>
     <g id="text_10">
      <!-- 150 -->
      <g transform="translate(31.5125 199.517292) scale(0.1 -0.1)">
       <use xlink:href="#DejaVuSans-31"/>
       <use xlink:href="#DejaVuSans-35" x="63.623047"/>
       <use xlink:href="#DejaVuSans-30" x="127.246094"/>
      </g>
     </g>
    </g>
    <g id="ytick_4">
     <g id="line2d_11">
      <g>
       <use xlink:href="#md112502510" x="57.6" y="151.572088" style="stroke: #000000; stroke-width: 0.8"/>
      </g>
     </g>
     <g id="text_11">
      <!-- 200 -->
      <g transform="translate(31.5125 155.371306) scale(0.1 -0.1)">
       <use xlink:href="#DejaVuSans-32"/>
       <use xlink:href="#DejaVuSans-30" x="63.623047"/>
       <use xlink:href="#DejaVuSans-30" x="127.246094"/>
      </g>
     </g>
    </g>
    <g id="ytick_5">
     <g id="line2d_12">
      <g>
       <use xlink:href="#md112502510" x="57.6" y="107.426102" style="stroke: #000000; stroke-width: 0.8"/>
      </g>
     </g>
     <g id="text_12">
      <!-- 250 -->
      <g transform="translate(31.5125 111.225321) scale(0.1 -0.1)">
       <use xlink:href="#DejaVuSans-32"/>
       <use xlink:href="#DejaVuSans-35" x="63.623047"/>
       <use xlink:href="#DejaVuSans-30" x="127.246094"/>
      </g>
     </g>
    </g>
    <g id="ytick_6">
     <g id="line2d_13">
      <g>
       <use xlink:href="#md112502510" x="57.6" y="63.280117" style="stroke: #000000; stroke-width: 0.8"/>
      </g>
     </g>
     <g id="text_13">
      <!-- 300 -->
      <g transform="translate(31.5125 67.079336) scale(0.1 -0.1)">
       <use xlink:href="#DejaVuSans-33"/>
       <use xlink:href="#DejaVuSans-30" x="63.623047"/>
       <use xlink:href="#DejaVuSans-30" x="127.246094"/>
      </g>
     </g>
    </g>
    <g id="text_14">
     <!-- Episode Length -->
     <g transform="translate(25.432812 213.001438) rotate(-90) scale(0.1 -0.1)">
      <defs>
       <path id="DejaVuSans-45" d="M 628 4666 
L 3578 4666 
L 3578 4134 
L 1259 4134 
L 1259 2753 
L 3481 2753 
L 3481 2222 
L 1259 2222 
L 1259 531 
L 3634 531 
L 3634 0 
L 628 0 
L 628 4666 
z
" transform="scale(0.015625)"/>
       <path id="DejaVuSans-70" d="M 1159 525 
L 1159 -1331 
L 581 -1331 
L 581 3500 
L 1159 3500 
L 1159 2969 
Q 1341 3281 1617 3432 
Q 1894 3584 2278 3584 
Q 2916 3584 3314 3078 
Q 3713 2572 3713 1747 
Q 3713 922 3314 415 
Q 2916 -91 2278 -91 
Q 1894 -91 1617 61 
Q 1341 213 1159 525 
z
M 3116 1747 
Q 3116 2381 2855 2742 
Q 2594 3103 2138 3103 
Q 1681 3103 1420 2742 
Q 1159 2381 1159 1747 
Q 1159 1113 1420 752 
Q 1681 391 2138 391 
Q 2594 391 2855 752 
Q 3116 1113 3116 1747 
z
" transform="scale(0.015625)"/>
       <path id="DejaVuSans-69" d="M 603 3500 
L 1178 3500 
L 1178 0 
L 603 0 
L 603 3500 
z
M 603 4863 
L 1178 4863 
L 1178 4134 
L 603 4134 
L 603 4863 
z
" transform="scale(0.015625)"/>
       <path id="DejaVuSans-73" d="M 2834 3397 
L 2834 2853 
Q 2591 2978 2328 3040 
Q 2066 3103 1784 3103 
Q 1356 3103 1142 2972 
Q 928 2841 928 2578 
Q 928 2378 1081 2264 
Q 1234 2150 1697 2047 
L 1894 2003 
Q 2506 1872 2764 1633 
Q 3022 1394 3022 966 
Q 3022 478 2636 193 
Q 2250 -91 1575 -91 
Q 1294 -91 989 -36 
Q 684 19 347 128 
L 347 722 
Q 666 556 975 473 
Q 1284 391 1588 391 
Q 1994 391 2212 530 
Q 2431 669 2431 922 
Q 2431 1156 2273 1281 
Q 2116 1406 1581 1522 
L 1381 1569 
Q 847 1681 609 1914 
Q 372 2147 372 2553 
Q 372 3047 722 3315 
Q 1072 3584 1716 3584 
Q 2034 3584 2315 3537 
Q 2597 3491 2834 3397 
z
" transform="scale(0.015625)"/>
       <path id="DejaVuSans-6f" d="M 1959 3097 
Q 1497 3097 1228 2736 
Q 959 2375 959 1747 
Q 959 1119 1226 758 
Q 1494 397 1959 397 
Q 2419 397 2687 759 
Q 2956 1122 2956 1747 
Q 2956 2369 2687 2733 
Q 2419 3097 1959 3097 
z
M 1959 3584 
Q 2709 3584 3137 3096 
Q 3566 2609 3566 1747 
Q 3566 888 3137 398 
Q 2709 -91 1959 -91 
Q 1206 -91 779 398 
Q 353 888 353 1747 
Q 353 2609 779 3096 
Q 1206 3584 1959 3584 
z
" transform="scale(0.015625)"/>
       <path id="DejaVuSans-64" d="M 2906 2969 
L 2906 4863 
L 3481 4863 
L 3481 0 
L 2906 0 
L 2906 525 
Q 2725 213 2448 61 
Q 2172 -91 1784 -91 
Q 1150 -91 751 415 
Q 353 922 353 1747 
Q 353 2572 751 3078 
Q 1150 3584 1784 3584 
Q 2172 3584 2448 3432 
Q 2725 3281 2906 2969 
z
M 947 1747 
Q 947 1113 1208 752 
Q 1469 391 1925 391 
Q 2381 391 2643 752 
Q 2906 1113 2906 1747 
Q 2906 2381 2643 2742 
Q 2381 3103 1925 3103 
Q 1469 3103 1208 2742 
Q 947 2381 947 1747 
z
" transform="scale(0.015625)"/>
       <path id="DejaVuSans-65" d="M 3597 1894 
L 3597 1613 
L 953 1613 
Q 991 1019 1311 708 
Q 1631 397 2203 397 
Q 2534 397 2845 478 
Q 3156 559 3463 722 
L 3463 178 
Q 3153 47 2828 -22 
Q 2503 -91 2169 -91 
Q 1331 -91 842 396 
Q 353 884 353 1716 
Q 353 2575 817 3079 
Q 1281 3584 2069 3584 
Q 2775 3584 3186 3129 
Q 3597 2675 3597 1894 
z
M 3022 2063 
Q 3016 2534 2758 2815 
Q 2500 3097 2075 3097 
Q 1594 3097 1305 2825 
Q 1016 2553 972 2059 
L 3022 2063 
z
" transform="scale(0.015625)"/>
       <path id="DejaVuSans-20" transform="scale(0.015625)"/>
       <path id="DejaVuSans-4c" d="M 628 4666 
L 1259 4666 
L 1259 531 
L 3531 531 
L 3531 0 
L 628 0 
L 628 4666 
z
" transform="scale(0.015625)"/>
       <path id="DejaVuSans-6e" d="M 3513 2113 
L 3513 0 
L 2938 0 
L 2938 2094 
Q 2938 2591 2744 2837 
Q 2550 3084 2163 3084 
Q 1697 3084 1428 2787 
Q 1159 2491 1159 1978 
L 1159 0 
L 581 0 
L 581 3500 
L 1159 3500 
L 1159 2956 
Q 1366 3272 1645 3428 
Q 1925 3584 2291 3584 
Q 2894 3584 3203 3211 
Q 3513 2838 3513 2113 
z
" transform="scale(0.015625)"/>
       <path id="DejaVuSans-67" d="M 2906 1791 
Q 2906 2416 2648 2759 
Q 2391 3103 1925 3103 
Q 1463 3103 1205 2759 
Q 947 2416 947 1791 
Q 947 1169 1205 825 
Q 1463 481 1925 481 
Q 2391 481 2648 825 
Q 2906 1169 2906 1791 
z
M 3481 434 
Q 3481 -459 3084 -895 
Q 2688 -1331 1869 -1331 
Q 1566 -1331 1297 -1286 
Q 1028 -1241 775 -1147 
L 775 -588 
Q 1028 -725 1275 -790 
Q 1522 -856 1778 -856 
Q 2344 -856 2625 -561 
Q 2906 -266 2906 331 
L 2906 616 
Q 2728 306 2450 153 
Q 2172 0 1784 0 
Q 1141 0 747 490 
Q 353 981 353 1791 
Q 353 2603 747 3093 
Q 1141 3584 1784 3584 
Q 2172 3584 2450 3431 
Q 2728 3278 2906 2969 
L 2906 3500 
L 3481 3500 
L 3481 434 
z
" transform="scale(0.015625)"/>
       <path id="DejaVuSans-74" d="M 1172 4494 
L 1172 3500 
L 2356 3500 
L 2356 3053 
L 1172 3053 
L 1172 1153 
Q 1172 725 1289 603 
Q 1406 481 1766 481 
L 2356 481 
L 2356 0 
L 1766 0 
Q 1100 0 847 248 
Q 594 497 594 1153 
L 594 3053 
L 172 3053 
L 172 3500 
L 594 3500 
L 594 4494 
L 1172 4494 
z
" transform="scale(0.015625)"/>
       <path id="DejaVuSans-68" d="M 3513 2113 
L 3513 0 
L 2938 0 
L 2938 2094 
Q 2938 2591 2744 2837 
Q 2550 3084 2163 3084 
Q 1697 3084 1428 2787 
Q 1159 2491 1159 1978 
L 1159 0 
L 581 0 
L 581 4863 
L 1159 4863 
L 1159 2956 
Q 1366 3272 1645 3428 
Q 1925 3584 2291 3584 
Q 2894 3584 3203 3211 
Q 3513 2838 3513 2113 
z
" transform="scale(0.015625)"/>
      </defs>
      <use xlink:href="#DejaVuSans-45"/>
      <use xlink:href="#DejaVuSans-70" x="63.183594"/>
      <use xlink:href="#DejaVuSans-69" x="126.660156"/>
      <use xlink:href="#DejaVuSans-73" x="154.443359"/>
      <use xlink:href="#DejaVuSans-6f" x="206.542969"/>
      <use xlink:href="#DejaVuSans-64" x="267.724609"/>
      <use xlink:href="#DejaVuSans-65" x="331.201172"/>
      <use xlink:href="#DejaVuSans-20" x="392.724609"/>
      <use xlink:href="#DejaVuSans-4c" x="424.511719"/>
      <use xlink:href="#DejaVuSans-65" x="478.474609"/>
      <use xlink:href="#DejaVuSans-6e" x="539.998047"/>
      <use xlink:href="#DejaVuSans-67" x="603.376953"/>
      <use xlink:href="#DejaVuSans-74" x="666.853516"/>
      <use xlink:href="#DejaVuSans-68" x="706.0625"/>
     </g>
    </g>
   </g>
   <g id="line2d_14">
    <path d="M 73.832727 240.746978 
L 74.374722 251.342015 
L 74.916716 252.224934 
L 75.45871 208.078949 
L 76.000704 240.746978 
L 76.542698 291.073401 
L 77.084693 250.459095 
L 77.626687 228.386102 
L 78.168681 193.069314 
L 78.710675 204.54727 
L 79.25267 233.68362 
L 79.794664 213.376467 
L 80.336658 274.297927 
L 80.878652 281.361285 
L 81.420647 284.010044 
L 81.962641 283.127124 
L 82.504635 212.493547 
L 83.046629 281.361285 
L 83.588623 258.405372 
L 84.130618 274.297927 
L 84.672612 139.211212 
L 85.214606 275.180847 
L 85.7566 249.576175 
L 86.298595 240.746978 
L 87.382583 272.532088 
L 87.924577 246.044496 
L 88.466572 269.000409 
L 89.008566 231.034861 
L 89.55056 172.762161 
L 90.634548 246.044496 
L 91.176543 173.64508 
L 91.718537 228.386102 
L 92.260531 266.35165 
L 92.802525 258.405372 
L 93.34452 265.46873 
L 93.886514 259.288292 
L 94.428508 222.205664 
L 94.970502 231.917781 
L 95.512497 234.56654 
L 96.054491 260.171212 
L 96.596485 256.639533 
L 97.680474 224.854423 
L 98.222468 249.576175 
L 98.764462 208.078949 
L 99.306456 176.293839 
L 99.84845 241.629898 
L 100.390445 193.069314 
L 100.932439 261.054131 
L 101.474433 261.937051 
L 102.016427 270.766248 
L 102.558422 275.180847 
L 103.100416 248.693255 
L 103.64241 252.224934 
L 104.184404 256.639533 
L 104.726399 222.205664 
L 105.268393 270.766248 
L 105.810387 269.000409 
L 106.352381 221.322745 
L 106.894375 260.171212 
L 107.43637 210.727708 
L 107.978364 225.737343 
L 108.520358 213.376467 
L 109.062352 225.737343 
L 109.604347 246.927416 
L 110.146341 233.68362 
L 110.688335 261.937051 
L 111.230329 253.990774 
L 112.314318 226.620263 
L 112.856312 234.56654 
L 113.398306 229.269022 
L 113.940301 203.66435 
L 114.482295 221.322745 
L 115.024289 231.917781 
L 115.566283 239.864058 
L 116.108277 230.151942 
L 116.650272 147.157489 
L 117.192266 213.376467 
L 117.73426 244.278657 
L 118.276254 219.556905 
L 118.818249 261.937051 
L 119.360243 221.322745 
L 119.902237 227.503182 
L 120.444231 231.917781 
L 120.986226 224.854423 
L 121.52822 230.151942 
L 122.070214 166.581723 
L 122.612208 196.600993 
L 123.154202 208.078949 
L 123.696197 268.117489 
L 124.238191 227.503182 
L 124.780185 237.215299 
L 125.322179 201.015591 
L 125.864174 229.269022 
L 126.406168 213.376467 
L 126.948162 168.347562 
L 127.490156 157.752526 
L 128.032151 234.56654 
L 128.574145 194.835153 
L 129.116139 248.693255 
L 129.658133 244.278657 
L 130.200127 210.727708 
L 130.742122 228.386102 
L 131.284116 155.986686 
L 131.82611 201.898511 
L 132.368104 218.673985 
L 132.910099 178.942599 
L 133.452093 225.737343 
L 133.994087 241.629898 
L 134.536081 270.766248 
L 135.078076 221.322745 
L 135.62007 256.639533 
L 136.162064 212.493547 
L 136.704058 215.142307 
L 137.246053 186.005956 
L 137.788047 264.58581 
L 138.330041 247.810336 
L 138.872035 191.303474 
L 139.414029 208.961869 
L 139.956024 218.673985 
L 140.498018 195.718073 
L 141.040012 146.274569 
L 141.582006 183.357197 
L 142.124001 253.107854 
L 142.665995 225.737343 
L 143.207989 232.800701 
L 143.749983 260.171212 
L 144.291978 273.415007 
L 144.833972 251.342015 
L 145.375966 204.54727 
L 145.91796 208.078949 
L 146.459954 245.161577 
L 147.001949 183.357197 
L 147.543943 251.342015 
L 148.085937 205.43019 
L 148.627931 280.478365 
L 149.169926 263.702891 
L 149.71192 174.528 
L 150.253914 227.503182 
L 150.795908 237.215299 
L 151.337903 187.771796 
L 151.879897 218.673985 
L 152.421891 232.800701 
L 152.963885 288.424642 
L 153.505879 190.420555 
L 154.047874 191.303474 
L 154.589868 223.971504 
L 155.131862 279.595445 
L 155.673856 173.64508 
L 156.215851 232.800701 
L 156.757845 274.297927 
L 157.299839 238.981139 
L 157.841833 258.405372 
L 158.383828 226.620263 
L 158.925822 248.693255 
L 159.467816 231.917781 
L 160.00981 61.514277 
L 160.551805 200.132672 
L 161.093799 225.737343 
L 161.635793 219.556905 
L 162.177787 175.41092 
L 163.261776 273.415007 
L 163.80377 146.274569 
L 164.345764 186.888876 
L 164.887758 214.259387 
L 165.429753 276.063766 
L 165.971747 249.576175 
L 166.513741 187.771796 
L 167.055735 68.577635 
L 167.59773 148.040409 
L 168.139724 206.313109 
L 169.223712 261.937051 
L 169.765706 262.819971 
L 170.307701 225.737343 
L 170.849695 231.034861 
L 171.391689 206.313109 
L 171.933683 209.844788 
L 172.475678 269.883328 
L 173.017672 179.825518 
L 173.559666 213.376467 
L 174.10166 117.138219 
L 174.643655 216.025226 
L 175.185649 274.297927 
L 175.727643 204.54727 
L 176.269637 191.303474 
L 176.811632 188.654715 
L 177.353626 233.68362 
L 177.89562 232.800701 
L 178.437614 278.712526 
L 178.979608 265.46873 
L 179.521603 270.766248 
L 180.605591 162.167124 
L 181.147585 228.386102 
L 181.68958 160.401285 
L 182.231574 233.68362 
L 182.773568 159.518365 
L 183.315562 258.405372 
L 184.399551 158.635445 
L 184.941545 187.771796 
L 185.483539 232.800701 
L 186.025533 140.094131 
L 186.567528 269.000409 
L 187.109522 173.64508 
L 187.651516 195.718073 
L 188.19351 274.297927 
L 188.735505 172.762161 
L 189.277499 253.107854 
L 189.819493 263.702891 
L 190.361487 231.034861 
L 190.903482 286.658803 
L 191.445476 177.176759 
L 191.98747 283.127124 
L 192.529464 191.303474 
L 193.071458 226.620263 
L 194.155447 205.43019 
L 194.697441 197.483912 
L 195.239435 275.180847 
L 195.78143 193.952234 
L 196.323424 219.556905 
L 196.865418 196.600993 
L 197.407412 71.226394 
L 197.949407 261.054131 
L 199.033395 173.64508 
L 199.575389 266.35165 
L 200.117384 269.883328 
L 200.659378 225.737343 
L 201.201372 269.000409 
L 201.743366 186.888876 
L 202.28536 243.395737 
L 202.827355 221.322745 
L 203.369349 148.040409 
L 203.911343 279.595445 
L 204.453337 231.917781 
L 204.995332 114.48946 
L 206.07932 168.347562 
L 206.621314 227.503182 
L 207.163309 249.576175 
L 207.705303 242.512818 
L 208.789291 141.859971 
L 209.331285 206.313109 
L 209.87328 195.718073 
L 210.415274 224.854423 
L 210.957268 223.971504 
L 211.499262 201.898511 
L 212.041257 271.649168 
L 212.583251 225.737343 
L 213.125245 133.913693 
L 213.667239 238.098219 
L 214.209234 234.56654 
L 214.751228 268.117489 
L 215.293222 259.288292 
L 215.835216 169.230482 
L 216.377211 235.44946 
L 216.919205 117.138219 
L 217.461199 204.54727 
L 218.003193 176.293839 
L 218.545187 266.35165 
L 219.087182 238.981139 
L 219.629176 182.474277 
L 220.17117 278.712526 
L 220.713164 170.996321 
L 221.255159 280.478365 
L 221.797153 255.756613 
L 222.339147 223.088584 
L 222.881141 158.635445 
L 223.423136 165.698803 
L 223.96513 204.54727 
L 224.507124 193.069314 
L 225.049118 151.572088 
L 225.591112 225.737343 
L 226.133107 247.810336 
L 226.675101 159.518365 
L 227.217095 140.977051 
L 227.759089 163.932964 
L 228.301084 232.800701 
L 228.843078 258.405372 
L 229.385072 202.781431 
L 229.927066 246.927416 
L 230.469061 190.420555 
L 231.011055 171.879241 
L 231.553049 266.35165 
L 232.095043 232.800701 
L 232.637037 222.205664 
L 233.179032 235.44946 
L 233.721026 234.56654 
L 234.26302 193.952234 
L 234.805014 199.249752 
L 235.347009 165.698803 
L 235.889003 231.917781 
L 236.430997 266.35165 
L 236.972991 164.815883 
L 237.514986 255.756613 
L 238.05698 181.591358 
L 238.598974 172.762161 
L 239.140968 245.161577 
L 239.682963 219.556905 
L 240.224957 233.68362 
L 240.766951 238.098219 
L 241.308945 109.191942 
L 241.850939 181.591358 
L 242.934928 260.171212 
L 243.476922 261.937051 
L 244.018916 256.639533 
L 244.560911 211.610628 
L 245.102905 208.078949 
L 245.644899 229.269022 
L 246.186893 146.274569 
L 246.728888 227.503182 
L 247.270882 160.401285 
L 247.812876 231.917781 
L 248.35487 210.727708 
L 248.896864 225.737343 
L 249.438859 226.620263 
L 249.980853 264.58581 
L 250.522847 186.888876 
L 251.064841 170.996321 
L 251.606836 91.533547 
L 252.14883 192.186394 
L 252.690824 209.844788 
L 253.232818 150.689168 
L 253.774813 257.522453 
L 254.316807 233.68362 
L 254.858801 231.917781 
L 255.400795 259.288292 
L 255.942789 224.854423 
L 256.484784 245.161577 
L 257.026778 207.196029 
L 257.568772 219.556905 
L 258.110766 237.215299 
L 258.652761 205.43019 
L 259.194755 216.908146 
L 259.736749 250.459095 
L 260.278743 237.215299 
L 260.820738 235.44946 
L 261.362732 152.455007 
L 262.44672 274.297927 
L 262.988715 233.68362 
L 263.530709 163.050044 
L 264.072703 253.107854 
L 264.614697 124.201577 
L 265.156691 264.58581 
L 265.698686 206.313109 
L 266.24068 70.343474 
L 266.782674 228.386102 
L 267.324668 250.459095 
L 268.408657 143.62581 
L 268.950651 172.762161 
L 269.492645 230.151942 
L 270.03464 218.673985 
L 270.576634 225.737343 
L 271.118628 238.981139 
L 271.660622 236.33238 
L 272.202616 187.771796 
L 272.744611 253.107854 
L 273.286605 213.376467 
L 273.828599 224.854423 
L 274.370593 213.376467 
L 274.912588 217.791066 
L 275.454582 232.800701 
L 275.996576 173.64508 
L 276.53857 188.654715 
L 277.080565 54.45092 
L 277.622559 198.366832 
L 278.706547 238.981139 
L 279.248542 224.854423 
L 279.790536 271.649168 
L 280.33253 245.161577 
L 280.874524 226.620263 
L 281.416518 226.620263 
L 281.958513 178.059679 
L 282.500507 232.800701 
L 283.042501 198.366832 
L 283.584495 183.357197 
L 284.12649 226.620263 
L 284.668484 236.33238 
L 285.210478 230.151942 
L 285.752472 128.616175 
L 286.294467 88.884788 
L 287.378455 262.819971 
L 287.920449 231.917781 
L 288.462443 190.420555 
L 289.004438 267.234569 
L 289.546432 213.376467 
L 290.088426 134.796613 
L 290.63042 233.68362 
L 291.172415 218.673985 
L 291.714409 253.107854 
L 292.256403 210.727708 
L 292.798397 281.361285 
L 293.340392 203.66435 
L 293.882386 226.620263 
L 294.966374 150.689168 
L 295.508368 231.917781 
L 296.050363 223.088584 
L 296.592357 204.54727 
L 297.676345 268.117489 
L 298.21834 227.503182 
L 298.760334 249.576175 
L 299.302328 230.151942 
L 299.844322 198.366832 
L 300.386317 238.098219 
L 301.470305 196.600993 
L 302.012299 154.220847 
L 302.554294 251.342015 
L 303.096288 231.034861 
L 303.638282 232.800701 
L 304.180276 155.103766 
L 304.72227 217.791066 
L 305.264265 189.537635 
L 305.806259 221.322745 
L 306.348253 132.147854 
L 306.890247 125.967416 
L 307.432242 203.66435 
L 307.974236 214.259387 
L 308.51623 272.532088 
L 309.058224 165.698803 
L 309.600219 222.205664 
L 310.142213 238.098219 
L 310.684207 246.044496 
L 311.226201 221.322745 
L 311.768195 207.196029 
L 312.31019 216.908146 
L 312.852184 238.098219 
L 313.394178 211.610628 
L 313.936172 268.117489 
L 314.478167 151.572088 
L 315.020161 218.673985 
L 315.562155 207.196029 
L 316.104149 224.854423 
L 316.646144 295.488 
L 317.188138 220.439825 
L 318.272126 123.318657 
L 318.814121 164.815883 
L 319.356115 178.059679 
L 319.898109 275.180847 
L 320.440103 184.240117 
L 320.982097 178.059679 
L 321.524092 177.176759 
L 322.066086 138.328292 
L 322.60808 229.269022 
L 323.150074 221.322745 
L 323.692069 122.435737 
L 324.234063 218.673985 
L 324.776057 204.54727 
L 325.318051 201.015591 
L 325.860046 219.556905 
L 326.40204 199.249752 
L 326.944034 227.503182 
L 327.486028 230.151942 
L 328.028022 185.123036 
L 328.570017 209.844788 
L 329.112011 265.46873 
L 329.654005 233.68362 
L 330.195999 138.328292 
L 330.737994 231.917781 
L 331.279988 218.673985 
L 331.821982 222.205664 
L 332.363976 223.088584 
L 332.905971 227.503182 
L 333.447965 176.293839 
L 333.989959 164.815883 
L 334.531953 268.117489 
L 335.073947 237.215299 
L 335.615942 227.503182 
L 336.157936 268.117489 
L 336.69993 193.069314 
L 337.241924 264.58581 
L 337.783919 217.791066 
L 338.325913 262.819971 
L 338.867907 233.68362 
L 339.409901 231.034861 
L 339.951896 289.307562 
L 340.49389 191.303474 
L 341.035884 195.718073 
L 341.577878 281.361285 
L 342.119873 164.815883 
L 342.661867 208.961869 
L 343.203861 274.297927 
L 343.745855 195.718073 
L 344.287849 168.347562 
L 344.829844 221.322745 
L 345.371838 238.981139 
L 345.913832 228.386102 
L 346.455826 151.572088 
L 346.997821 185.123036 
L 347.539815 242.512818 
L 348.081809 203.66435 
L 348.623803 55.333839 
L 349.165798 214.259387 
L 349.707792 148.923328 
L 350.249786 220.439825 
L 350.79178 144.50873 
L 351.333774 172.762161 
L 351.875769 114.48946 
L 352.959757 226.620263 
L 353.501751 192.186394 
L 354.043746 197.483912 
L 354.58574 137.445372 
L 355.127734 190.420555 
L 355.669728 212.493547 
L 356.211723 120.669898 
L 356.753717 194.835153 
L 357.295711 150.689168 
L 357.837705 178.059679 
L 358.379699 143.62581 
L 358.921694 95.948146 
L 359.463688 274.297927 
L 360.005682 175.41092 
L 360.547676 272.532088 
L 361.089671 254.873693 
L 361.631665 53.568 
L 362.173659 164.815883 
L 362.715653 78.289752 
L 363.257648 193.069314 
L 363.799642 140.977051 
L 364.341636 168.347562 
L 364.88363 246.927416 
L 365.425625 237.215299 
L 365.967619 240.746978 
L 367.051607 178.942599 
L 367.593601 225.737343 
L 368.135596 100.362745 
L 368.67759 209.844788 
L 369.219584 238.098219 
L 369.761578 162.167124 
L 370.303573 245.161577 
L 370.845567 174.528 
L 371.387561 223.971504 
L 371.929555 186.005956 
L 372.47155 205.43019 
L 373.013544 152.455007 
L 374.097532 198.366832 
L 374.639526 205.43019 
L 375.723515 258.405372 
L 376.265509 208.961869 
L 376.807503 204.54727 
L 377.891492 172.762161 
L 378.433486 276.063766 
L 378.97548 163.050044 
L 380.059469 242.512818 
L 380.601463 143.62581 
L 381.143457 250.459095 
L 381.685452 150.689168 
L 382.227446 204.54727 
L 382.76944 176.293839 
L 383.311434 190.420555 
L 383.853428 215.142307 
L 384.395423 228.386102 
L 384.937417 235.44946 
L 385.479411 220.439825 
L 386.021405 158.635445 
L 386.5634 228.386102 
L 387.105394 218.673985 
L 387.647388 149.806248 
L 388.189382 226.620263 
L 388.731377 229.269022 
L 389.273371 259.288292 
L 389.815365 209.844788 
L 390.357359 174.528 
L 390.899353 160.401285 
L 391.441348 220.439825 
L 391.983342 244.278657 
L 392.525336 178.059679 
L 393.06733 240.746978 
L 393.609325 182.474277 
L 394.151319 226.620263 
L 394.693313 223.088584 
L 395.235307 164.815883 
L 396.319296 183.357197 
L 396.86129 246.044496 
L 397.945278 178.059679 
L 398.487273 224.854423 
L 398.487273 224.854423 
" clip-path="url(#pb03be9aad6)" style="fill: none; stroke: #1f77b4; stroke-width: 1.5; stroke-linecap: square"/>
   </g>
   <g id="patch_3">
    <path d="M 57.6 307.584 
L 57.6 41.472 
" style="fill: none; stroke: #000000; stroke-width: 0.8; stroke-linejoin: miter; stroke-linecap: square"/>
   </g>
   <g id="patch_4">
    <path d="M 414.72 307.584 
L 414.72 41.472 
" style="fill: none; stroke: #000000; stroke-width: 0.8; stroke-linejoin: miter; stroke-linecap: square"/>
   </g>
   <g id="patch_5">
    <path d="M 57.6 307.584 
L 414.72 307.584 
" style="fill: none; stroke: #000000; stroke-width: 0.8; stroke-linejoin: miter; stroke-linecap: square"/>
   </g>
   <g id="patch_6">
    <path d="M 57.6 41.472 
L 414.72 41.472 
" style="fill: none; stroke: #000000; stroke-width: 0.8; stroke-linejoin: miter; stroke-linecap: square"/>
   </g>
   <g id="text_15">
    <!-- Episode Length -->
    <g transform="translate(189.991875 35.472) scale(0.12 -0.12)">
     <use xlink:href="#DejaVuSans-45"/>
     <use xlink:href="#DejaVuSans-70" x="63.183594"/>
     <use xlink:href="#DejaVuSans-69" x="126.660156"/>
     <use xlink:href="#DejaVuSans-73" x="154.443359"/>
     <use xlink:href="#DejaVuSans-6f" x="206.542969"/>
     <use xlink:href="#DejaVuSans-64" x="267.724609"/>
     <use xlink:href="#DejaVuSans-65" x="331.201172"/>
     <use xlink:href="#DejaVuSans-20" x="392.724609"/>
     <use xlink:href="#DejaVuSans-4c" x="424.511719"/>
     <use xlink:href="#DejaVuSans-65" x="478.474609"/>
     <use xlink:href="#DejaVuSans-6e" x="539.998047"/>
     <use xlink:href="#DejaVuSans-67" x="603.376953"/>
     <use xlink:href="#DejaVuSans-74" x="666.853516"/>
     <use xlink:href="#DejaVuSans-68" x="706.0625"/>
    </g>
   </g>
   <g id="legend_1">
    <g id="patch_7">
     <path d="M 64.6 64.150125 
L 173.546875 64.150125 
Q 175.546875 64.150125 175.546875 62.150125 
L 175.546875 48.472 
Q 175.546875 46.472 173.546875 46.472 
L 64.6 46.472 
Q 62.6 46.472 62.6 48.472 
L 62.6 62.150125 
Q 62.6 64.150125 64.6 64.150125 
z
" style="fill: #ffffff; opacity: 0.8; stroke: #cccccc; stroke-linejoin: miter"/>
    </g>
    <g id="line2d_15">
     <path d="M 66.6 54.570438 
L 76.6 54.570438 
L 86.6 54.570438 
" style="fill: none; stroke: #1f77b4; stroke-width: 1.5; stroke-linecap: square"/>
    </g>
    <g id="text_16">
     <!-- Episode Length -->
     <g transform="translate(94.6 58.070438) scale(0.1 -0.1)">
      <use xlink:href="#DejaVuSans-45"/>
      <use xlink:href="#DejaVuSans-70" x="63.183594"/>
      <use xlink:href="#DejaVuSans-69" x="126.660156"/>
      <use xlink:href="#DejaVuSans-73" x="154.443359"/>
      <use xlink:href="#DejaVuSans-6f" x="206.542969"/>
      <use xlink:href="#DejaVuSans-64" x="267.724609"/>
      <use xlink:href="#DejaVuSans-65" x="331.201172"/>
      <use xlink:href="#DejaVuSans-20" x="392.724609"/>
      <use xlink:href="#DejaVuSans-4c" x="424.511719"/>
      <use xlink:href="#DejaVuSans-65" x="478.474609"/>
      <use xlink:href="#DejaVuSans-6e" x="539.998047"/>
      <use xlink:href="#DejaVuSans-67" x="603.376953"/>
      <use xlink:href="#DejaVuSans-74" x="666.853516"/>
      <use xlink:href="#DejaVuSans-68" x="706.0625"/>
     </g>
    </g>
   </g>
  </g>
 </g>
 <defs>
  <clipPath id="pb03be9aad6">
   <rect x="57.6" y="41.472" width="357.12" height="266.112"/>
  </clipPath>
 </defs>
</svg>
